<svg xmlns="http://www.w3.org/2000/svg" xmlns:xlink="http://www.w3.org/1999/xlink" viewBox="0 0 347.28 183.78"><defs><style>.cls-1{fill:none;}.cls-2{isolation:isolate;}.cls-3{fill:#fff;}.cls-4{clip-path:url(#clip-path);}.cls-5{fill:url(#linear-gradient);}.cls-6{fill:url(#linear-gradient-2);}.cls-7,.cls-8,.cls-9{mix-blend-mode:color-burn;}.cls-7{fill:url(#linear-gradient-3);}.cls-8{fill:url(#linear-gradient-4);}.cls-9{fill:url(#linear-gradient-5);}.cls-10{opacity:0.91;}.cls-11{fill:#e72d00;}.cls-12{fill:#0a1c2e;}.cls-13{fill:#787878;}</style><clipPath id="clip-path" transform="translate(66.8 47.72)"><rect class="cls-1" width="280.48" height="70.19" transform="translate(280.48 70.19) rotate(180)"/></clipPath><linearGradient id="linear-gradient" x1="-2900.33" y1="57.61" x2="-2700.39" y2="28.5" gradientTransform="matrix(-1, 0, 0, 1, -2655.91, 47.72)" gradientUnits="userSpaceOnUse"><stop offset="0.28" stop-color="#0c1e30"/><stop offset="1" stop-color="#000f1f"/></linearGradient><linearGradient id="linear-gradient-2" x1="-2875.96" y1="15.88" x2="-2916.65" y2="88.86" gradientTransform="matrix(-1, 0, 0, 1, -2655.91, 47.72)" gradientUnits="userSpaceOnUse"><stop offset="0" stop-color="#ff3800"/><stop offset="0.3" stop-color="#e72e00"/><stop offset="0.92" stop-color="#aa1300"/><stop offset="1" stop-color="#a10f00"/></linearGradient><linearGradient id="linear-gradient-3" x1="-2842.28" y1="48.47" x2="-2842.28" y2="-12.57" gradientTransform="matrix(-1, 0, 0, 1, -2655.91, 47.72)" gradientUnits="userSpaceOnUse"><stop offset="0" stop-color="#fff"/><stop offset="0.4" stop-color="#f9f9f9"/><stop offset="0.94" stop-color="#e8e8e8"/><stop offset="1" stop-color="#e6e6e6"/></linearGradient><linearGradient id="linear-gradient-4" x1="-2851.77" y1="66.54" x2="-2851.77" y2="3.8" xlink:href="#linear-gradient-3"/><linearGradient id="linear-gradient-5" x1="1154.19" y1="-3199.58" x2="1154.19" y2="-3262.32" gradientTransform="matrix(1, 0, 0, -1, -958.98, -3114.67)" gradientUnits="userSpaceOnUse"><stop offset="0" stop-color="#fff"/><stop offset="0.25" stop-color="#f9f9f9"/><stop offset="0.58" stop-color="#e8e8e8"/><stop offset="0.96" stop-color="#cdcdcd"/><stop offset="1" stop-color="#c9c9c9"/></linearGradient></defs><g class="cls-2"><g id="Layer_2" data-name="Layer 2"><g id="Layer_1-2" data-name="Layer 1"><rect class="cls-3" x="66.8" y="47.72" width="280.48" height="70.19"/><g class="cls-4"><polygon class="cls-5" points="0 139.21 218.2 139.21 283.76 41.6 65.55 41.6 0 139.21"/><polygon class="cls-6" points="221.85 133.78 210.51 133.78 257.5 63.81 268.84 63.81 221.85 133.78"/><polygon class="cls-7" points="168.49 99.21 137.62 99.21 204.25 0 235.12 0 168.49 99.21"/><polygon class="cls-8" points="177.48 117.36 145.75 117.36 214.23 15.39 245.96 15.39 177.48 117.36"/><polygon class="cls-9" points="213.58 81.81 245.31 81.81 176.83 183.78 145.1 183.78 213.58 81.81"/></g><g class="cls-10"><path class="cls-11" d="M219,35.63V26.22h2.3a4.75,4.75,0,0,1,1.14.12,2.24,2.24,0,0,1,.86.38,1.54,1.54,0,0,1,.57.75,2.86,2.86,0,0,1,.19,1.15q0,1.74-1.38,1.95a1.87,1.87,0,0,1,1.24.73,2.65,2.65,0,0,1,.42,1.6,2.79,2.79,0,0,1-.67,2,2.6,2.6,0,0,1-2,.7Zm1.71-5.57h.54a1.33,1.33,0,0,0,1-.33,1.7,1.7,0,0,0,.28-1.09,1.89,1.89,0,0,0-.09-.64.69.69,0,0,0-.32-.37,1.36,1.36,0,0,0-.49-.17,6.42,6.42,0,0,0-.72,0h-.24Zm0,4.36h.63a1.3,1.3,0,0,0,1.06-.36,2.46,2.46,0,0,0,0-2.41,1.41,1.41,0,0,0-1.12-.39h-.54Z" transform="translate(66.8 47.72)"/><path class="cls-11" d="M226,35.63l1.91-9.41h1.79l1.91,9.41H230l-.38-2.19H228l-.38,2.19Zm2.18-3.3h1.26l-.63-3.87Z" transform="translate(66.8 47.72)"/><path class="cls-11" d="M233.6,35.63V26.22h1.18l2.3,5.33V26.22h1.42v9.41h-1.12L235.05,30v5.6Z" transform="translate(66.8 47.72)"/><path class="cls-11" d="M241,35.63V26.22h1.18l2.31,5.33V26.22h1.41v9.41h-1.12L242.4,30v5.6Z" transform="translate(66.8 47.72)"/><path class="cls-11" d="M248.31,35.63V26.22h3.94v1.21H250v2.7h1.76v1.21H250v3.1h2.25v1.19Z" transform="translate(66.8 47.72)"/><path class="cls-11" d="M254.31,35.63V26.22h2.15a5.86,5.86,0,0,1,1.28.12,2.47,2.47,0,0,1,.93.41,1.73,1.73,0,0,1,.59.78,3.28,3.28,0,0,1,.19,1.2,3.39,3.39,0,0,1-.26,1.45,1.61,1.61,0,0,1-.87.81l1.31,4.64h-1.72l-1.13-4.3H256v4.3ZM256,30.24h.42a1.48,1.48,0,0,0,1.08-.33,1.54,1.54,0,0,0,.32-1.1,1.61,1.61,0,0,0-.28-1.08,1.3,1.3,0,0,0-1-.33H256Z" transform="translate(66.8 47.72)"/></g><g class="cls-10"><path class="cls-12" d="M224,38.67h-1.43V37.62h4.19v1.05h-1.43V42.3H224Z" transform="translate(66.8 47.72)"/><path class="cls-12" d="M231.13,40.81H228.5a.73.73,0,0,0,.31.43,1,1,0,0,0,.58.15,1.25,1.25,0,0,0,.45-.07,1.33,1.33,0,0,0,.38-.24l.67.69a2,2,0,0,1-1.54.59,2.49,2.49,0,0,1-1.12-.24,1.72,1.72,0,0,1-.74-.67,1.77,1.77,0,0,1-.27-1,1.87,1.87,0,0,1,.26-1,1.81,1.81,0,0,1,.71-.66,2.19,2.19,0,0,1,1-.24,2.15,2.15,0,0,1,1,.22,1.82,1.82,0,0,1,.7.65,1.92,1.92,0,0,1,.25,1S231.15,40.61,231.13,40.81Zm-2.4-1.12a.77.77,0,0,0-.25.45H230a.72.72,0,0,0-.74-.62A.75.75,0,0,0,228.73,39.69Z" transform="translate(66.8 47.72)"/><path class="cls-12" d="M238.19,39a1.64,1.64,0,0,1,.4,1.21V42.3h-1.27V40.44a1,1,0,0,0-.14-.57.5.5,0,0,0-.41-.18.6.6,0,0,0-.46.2,1,1,0,0,0-.17.61v1.8h-1.27V40.44c0-.5-.18-.75-.55-.75a.6.6,0,0,0-.47.2,1,1,0,0,0-.17.61v1.8h-1.27V38.68h1.21v.38a1.15,1.15,0,0,1,.48-.33,1.46,1.46,0,0,1,.6-.11,1.51,1.51,0,0,1,.68.14,1.07,1.07,0,0,1,.49.43,1.24,1.24,0,0,1,.54-.42,1.72,1.72,0,0,1,.72-.15A1.41,1.41,0,0,1,238.19,39Z" transform="translate(66.8 47.72)"/><path class="cls-12" d="M243.24,38.85a1.67,1.67,0,0,1,.64.65,2,2,0,0,1,.24,1,2,2,0,0,1-.24,1,1.63,1.63,0,0,1-.64.66,1.83,1.83,0,0,1-.9.23,1.37,1.37,0,0,1-1-.38V43.6h-1.27V38.68h1.21V39a1.32,1.32,0,0,1,1.07-.42A1.83,1.83,0,0,1,243.24,38.85Zm-.62,2.27a1,1,0,0,0,0-1.26.7.7,0,0,0-.55-.23.71.71,0,0,0-.55.23,1.05,1.05,0,0,0,0,1.26.75.75,0,0,0,.55.23A.73.73,0,0,0,242.62,41.12Z" transform="translate(66.8 47.72)"/><path class="cls-12" d="M245.37,37.34h1.27v5h-1.27Z" transform="translate(66.8 47.72)"/><path class="cls-12" d="M251.05,39a1.56,1.56,0,0,1,.48,1.26v2h-1.19v-.47a1.08,1.08,0,0,1-1.06.53,1.64,1.64,0,0,1-.73-.15,1.08,1.08,0,0,1-.47-.39,1.11,1.11,0,0,1-.15-.58.91.91,0,0,1,.39-.79,2.09,2.09,0,0,1,1.22-.29h.72c0-.38-.28-.57-.77-.57a2,2,0,0,0-.53.08,1.36,1.36,0,0,0-.45.23l-.43-.86a2.33,2.33,0,0,1,.73-.31,3.24,3.24,0,0,1,.87-.11A2,2,0,0,1,251.05,39Zm-1,2.42a.58.58,0,0,0,.24-.31v-.32h-.55c-.37,0-.55.13-.55.37a.34.34,0,0,0,.12.27.54.54,0,0,0,.35.1A.71.71,0,0,0,250,41.45Z" transform="translate(66.8 47.72)"/><path class="cls-12" d="M255.5,42.15a1.38,1.38,0,0,1-.39.16,2.63,2.63,0,0,1-.49,0,1.55,1.55,0,0,1-1.09-.35,1.3,1.3,0,0,1-.39-1V39.76h-.52v-.95h.52v-.94h1.27v.94h.83v.95h-.83V41a.45.45,0,0,0,.11.31.37.37,0,0,0,.27.11.65.65,0,0,0,.39-.12Z" transform="translate(66.8 47.72)"/><path class="cls-12" d="M260.23,40.81h-2.64a.74.74,0,0,0,.32.43,1,1,0,0,0,.57.15,1.18,1.18,0,0,0,.45-.07,1.37,1.37,0,0,0,.39-.24l.67.69a2,2,0,0,1-1.55.59,2.45,2.45,0,0,1-1.11-.24,1.81,1.81,0,0,1-.75-.67,1.85,1.85,0,0,1-.26-1,1.78,1.78,0,0,1,.26-1,1.74,1.74,0,0,1,.71-.66,2.13,2.13,0,0,1,1-.24,2.11,2.11,0,0,1,1,.22,1.69,1.69,0,0,1,.7.65,1.92,1.92,0,0,1,.26,1S260.24,40.61,260.23,40.81Zm-2.4-1.12a.68.68,0,0,0-.25.45h1.48a.77.77,0,0,0-.25-.45.75.75,0,0,0-.49-.17A.73.73,0,0,0,257.83,39.69Z" transform="translate(66.8 47.72)"/></g><path class="cls-13" d="M207.74,44.61h.32v2h1.22v.28h-1.54Z" transform="translate(66.8 47.72)"/><path class="cls-13" d="M210.18,46.77a.8.8,0,0,1-.32-.31.84.84,0,0,1-.11-.45.88.88,0,0,1,.11-.45.87.87,0,0,1,.32-.31.94.94,0,0,1,.45-.11,1,1,0,0,1,.46.11.84.84,0,0,1,.31.31.89.89,0,0,1,.12.45.84.84,0,0,1-.12.45.77.77,0,0,1-.31.31.9.9,0,0,1-.46.11A.84.84,0,0,1,210.18,46.77Zm.75-.23a.51.51,0,0,0,.2-.21.66.66,0,0,0,.08-.32.62.62,0,0,0-.08-.31.51.51,0,0,0-.2-.21.61.61,0,0,0-.3-.08.57.57,0,0,0-.29.08.53.53,0,0,0-.21.21.62.62,0,0,0-.07.31.66.66,0,0,0,.07.32.53.53,0,0,0,.21.21.57.57,0,0,0,.29.08A.61.61,0,0,0,210.93,46.54Z" transform="translate(66.8 47.72)"/><path class="cls-13" d="M212.8,45.22a.93.93,0,0,1,.39-.08v.3h-.07a.54.54,0,0,0-.4.15.62.62,0,0,0-.14.43v.85h-.31V45.16h.3v.29A.51.51,0,0,1,212.8,45.22Z" transform="translate(66.8 47.72)"/><path class="cls-13" d="M215.41,46.12H214a.54.54,0,0,0,.2.36.64.64,0,0,0,.42.14.61.61,0,0,0,.49-.21l.17.2a.63.63,0,0,1-.28.2,1,1,0,0,1-.39.07,1,1,0,0,1-.48-.11.69.69,0,0,1-.32-.31.84.84,0,0,1-.12-.45.89.89,0,0,1,.12-.45.81.81,0,0,1,.3-.31.94.94,0,0,1,.88,0,1,1,0,0,1,.3.31,1,1,0,0,1,.1.46Zm-1.21-.58a.57.57,0,0,0-.18.35h1.1a.57.57,0,0,0-.18-.35.56.56,0,0,0-.74,0Z" transform="translate(66.8 47.72)"/><path class="cls-13" d="M218.81,45.33a.76.76,0,0,1,.19.55v1h-.31v-.95a.5.5,0,0,0-.12-.37.38.38,0,0,0-.32-.13.5.5,0,0,0-.38.15.57.57,0,0,0-.13.42v.88h-.31v-.95a.5.5,0,0,0-.12-.37.38.38,0,0,0-.32-.13.49.49,0,0,0-.38.15.57.57,0,0,0-.14.42v.88h-.31V45.16h.3v.25a.63.63,0,0,1,.25-.2.89.89,0,0,1,.34-.07.78.78,0,0,1,.35.08.56.56,0,0,1,.24.24.67.67,0,0,1,.27-.23.86.86,0,0,1,.39-.09A.69.69,0,0,1,218.81,45.33Z" transform="translate(66.8 47.72)"/><path class="cls-13" d="M221.08,44.77a.18.18,0,0,1-.06-.14.2.2,0,0,1,.06-.14.2.2,0,0,1,.15-.06.25.25,0,0,1,.15,0,.2.2,0,0,1,.06.14.21.21,0,0,1-.36.15Zm0,.39h.31v1.71h-.31Z" transform="translate(66.8 47.72)"/><path class="cls-13" d="M223.65,45.25a.81.81,0,0,1,.3.31.84.84,0,0,1,.11.45.87.87,0,0,1-.11.46.81.81,0,0,1-.3.31.93.93,0,0,1-.45.1.72.72,0,0,1-.33-.07.57.57,0,0,1-.26-.2v.88h-.31V45.16h.29v.27a.66.66,0,0,1,.26-.21.85.85,0,0,1,.35-.08A.94.94,0,0,1,223.65,45.25Zm-.18,1.29a.53.53,0,0,0,.21-.21.66.66,0,0,0,.07-.32.62.62,0,0,0-.07-.31.53.53,0,0,0-.21-.21.57.57,0,0,0-.29-.08.61.61,0,0,0-.3.08.58.58,0,0,0-.2.21.62.62,0,0,0-.08.31.66.66,0,0,0,.08.32.58.58,0,0,0,.2.21.61.61,0,0,0,.3.08A.57.57,0,0,0,223.47,46.54Z" transform="translate(66.8 47.72)"/><path class="cls-13" d="M224.9,46.83a1.05,1.05,0,0,1-.3-.14l.13-.25a.85.85,0,0,0,.27.13,1.26,1.26,0,0,0,.33,0c.27,0,.4-.08.4-.23a.17.17,0,0,0,0-.13.3.3,0,0,0-.14-.06l-.23-.05a2,2,0,0,1-.34-.07.55.55,0,0,1-.22-.14.37.37,0,0,1-.1-.28.46.46,0,0,1,.2-.38.88.88,0,0,1,.51-.14,1.41,1.41,0,0,1,.35,0,.78.78,0,0,1,.28.11l-.14.24a.88.88,0,0,0-.49-.13.61.61,0,0,0-.3.06.19.19,0,0,0-.1.17.15.15,0,0,0,.06.13.32.32,0,0,0,.14.08l.24,0,.33.07a.46.46,0,0,1,.22.14.37.37,0,0,1,.09.27.42.42,0,0,1-.2.37.94.94,0,0,1-.54.13A1.33,1.33,0,0,1,224.9,46.83Z" transform="translate(66.8 47.72)"/><path class="cls-13" d="M228.34,45.16v1.71h-.29v-.26a.69.69,0,0,1-.25.2.72.72,0,0,1-.33.07.77.77,0,0,1-.54-.18.75.75,0,0,1-.2-.56v-1H227v1a.51.51,0,0,0,.12.37.42.42,0,0,0,.34.13.51.51,0,0,0,.39-.15A.61.61,0,0,0,228,46v-.88Z" transform="translate(66.8 47.72)"/><path class="cls-13" d="M231.9,45.33a.76.76,0,0,1,.18.55v1h-.31v-.95a.5.5,0,0,0-.11-.37.4.4,0,0,0-.33-.13.48.48,0,0,0-.37.15.57.57,0,0,0-.14.42v.88h-.31v-.95a.54.54,0,0,0-.11-.37.42.42,0,0,0-.33-.13.48.48,0,0,0-.37.15.57.57,0,0,0-.14.42v.88h-.31V45.16h.3v.25a.68.68,0,0,1,.24-.2,1,1,0,0,1,.35-.07.78.78,0,0,1,.35.08.69.69,0,0,1,.24.24.56.56,0,0,1,.27-.23.8.8,0,0,1,.39-.09A.69.69,0,0,1,231.9,45.33Z" transform="translate(66.8 47.72)"/><path class="cls-13" d="M235.77,44.48v2.39h-.29V46.6a.75.75,0,0,1-.26.21.81.81,0,0,1-.35.07,1,1,0,0,1-.45-.1.81.81,0,0,1-.3-.31A.87.87,0,0,1,234,46a.84.84,0,0,1,.11-.45.81.81,0,0,1,.3-.31,1,1,0,0,1,.45-.11,1,1,0,0,1,.34.07.64.64,0,0,1,.25.21v-.94Zm-.58,2.06a.51.51,0,0,0,.2-.21.66.66,0,0,0,.08-.32.62.62,0,0,0-.08-.31.51.51,0,0,0-.2-.21.61.61,0,0,0-.3-.08.6.6,0,0,0-.29.08.53.53,0,0,0-.21.21.62.62,0,0,0-.07.31.66.66,0,0,0,.07.32.53.53,0,0,0,.21.21.6.6,0,0,0,.29.08A.61.61,0,0,0,235.19,46.54Z" transform="translate(66.8 47.72)"/><path class="cls-13" d="M237,46.77a.77.77,0,0,1-.31-.31.84.84,0,0,1-.12-.45.89.89,0,0,1,.12-.45.84.84,0,0,1,.31-.31,1,1,0,0,1,.92,0,.84.84,0,0,1,.31.31.89.89,0,0,1,.12.45.84.84,0,0,1-.12.45.77.77,0,0,1-.31.31,1,1,0,0,1-.92,0Zm.76-.23a.58.58,0,0,0,.2-.21A.66.66,0,0,0,238,46a.62.62,0,0,0-.07-.31.58.58,0,0,0-.2-.21.61.61,0,0,0-.3-.08.55.55,0,0,0-.29.08.53.53,0,0,0-.21.21.62.62,0,0,0-.07.31.66.66,0,0,0,.07.32.53.53,0,0,0,.21.21.55.55,0,0,0,.29.08A.61.61,0,0,0,237.71,46.54Z" transform="translate(66.8 47.72)"/><path class="cls-13" d="M239.05,44.48h.31v2.39h-.31Z" transform="translate(66.8 47.72)"/><path class="cls-13" d="M240.54,46.77a.86.86,0,0,1-.32-.31.94.94,0,0,1-.11-.45,1,1,0,0,1,.11-.45,1,1,0,0,1,.32-.31,1,1,0,0,1,.46-.11.94.94,0,0,1,.45.11.87.87,0,0,1,.32.31.88.88,0,0,1,.11.45.84.84,0,0,1-.11.45.8.8,0,0,1-.32.31.84.84,0,0,1-.45.11A.9.9,0,0,1,240.54,46.77Zm.75-.23a.53.53,0,0,0,.21-.21.66.66,0,0,0,.07-.32.62.62,0,0,0-.07-.31.53.53,0,0,0-.21-.21.55.55,0,0,0-.29-.08.61.61,0,0,0-.3.08.58.58,0,0,0-.2.21.62.62,0,0,0-.08.31.66.66,0,0,0,.08.32.58.58,0,0,0,.2.21.61.61,0,0,0,.3.08A.55.55,0,0,0,241.29,46.54Z" transform="translate(66.8 47.72)"/><path class="cls-13" d="M243.17,45.22a.86.86,0,0,1,.38-.08v.3h-.07a.5.5,0,0,0-.39.15.58.58,0,0,0-.15.43v.85h-.31V45.16h.3v.29A.49.49,0,0,1,243.17,45.22Z" transform="translate(66.8 47.72)"/><path class="cls-13" d="M245.55,46.83a1.05,1.05,0,0,1-.3-.14l.13-.25a.85.85,0,0,0,.27.13,1.26,1.26,0,0,0,.33,0c.27,0,.4-.08.4-.23a.17.17,0,0,0,0-.13.35.35,0,0,0-.14-.06l-.23-.05a2,2,0,0,1-.34-.07.55.55,0,0,1-.22-.14.37.37,0,0,1-.1-.28.46.46,0,0,1,.2-.38.86.86,0,0,1,.51-.14,1.27,1.27,0,0,1,.34,0,.76.76,0,0,1,.29.11l-.14.24a.88.88,0,0,0-.49-.13.61.61,0,0,0-.3.06.19.19,0,0,0-.1.17.15.15,0,0,0,.06.13.27.27,0,0,0,.14.08l.24,0,.33.07a.46.46,0,0,1,.22.14.37.37,0,0,1,.09.27.44.44,0,0,1-.2.37.94.94,0,0,1-.54.13A1.33,1.33,0,0,1,245.55,46.83Z" transform="translate(66.8 47.72)"/><path class="cls-13" d="M247.4,44.77a.18.18,0,0,1-.06-.14.2.2,0,0,1,.06-.14.2.2,0,0,1,.15-.06.25.25,0,0,1,.15,0,.2.2,0,0,1,.06.14.21.21,0,0,1-.36.15Zm0,.39h.31v1.71h-.31Z" transform="translate(66.8 47.72)"/><path class="cls-13" d="M249.58,46.77a.67.67,0,0,1-.17.08.71.71,0,0,1-.21,0,.53.53,0,0,1-.39-.13.54.54,0,0,1-.15-.4v-.94h-.29v-.25h.29v-.37H249v.37h.49v.25H249v.93a.33.33,0,0,0,.07.21.26.26,0,0,0,.2.07.33.33,0,0,0,.24-.08Z" transform="translate(66.8 47.72)"/><path class="cls-13" d="M252.62,45.32a.65.65,0,0,1,.19.52v1h-.29v-.23a.44.44,0,0,1-.22.18.9.9,0,0,1-.34.06.74.74,0,0,1-.46-.13.48.48,0,0,1-.17-.37.44.44,0,0,1,.16-.36.83.83,0,0,1,.52-.14h.49v-.06a.37.37,0,0,0-.11-.3.5.5,0,0,0-.34-.11,1,1,0,0,0-.3.05.68.68,0,0,0-.24.13l-.13-.23a1,1,0,0,1,.31-.16,1.23,1.23,0,0,1,.39-.06A.73.73,0,0,1,252.62,45.32Zm-.3,1.25a.42.42,0,0,0,.18-.23v-.23H252c-.26,0-.4.08-.4.26a.26.26,0,0,0,.1.2.47.47,0,0,0,.28.08A.62.62,0,0,0,252.32,46.57Z" transform="translate(66.8 47.72)"/><path class="cls-13" d="M256.35,45.33a.72.72,0,0,1,.19.55v1h-.31v-.95a.54.54,0,0,0-.11-.37.42.42,0,0,0-.33-.13.47.47,0,0,0-.37.15.57.57,0,0,0-.14.42v.88H255v-.95a.54.54,0,0,0-.11-.37.42.42,0,0,0-.33-.13.47.47,0,0,0-.37.15A.53.53,0,0,0,254,46v.88h-.31V45.16H254v.25a.82.82,0,0,1,.25-.2.89.89,0,0,1,.34-.07.83.83,0,0,1,.36.08.69.69,0,0,1,.24.24.58.58,0,0,1,.26-.23.86.86,0,0,1,.39-.09A.66.66,0,0,1,256.35,45.33Z" transform="translate(66.8 47.72)"/><path class="cls-13" d="M259,46.12h-1.39a.54.54,0,0,0,.2.36.64.64,0,0,0,.42.14.61.61,0,0,0,.49-.21l.18.2a.72.72,0,0,1-.29.2,1,1,0,0,1-.39.07,1,1,0,0,1-.48-.11.74.74,0,0,1-.32-.31.84.84,0,0,1-.11-.45.88.88,0,0,1,.11-.45.81.81,0,0,1,.3-.31.94.94,0,0,1,.88,0,.81.81,0,0,1,.3.31,1,1,0,0,1,.1.46Zm-1.21-.58a.57.57,0,0,0-.18.35h1.1a.57.57,0,0,0-.18-.35.56.56,0,0,0-.74,0Z" transform="translate(66.8 47.72)"/><path class="cls-13" d="M260.69,46.77l-.16.08-.21,0a.48.48,0,0,1-.54-.53v-.94h-.29v-.25h.29v-.37h.31v.37h.49v.25h-.49v.93a.28.28,0,0,0,.07.21.24.24,0,0,0,.2.07.35.35,0,0,0,.24-.08Z" transform="translate(66.8 47.72)"/></g></g></g></svg>