<svg xmlns="http://www.w3.org/2000/svg" xmlns:xlink="http://www.w3.org/1999/xlink" viewBox="0 0 347.28 183.78"><defs><style>.cls-1{fill:#fff;}.cls-2{isolation:isolate;}.cls-3{clip-path:url(#clip-path);}.cls-4{fill:url(#linear-gradient);}.cls-5{fill:url(#linear-gradient-2);}.cls-6,.cls-7,.cls-8{mix-blend-mode:color-burn;}.cls-6{fill:url(#linear-gradient-3);}.cls-7{fill:url(#linear-gradient-4);}.cls-8{fill:url(#linear-gradient-5);}.cls-9{opacity:0.91;}.cls-10{fill:#f59b02;}.cls-11{fill:#0a1c2e;}.cls-12{fill:#787878;}</style><clipPath id="clip-path" transform="translate(0 47.72)"><rect class="cls-1" width="280.48" height="70.19"/></clipPath><linearGradient id="linear-gradient" x1="102.87" y1="105.33" x2="302.81" y2="76.22" gradientUnits="userSpaceOnUse"><stop offset="0.28" stop-color="#0c1e30"/><stop offset="1" stop-color="#000f1f"/></linearGradient><linearGradient id="linear-gradient-2" x1="127.23" y1="63.6" x2="86.54" y2="136.58" gradientUnits="userSpaceOnUse"><stop offset="0" stop-color="#fcd702"/><stop offset="0.18" stop-color="#f8b802"/><stop offset="0.57" stop-color="#f17901"/><stop offset="0.85" stop-color="#ec5101"/><stop offset="1" stop-color="#ea4201"/></linearGradient><linearGradient id="linear-gradient-3" x1="160.91" y1="96.19" x2="160.91" y2="35.15" gradientUnits="userSpaceOnUse"><stop offset="0" stop-color="#fff"/><stop offset="0.4" stop-color="#f9f9f9"/><stop offset="0.94" stop-color="#e8e8e8"/><stop offset="1" stop-color="#e6e6e6"/></linearGradient><linearGradient id="linear-gradient-4" x1="151.43" y1="114.26" x2="151.43" y2="51.52" xlink:href="#linear-gradient-3"/><linearGradient id="linear-gradient-5" x1="-1849.01" y1="-3375.65" x2="-1849.01" y2="-3438.38" gradientTransform="translate(-1696.93 -3290.73) rotate(180)" gradientUnits="userSpaceOnUse"><stop offset="0" stop-color="#fff"/><stop offset="0.25" stop-color="#f9f9f9"/><stop offset="0.58" stop-color="#e8e8e8"/><stop offset="0.96" stop-color="#cdcdcd"/><stop offset="1" stop-color="#c9c9c9"/></linearGradient></defs><g class="cls-2"><g id="Layer_2" data-name="Layer 2"><g id="Layer_1-2" data-name="Layer 1"><rect class="cls-1" y="47.72" width="280.48" height="70.19"/><g class="cls-3"><polygon class="cls-4" points="347.28 139.21 129.08 139.21 63.52 41.6 281.73 41.6 347.28 139.21"/><polygon class="cls-5" points="125.43 133.78 136.77 133.78 89.78 63.82 78.44 63.82 125.43 133.78"/><polygon class="cls-6" points="178.79 99.21 209.66 99.21 143.04 0 112.16 0 178.79 99.21"/><polygon class="cls-7" points="169.8 117.36 201.53 117.36 133.05 15.39 101.32 15.39 169.8 117.36"/><polygon class="cls-8" points="133.7 81.81 101.97 81.81 170.45 183.78 202.18 183.78 133.7 81.81"/></g><g class="cls-9"><path class="cls-10" d="M16.41,35.63V26.22h2.3a4.75,4.75,0,0,1,1.14.12,2.31,2.31,0,0,1,.86.38,1.67,1.67,0,0,1,.57.75,3,3,0,0,1,.19,1.15c0,1.16-.47,1.81-1.38,1.95a1.87,1.87,0,0,1,1.24.73,3.34,3.34,0,0,1-.25,3.63,2.6,2.6,0,0,1-2,.7Zm1.71-5.57h.54a1.31,1.31,0,0,0,1-.33A2.16,2.16,0,0,0,19.88,28a.64.64,0,0,0-.31-.37,1.36,1.36,0,0,0-.49-.17,6.42,6.42,0,0,0-.72,0h-.24Zm0,4.36h.63a1.3,1.3,0,0,0,1.06-.36,2.46,2.46,0,0,0,0-2.41,1.42,1.42,0,0,0-1.12-.38h-.54Z" transform="translate(0 47.72)"/><path class="cls-10" d="M23.41,35.63l1.91-9.41h1.79L29,35.63H27.42L27,33.44H25.41L25,35.63Zm2.18-3.3h1.26l-.63-3.87Z" transform="translate(0 47.72)"/><path class="cls-10" d="M31,35.63V26.22h1.18l2.31,5.33V26.22h1.42v9.41H34.76L32.44,30v5.6Z" transform="translate(0 47.72)"/><path class="cls-10" d="M38.34,35.63V26.22h1.18l2.3,5.33V26.22h1.42v9.41H42.12L39.79,30v5.6Z" transform="translate(0 47.72)"/><path class="cls-10" d="M45.7,35.63V26.22h3.93v1.21H47.41v2.7h1.76v1.21H47.41v3.1h2.25v1.19Z" transform="translate(0 47.72)"/><path class="cls-10" d="M51.7,35.63V26.22h2.15a5.92,5.92,0,0,1,1.28.12,2.61,2.61,0,0,1,.93.41,1.73,1.73,0,0,1,.59.78,3.25,3.25,0,0,1,.19,1.2,3.39,3.39,0,0,1-.26,1.45,1.64,1.64,0,0,1-.87.81L57,35.63H55.29l-1.12-4.3h-.76v4.3Zm1.71-5.39h.41a1.5,1.5,0,0,0,1.09-.33,1.54,1.54,0,0,0,.32-1.1A1.69,1.69,0,0,0,55,27.73a1.3,1.3,0,0,0-1-.33h-.52Z" transform="translate(0 47.72)"/></g><g class="cls-9"><path class="cls-11" d="M17.17,38.67H15.73V37.62h4.19v1.05H18.49V42.3H17.17Z" transform="translate(0 47.72)"/><path class="cls-11" d="M24.34,40.81H21.7a.74.74,0,0,0,.32.43,1,1,0,0,0,.57.15,1.18,1.18,0,0,0,.45-.07,1.37,1.37,0,0,0,.39-.24l.67.69a2,2,0,0,1-1.55.59,2.45,2.45,0,0,1-1.11-.24,1.81,1.81,0,0,1-.75-.67,1.85,1.85,0,0,1-.26-1,1.78,1.78,0,0,1,.26-1,1.74,1.74,0,0,1,.71-.66,2.13,2.13,0,0,1,1-.24,2.11,2.11,0,0,1,1,.22,1.69,1.69,0,0,1,.7.65,1.92,1.92,0,0,1,.26,1S24.35,40.61,24.34,40.81Zm-2.4-1.12a.68.68,0,0,0-.25.45h1.48a.77.77,0,0,0-.25-.45.75.75,0,0,0-.49-.17A.73.73,0,0,0,21.94,39.69Z" transform="translate(0 47.72)"/><path class="cls-11" d="M31.4,39a1.68,1.68,0,0,1,.4,1.21V42.3H30.53V40.44a.88.88,0,0,0-.15-.57.48.48,0,0,0-.4-.18.56.56,0,0,0-.46.21.86.86,0,0,0-.18.6v1.8H28.07V40.44q0-.75-.54-.75a.57.57,0,0,0-.47.21.86.86,0,0,0-.18.6v1.8H25.61V38.68h1.21v.38a1.29,1.29,0,0,1,.48-.33,1.54,1.54,0,0,1,.61-.11,1.51,1.51,0,0,1,.68.14,1.12,1.12,0,0,1,.49.43,1.24,1.24,0,0,1,.54-.42,1.67,1.67,0,0,1,.71-.15A1.43,1.43,0,0,1,31.4,39Z" transform="translate(0 47.72)"/><path class="cls-11" d="M36.44,38.85a1.6,1.6,0,0,1,.64.65,2.16,2.16,0,0,1,0,2,1.6,1.6,0,0,1-.64.65,1.83,1.83,0,0,1-.9.23,1.35,1.35,0,0,1-1-.38V43.6H33.27V38.68h1.21V39a1.3,1.3,0,0,1,1.06-.42A1.83,1.83,0,0,1,36.44,38.85Zm-.61,2.27a1.05,1.05,0,0,0,0-1.26.71.71,0,0,0-.55-.23.68.68,0,0,0-.55.23,1,1,0,0,0,0,1.26.72.72,0,0,0,.55.23A.75.75,0,0,0,35.83,41.12Z" transform="translate(0 47.72)"/><path class="cls-11" d="M38.58,37.34h1.27v5H38.58Z" transform="translate(0 47.72)"/><path class="cls-11" d="M44.26,39a1.59,1.59,0,0,1,.47,1.26v2H43.55v-.47a1.09,1.09,0,0,1-1.07.53,1.67,1.67,0,0,1-.73-.15,1,1,0,0,1-.46-.39,1,1,0,0,1-.16-.58.9.9,0,0,1,.4-.79,2.05,2.05,0,0,1,1.21-.29h.72c0-.38-.27-.57-.77-.57a1.93,1.93,0,0,0-.52.08,1.53,1.53,0,0,0-.46.23L41.28,39a2.5,2.5,0,0,1,.74-.31,3.12,3.12,0,0,1,.86-.11A2.08,2.08,0,0,1,44.26,39Zm-1,2.42a.58.58,0,0,0,.24-.31v-.32h-.54c-.37,0-.56.13-.56.37a.32.32,0,0,0,.13.27.57.57,0,0,0,.34.1A.71.71,0,0,0,43.22,41.45Z" transform="translate(0 47.72)"/><path class="cls-11" d="M48.7,42.15a1.27,1.27,0,0,1-.39.16,2.54,2.54,0,0,1-.49,0A1.57,1.57,0,0,1,46.73,42a1.33,1.33,0,0,1-.38-1V39.76h-.53v-.95h.53v-.94h1.27v.94h.83v.95h-.83V41a.45.45,0,0,0,.1.31.38.38,0,0,0,.28.11.65.65,0,0,0,.39-.12Z" transform="translate(0 47.72)"/><path class="cls-11" d="M53.43,40.81H50.8a.73.73,0,0,0,.31.43,1.06,1.06,0,0,0,.58.15,1.25,1.25,0,0,0,.45-.07,1.21,1.21,0,0,0,.38-.24l.67.69a2,2,0,0,1-1.54.59,2.49,2.49,0,0,1-1.12-.24,1.72,1.72,0,0,1-.74-.67,1.77,1.77,0,0,1-.27-1,1.87,1.87,0,0,1,.26-1,1.81,1.81,0,0,1,.71-.66,2.2,2.2,0,0,1,1-.24,2.14,2.14,0,0,1,1,.22,1.82,1.82,0,0,1,.7.65,1.92,1.92,0,0,1,.25,1S53.45,40.61,53.43,40.81ZM51,39.69a.77.77,0,0,0-.25.45h1.48a.72.72,0,0,0-.74-.62A.75.75,0,0,0,51,39.69Z" transform="translate(0 47.72)"/></g><path class="cls-12" d="M16,44.61h.32v2h1.22v.28H16Z" transform="translate(0 47.72)"/><path class="cls-12" d="M18.48,46.77a.77.77,0,0,1-.31-.31.84.84,0,0,1-.12-.45.89.89,0,0,1,.12-.45.84.84,0,0,1,.31-.31,1,1,0,0,1,.92,0,.84.84,0,0,1,.31.31.89.89,0,0,1,.12.45.84.84,0,0,1-.12.45.77.77,0,0,1-.31.31.94.94,0,0,1-.92,0Zm.75-.23a.53.53,0,0,0,.21-.21.68.68,0,0,0,.07-.32.64.64,0,0,0-.07-.31.53.53,0,0,0-.21-.21.57.57,0,0,0-.58,0,.53.53,0,0,0-.21.21.65.65,0,0,0-.08.31.69.69,0,0,0,.08.32.53.53,0,0,0,.21.21.64.64,0,0,0,.58,0Z" transform="translate(0 47.72)"/><path class="cls-12" d="M21.11,45.22a.89.89,0,0,1,.38-.08v.3h-.07a.5.5,0,0,0-.39.15.58.58,0,0,0-.15.43v.85h-.3V45.16h.29v.29A.53.53,0,0,1,21.11,45.22Z" transform="translate(0 47.72)"/><path class="cls-12" d="M23.71,46.12H22.33a.54.54,0,0,0,.2.36.64.64,0,0,0,.42.13.61.61,0,0,0,.49-.2l.17.2a.66.66,0,0,1-.29.2.92.92,0,0,1-.38.08,1,1,0,0,1-.48-.12.69.69,0,0,1-.32-.31A.84.84,0,0,1,22,46a1,1,0,0,1,.11-.45.92.92,0,0,1,.31-.31.9.9,0,0,1,.44-.11.86.86,0,0,1,.43.11.81.81,0,0,1,.3.31.9.9,0,0,1,.11.46A.38.38,0,0,1,23.71,46.12Zm-1.2-.58a.57.57,0,0,0-.18.35h1.09a.51.51,0,0,0-.17-.35.56.56,0,0,0-.74,0Z" transform="translate(0 47.72)"/><path class="cls-12" d="M27.12,45.33a.76.76,0,0,1,.18.55v1H27v-.95a.5.5,0,0,0-.12-.37.4.4,0,0,0-.33-.13.48.48,0,0,0-.37.15A.57.57,0,0,0,26,46v.88h-.31v-.95a.54.54,0,0,0-.11-.37.42.42,0,0,0-.33-.13.48.48,0,0,0-.37.15.57.57,0,0,0-.14.42v.88h-.31V45.16h.3v.25a.68.68,0,0,1,.24-.2,1,1,0,0,1,.35-.07.78.78,0,0,1,.35.08.69.69,0,0,1,.24.24.56.56,0,0,1,.27-.23.8.8,0,0,1,.39-.09A.73.73,0,0,1,27.12,45.33Z" transform="translate(0 47.72)"/><path class="cls-12" d="M29.39,44.77a.18.18,0,0,1-.06-.14.2.2,0,0,1,.06-.14.2.2,0,0,1,.15-.06.25.25,0,0,1,.15,0,.2.2,0,0,1,.06.15.2.2,0,0,1-.06.14.22.22,0,0,1-.3,0Zm0,.39h.31v1.71h-.31Z" transform="translate(0 47.72)"/><path class="cls-12" d="M32,45.25a.84.84,0,0,1,.31.31.94.94,0,0,1,.11.45,1,1,0,0,1-.11.46.84.84,0,0,1-.31.31.93.93,0,0,1-.44.11.77.77,0,0,1-.34-.08.63.63,0,0,1-.26-.2v.88H30.6V45.16h.3v.27a.66.66,0,0,1,.26-.21.82.82,0,0,1,.35-.08A.93.93,0,0,1,32,45.25Zm-.17,1.29a.58.58,0,0,0,.2-.21.69.69,0,0,0,.08-.32A.65.65,0,0,0,32,45.7a.58.58,0,0,0-.2-.21.61.61,0,0,0-.3-.08.6.6,0,0,0-.29.08.51.51,0,0,0-.2.21.65.65,0,0,0-.08.31.68.68,0,0,0,.07.32.53.53,0,0,0,.21.21.59.59,0,0,0,.29.07A.6.6,0,0,0,31.78,46.54Z" transform="translate(0 47.72)"/><path class="cls-12" d="M33.21,46.83a1.05,1.05,0,0,1-.3-.14l.12-.25a1,1,0,0,0,.28.13,1.19,1.19,0,0,0,.32,0c.27,0,.41-.08.41-.23a.15.15,0,0,0-.06-.13.26.26,0,0,0-.13-.06l-.24-.05-.33-.07a.68.68,0,0,1-.23-.14.42.42,0,0,1-.09-.29.44.44,0,0,1,.19-.37.89.89,0,0,1,.52-.14,1.86,1.86,0,0,1,.34,0,.81.81,0,0,1,.28.12l-.13.24a.88.88,0,0,0-.49-.13.61.61,0,0,0-.3.06.19.19,0,0,0-.1.17.17.17,0,0,0,0,.13.36.36,0,0,0,.15.08l.24,0L34,46a.64.64,0,0,1,.22.14.37.37,0,0,1,.09.27.44.44,0,0,1-.2.37.94.94,0,0,1-.54.14A1.34,1.34,0,0,1,33.21,46.83Z" transform="translate(0 47.72)"/><path class="cls-12" d="M36.65,45.16v1.71h-.3v-.26a.59.59,0,0,1-.24.2.77.77,0,0,1-.34.08.76.76,0,0,1-.53-.19.75.75,0,0,1-.2-.56v-1h.31v1a.51.51,0,0,0,.12.37.42.42,0,0,0,.34.13.53.53,0,0,0,.39-.15.61.61,0,0,0,.14-.42v-.88Z" transform="translate(0 47.72)"/><path class="cls-12" d="M40.2,45.33a.72.72,0,0,1,.19.55v1h-.31v-.95a.54.54,0,0,0-.11-.37.42.42,0,0,0-.33-.13.47.47,0,0,0-.37.15.53.53,0,0,0-.14.42v.88h-.31v-.95a.54.54,0,0,0-.11-.37.42.42,0,0,0-.33-.13.5.5,0,0,0-.38.15.57.57,0,0,0-.13.42v.88h-.31V45.16h.29v.25a.82.82,0,0,1,.25-.2.89.89,0,0,1,.34-.07.83.83,0,0,1,.36.08.69.69,0,0,1,.24.24.58.58,0,0,1,.26-.23.86.86,0,0,1,.39-.09A.69.69,0,0,1,40.2,45.33Z" transform="translate(0 47.72)"/><path class="cls-12" d="M44.08,44.48v2.39h-.3V46.6a.67.67,0,0,1-.26.21.77.77,0,0,1-.34.08.94.94,0,0,1-.45-.11.92.92,0,0,1-.31-.31,1,1,0,0,1-.11-.46.94.94,0,0,1,.11-.45.92.92,0,0,1,.31-.31.94.94,0,0,1,.45-.11.88.88,0,0,1,.33.07.67.67,0,0,1,.26.21v-.94Zm-.59,2.06a.53.53,0,0,0,.21-.21.68.68,0,0,0,.07-.32.64.64,0,0,0-.07-.31.53.53,0,0,0-.21-.21.57.57,0,0,0-.58,0,.53.53,0,0,0-.21.21.65.65,0,0,0-.08.31.69.69,0,0,0,.08.32.53.53,0,0,0,.21.21.64.64,0,0,0,.58,0Z" transform="translate(0 47.72)"/><path class="cls-12" d="M45.26,46.77a.86.86,0,0,1-.32-.31.94.94,0,0,1-.11-.45,1,1,0,0,1,.11-.45,1,1,0,0,1,.32-.31,1,1,0,0,1,.46-.11.94.94,0,0,1,.45.11.87.87,0,0,1,.32.31.88.88,0,0,1,.11.45.84.84,0,0,1-.11.45.8.8,0,0,1-.32.31.84.84,0,0,1-.45.12A.9.9,0,0,1,45.26,46.77Zm.75-.23a.53.53,0,0,0,.21-.21.68.68,0,0,0,.07-.32.64.64,0,0,0-.07-.31.53.53,0,0,0-.21-.21.55.55,0,0,0-.29-.08.61.61,0,0,0-.3.08.58.58,0,0,0-.2.21.65.65,0,0,0-.08.31.69.69,0,0,0,.08.32.58.58,0,0,0,.2.21.6.6,0,0,0,.3.07A.54.54,0,0,0,46,46.54Z" transform="translate(0 47.72)"/><path class="cls-12" d="M47.35,44.48h.31v2.39h-.31Z" transform="translate(0 47.72)"/><path class="cls-12" d="M48.85,46.77a.8.8,0,0,1-.32-.31.84.84,0,0,1-.11-.45.88.88,0,0,1,.11-.45.87.87,0,0,1,.32-.31,1,1,0,0,1,.46-.11,1,1,0,0,1,.45.11,1,1,0,0,1,.32.31,1,1,0,0,1,.11.45.94.94,0,0,1-.11.45.91.91,0,0,1-.77.43A.88.88,0,0,1,48.85,46.77Zm.75-.23a.51.51,0,0,0,.2-.21.69.69,0,0,0,.08-.32.65.65,0,0,0-.08-.31.51.51,0,0,0-.2-.21.6.6,0,0,0-.29-.08.61.61,0,0,0-.3.08.53.53,0,0,0-.21.21.64.64,0,0,0-.07.31.68.68,0,0,0,.07.32.53.53,0,0,0,.21.21.6.6,0,0,0,.3.07A.59.59,0,0,0,49.6,46.54Z" transform="translate(0 47.72)"/><path class="cls-12" d="M51.47,45.22a.93.93,0,0,1,.39-.08v.3h-.07a.54.54,0,0,0-.4.15.62.62,0,0,0-.14.43v.85h-.31V45.16h.3v.29A.51.51,0,0,1,51.47,45.22Z" transform="translate(0 47.72)"/><path class="cls-12" d="M53.86,46.83a1.29,1.29,0,0,1-.31-.14l.13-.25a1,1,0,0,0,.28.13,1.13,1.13,0,0,0,.32,0c.27,0,.41-.08.41-.23a.15.15,0,0,0-.06-.13.26.26,0,0,0-.13-.06l-.24-.05-.33-.07a.59.59,0,0,1-.23-.14.42.42,0,0,1-.09-.29.44.44,0,0,1,.19-.37.89.89,0,0,1,.52-.14,2,2,0,0,1,.34,0,.81.81,0,0,1,.28.12l-.13.24a.88.88,0,0,0-.49-.13.61.61,0,0,0-.3.06.19.19,0,0,0-.1.17.14.14,0,0,0,0,.13.36.36,0,0,0,.15.08l.24,0,.33.07a.64.64,0,0,1,.22.14.37.37,0,0,1,.09.27.44.44,0,0,1-.2.37.94.94,0,0,1-.54.14A1.34,1.34,0,0,1,53.86,46.83Z" transform="translate(0 47.72)"/><path class="cls-12" d="M55.71,44.77a.18.18,0,0,1-.06-.14.2.2,0,0,1,.06-.14.2.2,0,0,1,.15-.06.25.25,0,0,1,.15,0,.2.2,0,0,1,.06.15.2.2,0,0,1-.06.14.22.22,0,0,1-.3,0Zm0,.39H56v1.71H55.7Z" transform="translate(0 47.72)"/><path class="cls-12" d="M57.88,46.77a.4.4,0,0,1-.16.08.52.52,0,0,1-.21,0,.49.49,0,0,1-.54-.54v-.94h-.29v-.25H57v-.37h.31v.37h.49v.25h-.49v.93a.28.28,0,0,0,.07.21.24.24,0,0,0,.2.07.35.35,0,0,0,.24-.08Z" transform="translate(0 47.72)"/><path class="cls-12" d="M60.93,45.32a.65.65,0,0,1,.19.52v1h-.29v-.23a.49.49,0,0,1-.22.18.89.89,0,0,1-.34.07.72.72,0,0,1-.46-.14.45.45,0,0,1-.17-.37A.44.44,0,0,1,59.8,46a.81.81,0,0,1,.52-.14h.49v-.06a.38.38,0,0,0-.12-.3.48.48,0,0,0-.34-.11.93.93,0,0,0-.29.05.84.84,0,0,0-.25.13l-.13-.23A1.07,1.07,0,0,1,60,45.2a1.23,1.23,0,0,1,.39-.06A.75.75,0,0,1,60.93,45.32Zm-.31,1.25a.43.43,0,0,0,.19-.23v-.23h-.48c-.26,0-.39.08-.39.26a.22.22,0,0,0,.1.2.47.47,0,0,0,.28.08A.56.56,0,0,0,60.62,46.57Z" transform="translate(0 47.72)"/><path class="cls-12" d="M64.66,45.33a.72.72,0,0,1,.19.55v1h-.31v-.95a.5.5,0,0,0-.12-.37.38.38,0,0,0-.32-.13.5.5,0,0,0-.38.15.57.57,0,0,0-.13.42v.88h-.31v-.95a.5.5,0,0,0-.12-.37.38.38,0,0,0-.32-.13.49.49,0,0,0-.38.15.57.57,0,0,0-.14.42v.88H62V45.16h.3v.25a.63.63,0,0,1,.25-.2.89.89,0,0,1,.34-.07.78.78,0,0,1,.35.08.56.56,0,0,1,.24.24.67.67,0,0,1,.27-.23.86.86,0,0,1,.39-.09A.73.73,0,0,1,64.66,45.33Z" transform="translate(0 47.72)"/><path class="cls-12" d="M67.29,46.12H65.9a.54.54,0,0,0,.2.36.64.64,0,0,0,.42.13.61.61,0,0,0,.49-.2l.17.2a.66.66,0,0,1-.29.2.92.92,0,0,1-.38.08,1,1,0,0,1-.48-.12.69.69,0,0,1-.32-.31.84.84,0,0,1-.12-.45,1,1,0,0,1,.11-.45.84.84,0,0,1,.75-.42.86.86,0,0,1,.43.11.81.81,0,0,1,.3.31.9.9,0,0,1,.11.46Zm-1.21-.58a.57.57,0,0,0-.18.35H67a.57.57,0,0,0-.18-.35.56.56,0,0,0-.74,0Z" transform="translate(0 47.72)"/><path class="cls-12" d="M69,46.77a.38.38,0,0,1-.17.08.45.45,0,0,1-.2,0,.56.56,0,0,1-.4-.14.53.53,0,0,1-.14-.4v-.94H67.8v-.25h.29v-.37h.31v.37h.48v.25H68.4v.93a.33.33,0,0,0,.06.21.27.27,0,0,0,.2.07.32.32,0,0,0,.24-.08Z" transform="translate(0 47.72)"/></g></g></g></svg>