<svg xmlns="http://www.w3.org/2000/svg" viewBox="0 0 151.29 155.93"><defs><style>.cls-1{fill:#fcfcfc;}.cls-2{fill:#fefefe;}.cls-3{fill:#282727;}.cls-4{fill:#282627;}.cls-5{fill:#272626;}.cls-6{fill:#5f5f5f;}.cls-7{fill:#353535;}.cls-8{fill:#fbfbfb;}.cls-9{fill:#f8f8f8;}.cls-10{fill:#fdfdfd;}.cls-11{fill:#f6f6f6;}.cls-12{fill:#fafafa;}.cls-13{fill:#323232;}.cls-14{fill:#f4f4f4;}.cls-15{fill:#f9f9f9;}.cls-16{fill:#d2d2d2;}.cls-17{fill:#484848;}.cls-18{fill:#464646;}.cls-19{fill:#dcdcdc;}.cls-20{fill:#e8e8e8;}.cls-21{fill:#d5d5d5;}.cls-22{fill:#e1e0e0;}.cls-23{fill:#a0a0a0;}.cls-24{fill:#eae9ea;}.cls-25{fill:#3d3d3d;}.cls-26{fill:#9a9a9a;}.cls-27{fill:#a3a3a3;}.cls-28{fill:#959595;}.cls-29{fill:#b4b4b4;}.cls-30{fill:#b3b3b3;}.cls-31{fill:#b8b8b8;}.cls-32{fill:#bdbdbd;}.cls-33{fill:#b9b9b9;}.cls-34{fill:#9c9c9c;}.cls-35{fill:#979797;}.cls-36{fill:#838383;}.cls-37{fill:#9b9b9b;}.cls-38{fill:#bebebe;}.cls-39{fill:#f5f3f4;}.cls-40{fill:#f3f2f2;}.cls-41{fill:#aeaeae;}.cls-42{fill:#575455;}.cls-43{fill:#a7a6a6;}.cls-44{fill:#373737;}.cls-45{fill:#302e2f;}.cls-46{fill:#322f30;}.cls-47{fill:#989898;}.cls-48{fill:#686768;}.cls-49{fill:#4d4d4d;}.cls-50{fill:#919191;}.cls-51{fill:#8c8c8c;}.cls-52{fill:#999;}.cls-53{fill:#262424;}.cls-54{fill:#292829;}.cls-55{fill:#292828;}.cls-56{fill:#2c2c2c;}.cls-57{fill:#f0f0f0;}.cls-58{fill:#545152;}.cls-59{fill:#383636;}.cls-60{fill:#ababab;}.cls-61{fill:#a4a4a4;}.cls-62{fill:#adadad;}.cls-63{fill:#9f9f9f;}.cls-64{fill:#aaa;}.cls-65{fill:#7d7d7d;}.cls-66{fill:#a09f9f;}.cls-67{fill:gray;}.cls-68{fill:#acacac;}.cls-69{fill:#a1a1a1;}.cls-70{fill:#acabab;}.cls-71{fill:#b0b0b0;}.cls-72{fill:#868686;}.cls-73{fill:#b1b1b1;}.cls-74{fill:#a8a8a8;}.cls-75{fill:#757575;}.cls-76{fill:#9d9d9d;}.cls-77{fill:#bcbcbc;}.cls-78{fill:#b5b5b5;}.cls-79{fill:#818181;}.cls-80{fill:#8b8b8b;}.cls-81{fill:#767676;}.cls-82{fill:#929292;}</style></defs><g id="Layer_2" data-name="Layer 2"><g id="Layer_1-2" data-name="Layer 1"><path class="cls-1" d="M135.33,24.38a7.79,7.79,0,0,0,4-.44c1.13-.57,2.06.26,2.8.88,1.65,1.37,3.75,2.66,4.7,4.34,2.69,4.76,6.26,9.19,3.43,15.74-1.49,3.44-4.58,4.92-6.1,7.93A11.85,11.85,0,0,1,140.06,57c-1.49,1-3,2.13-2.88,4.34a1.29,1.29,0,0,1-.7.88c-3.93,1.85-6.77,4.84-9.68,8-1.64,1.79-3.07,4.22-5.58,5.26a1.84,1.84,0,0,0-1,.93,7.27,7.27,0,0,1-4,4.59c-.69.37-.63,1.33-.37,2,1.77,4.49,1,9.19.66,13.7-.3,4.18.35,8.25.42,12.36,0,2.12.17,4.29.22,6.43,0,1.16.44,1.88,1.55,2s2.32.08,2.33,1.74a3.52,3.52,0,0,1-1.93,3.55,5,5,0,0,0-2.41,7.26,3.41,3.41,0,0,1,.43,2.77c-1.13,2.74-.08,5.74-1.18,8.47a3.73,3.73,0,0,0,.39,3.19c1.4,2.8.6,5.88.08,8.63-.34,1.8-2.94,2.36-5,2.44-4.87.17-9.7-.84-14.58-.49-4.26.31-8.56,1-12.79.74-3.61-.25-7.41.4-10.9-1.81-1.78-1.13-4.37-.45-6.58-.2-.62.08-1.21.5-1.74-.16a.59.59,0,0,1,.25-.77,7.82,7.82,0,0,1,3.77-.46c11,0,21.9.78,32.86.54,3.45-.08,6.87-.27,10.31-.49,2-.13,2.73-1.08,2.47-2.93-.55-3.93.16-7.79.53-11.68.34-3.67-.71-7.32-.39-11,.21-12.22-.79-24.43-.48-36.66.1-3.74.89-7.46.39-11.23-.17-1.22.87-2,1.66-2.79q7.19-7.23,14.4-14.42c5.13-5.14,10-10.57,15.33-15.48,4-3.62,4.22-7,1.36-11.58a30.29,30.29,0,0,0-6.39-7.43c-3-2.47-5.54-2.43-8.3.25-1.84,1.79-3.86,3.36-5.69,5.14-2,1.87-3.93,3.83-5.82,5.83a28.42,28.42,0,0,1-2.23,2.16c-.44.35-.94.8-1.49.56s-.68-1-.58-1.67a38.17,38.17,0,0,0,.24-6.67,12.92,12.92,0,0,0-.35-1.64c.08-5.42-1-10.82-.28-16.28a16.64,16.64,0,0,0-.5-7.37A5.83,5.83,0,0,0,111,3.41a35,35,0,0,0-8.61-.24c-7,.32-14,.67-21.07.69-7.9,0-15.84-.3-23.74.49-3.26.33-6.52.57-9.77.91a35.21,35.21,0,0,0-7.26,1.5,5.35,5.35,0,0,0-2.33,1.61q-9.89,10-19.86,19.87a96.49,96.49,0,0,1-9.27,8,12.57,12.57,0,0,0-5.22,11c.11,4.72-.06,9.44,0,14.16C4.14,72.1,3.1,82.8,3.41,93.52c0,.93.15,2-.79,2.63-1.77-.26-2.1-1.55-2-3C.87,90,1.14,86.78.4,83.62a1.15,1.15,0,0,1,0-.71c2.34-5.35,0-10.82.37-16.24C1,63,1.89,59.26,1.35,55.49c-.18-1.18.73-1.87,1.33-2.7-.47-2.73.44-5.46,0-8.19a6.21,6.21,0,0,1,.83-7.53c2.08-2.13,3.78-4.82,7.17-5.15.31,0,.52-.35.73-.59,5.63-6.5,11.85-12.42,18-18.45,2-2,3.69-4.13,5.79-6,2.58-2.26,5.29-4,8.93-3.63,1.57.17,3.29-1.12,4.73.45l1.46,0c1.52-2.16,5.63-3.16,8.74-2,1.29.49,2.42.73,3.61-.11a1.73,1.73,0,0,1,1.16-.24C69.44,2,75,.64,80.57,1c6,.36,12-.14,18-.07a48.51,48.51,0,0,0,6.92-.41,23,23,0,0,1,8.06.73c3.38.76,6.46,4.92,6.43,8.64a46.85,46.85,0,0,1-.47,9.29c-.49,2.4.78,5,.56,7.57a.56.56,0,0,0,.11.45c1.41,1.1,3.29,1,4.79,1.94.73.47,1.48-.27,2-.86A25.08,25.08,0,0,1,130,25.56C131.59,24.4,133.26,23.38,135.33,24.38Z"/><path class="cls-2" d="M2.68,52.79C1.17,60.16,1.29,67.62,1.36,75.08a5.34,5.34,0,0,0,.6,2c.42.93.7,2.21.22,2.77-2.09,2.37-.9,5-.88,7.48a15.91,15.91,0,0,1-.38,5.45c-.51,1.5.71,2.31,1.6,3.22,1.32.77.94,2.08.94,3.21,0,8.45.09,16.89,0,25.33,0,4,.32,8,.44,11.92-.33,3.59.31,7.13.5,10.69a3.76,3.76,0,0,0,1,2.61c6,1,12.06,1.33,18.1,1.73,11.74.79,23.49.38,35.23.51,2,0,4.16-.07,6,1.23a3,3,0,0,1,0,.43,7.86,7.86,0,0,1-5.7,1.95l-13.86.23a49.74,49.74,0,0,1-11.65-.7c-5.05-1.11-10.2-.36-15.3-.5-2-.06-3.78-.39-5-2.17a1.63,1.63,0,0,0-2.52-.4c-2.12,1.91-4.59,1.07-6.88,1a2.58,2.58,0,0,1-2.38-3.28,10.43,10.43,0,0,0,0-4.45A3,3,0,0,1,1.7,143c1.53-2.4,1.93-4.77-.28-7.07a2.06,2.06,0,0,1-.52-1.3c0-4.31-1.1-8.6-.87-12.84.22-3.91.27-7.81.31-11.71.08-7.21,0-14.41,0-21.62,0-3.22-.57-6.38.35-9.67.72-2.55-.09-5.37-.33-8.07-.45-5.19.71-10.35.46-15.55A2.06,2.06,0,0,1,2.68,52.79Z"/><path class="cls-2" d="M135.33,24.38c-3.69-.48-5.82,2.16-8.16,4.23-1.21,1.06-2.2,1.53-3.52.35a1.34,1.34,0,0,0-.84-.43c-3.79.27-2.88-2.46-3.42-4.72-1.07-4.47.45-8.77.18-13.18-.31-5.19-3.14-8.42-8.26-9.34-3.78-.68-7.45,0-11.17.05-7,.13-14.08,0-21.13,0-3.78,0-7.59-.18-11.2,1.36a1.66,1.66,0,0,1-1.61-.23,3.15,3.15,0,0,0-4,.05,2.24,2.24,0,0,1-2.32.11c-2-1.36-4.21-.51-6.29-.84-1.69-.26-2,1.54-3.28,1.88.49-2.15,1.77-2.45,4-2.71,3-.36,5.77,1,8.83.09C65.48.38,68.26,1,70.86,1,77,.79,83.13,1.3,89.2.78,94.84.29,100.49.46,106.13.09c7.24-.48,12.08.87,14,8.07a22.71,22.71,0,0,1,0,10c-.55,2.86.72,5.53.34,8.32a.93.93,0,0,0,.28.63c1.41,1.48,5.47,1.5,6.9-.07a12.56,12.56,0,0,1,4.69-3.24C133.48,23.35,134.56,23.12,135.33,24.38Z"/><path class="cls-2" d="M48.87,3.74c-4.94-.35-9.66-.33-13.55,3.69-7.19,7.43-14.62,14.64-21.89,22C12,30.87,10.9,32.27,8.7,33c-2.51.86-4.49,3.31-5.88,5.62-1,1.61-.8,4-.09,6C1,43,.79,39.13,2.64,37.38,5,35.13,6.72,32,10.49,31.47c1.36-.21,1.75-2.11,2.83-3.09,5.51-5,10.25-10.8,15.8-15.8,2.46-2.2,4.48-4.92,7.08-7C38.13,4,40.15,2.67,42.8,2.8a7.65,7.65,0,0,0,3.32-.27C47.41,2,48.25,2.65,48.87,3.74Z"/><path class="cls-3" d="M126.24,32.64A65.63,65.63,0,0,1,133.4,26a4.85,4.85,0,0,1,6.42-.17,27.28,27.28,0,0,1,9.3,11.37c1.63,3.7,0,6.69-2.6,9.28C142,51,137.48,55.49,133,60c-5.69,5.74-11.33,11.52-17,17.26-.81.82-1.28,1.44-.75,2.79.42,1.1.07,2.53,0,3.8-1,10.46-.5,20.93,0,31.4.17,3.66,0,7.34.06,11-1,2.22-.52,4.55-.36,6.8a50.61,50.61,0,0,1-.18,7.39c0,.58,0,1.36-1,1.12a3.66,3.66,0,0,1-.62-2.5c0-6.39,0-12.78.05-19.16a36.24,36.24,0,0,0-.24-5.89,22.42,22.42,0,0,1-.22-3.17c0-.39-.11-.77-.12-1.17.1-1.3.16-2.6.13-3.91-.13-2.76.34-5.55-.38-8.28a36.71,36.71,0,0,1-.09-5.45c0-.39,0-.79,0-1.18.68-3,.38-6,1-8.92-1-.36-1.25.26-1.55.65a58.4,58.4,0,0,1-6.26,6.61c-6.64,6.35-12.71,13.26-19.17,19.8A16.37,16.37,0,0,1,79,113.45c-3.56,1.06-6.75,2.89-10.07,4.45-2.1,1-4.39,2.24-6.54.56s-1.07-4-.61-6c.84-3.82,1.41-7.7,2.38-11.49.42-1.67.64-3.53,2.53-4.37,1.53-.3,3,.42,4.5.36a3.07,3.07,0,0,1,.71.22A5.14,5.14,0,0,1,74,100c.69,1.27,2,.51,2.91.83a2.93,2.93,0,0,1,2.25,2.45c.32.59-.25,1.58.83,1.83a4.16,4.16,0,0,1,2.83.82,1.46,1.46,0,0,0,2.24,0c1-.93,2-1.94,3-2.94,1.15-1.41,2.59-2.53,3.8-3.88a46.69,46.69,0,0,0,3.78-4A6.55,6.55,0,0,1,97,93.75a3.56,3.56,0,0,0,1-1.1c2.06-2.54,4.56-4.64,6.77-7,4.09-3.69,7.4-8.13,11.42-11.89,1-.94,2-1.92,2.94-2.9.67-.64,1.32-1.3,2-2s1.17-1.37,1.84-2a13.43,13.43,0,0,0,1.54-1.38A17.37,17.37,0,0,0,126,64a9.09,9.09,0,0,1,1.54-1.56c4.82-4.66,9.48-9.48,14.13-14.3a8.44,8.44,0,0,0,1.25-1.06,22.83,22.83,0,0,0,3.48-3.93A6.52,6.52,0,0,0,146.7,37c-.53-1.33-1.26-1.57-2.16-.25A11.66,11.66,0,0,1,143,38.51c-.55.53-1.1,1.06-1.63,1.61-1,.87-1.77,1.86-2.65,2.79a4.72,4.72,0,0,0-1,1.1,16.57,16.57,0,0,1-2,2.26c-.5.48-1,1-1.49,1.47a19.72,19.72,0,0,0-1.41,1.48c-.41.55-.9,1-1.34,1.58A12.33,12.33,0,0,1,129.33,53a4.79,4.79,0,0,0-.89.85c-2.44,2.5-4.52,5.33-7.07,7.73-.38.36-.76.72-1.13,1.1a9.93,9.93,0,0,0-1.56,1.92c-1.26,1.16-2.29,2.54-3.56,3.7-.38.36-.76.72-1.13,1.1s-.74.75-1.1,1.14a17.12,17.12,0,0,0-3.26,4.77.92.92,0,0,1-.58.27c-2,.55-3,2.24-4.15,3.68A27.63,27.63,0,0,1,102,82.38c-2.74,2.57-5,5.53-7.7,8.18-.7.59-1.26,1.43-2.34,1.37a1.05,1.05,0,0,1-.71-1.1c1.51-3,4.15-5,6.24-7.44,1.84-2.19,4.19-3.92,5.72-6.39a45.66,45.66,0,0,0,5.93-6.11c1.56-1.85,3.43-3.44,4.9-5.38,2.69-2.86,5.6-5.5,8.05-8.58q8.66-9.24,17.37-18.42a52.1,52.1,0,0,0,3.41-4c1.12-1.45.83-2.39-.87-3.8-1.45-1.21-1.69.38-2.34.95-.94.82-1.54,2.1-3,2.15a1,1,0,0,1-.72-1.06c.21-1.38,1.38-2.07,2.2-3,1.2-1.37.95-2.13-.84-2.57a3.21,3.21,0,0,0-3.05.93c-1.59,1.43-3.34,2.68-4.81,4.25-.69.74-1.37,1.58-2.55,1.58C126.24,33.72,125.73,33.45,126.24,32.64Z"/><path class="cls-4" d="M3.25,136.87c-.74-12.74-.45-25.48-.64-38.22,0-.88-.06-1.75-.09-2.62.51-15.28.59-30.55.6-45.83,0-1.6,0-3.21.11-4.8a11.33,11.33,0,0,1,4.3-8.77c10.31-8,19.23-17.36,28.11-26.79C39,6.28,42.94,5.09,47.45,4.69c.08,1.24-1.27,1-1.74,1.72-1,.76-2.45.64-3.33,1.66-.58.38-1.35-.42-1.88.31-2.44,1.48-4.13,3.74-6,5.78-7.63,8.2-15.4,16.24-24.28,23.13a8.94,8.94,0,0,0-3.35,3.86,93.09,93.09,0,0,1,9.83-1.25,118.86,118.86,0,0,1,12.94-.14,3.66,3.66,0,0,1,1.59.5c1.27.7,2.75.67,4.07,1.2a.89.89,0,0,1,.39.62c-.14,1.07-1,1.11-1.76,1.22-1.22.12-2.36-.48-3.58-.39a54.72,54.72,0,0,0-11.93-.34,7.66,7.66,0,0,0-3.3.23,61.6,61.6,0,0,1-6.91.63A2.35,2.35,0,0,0,5.56,45.9c-.08,1-.21,2.07-.19,3.11.35,21.51-.91,43-.41,64.5.2,8.55.38,17.09.41,25.64a13.31,13.31,0,0,1-.18,3.09c-.14.55-.38,1.11-1.11,1s-.55-.68-.58-1.14C3.36,140.34,3.77,138.58,3.25,136.87Z"/><path class="cls-4" d="M113.8,141.67c.87-2.23.29-4.55.4-6.83s0-4.47,0-6.71c0-.77-.21-1.68,1-1.84a116.9,116.9,0,0,1,0,15.09,39.4,39.4,0,0,0-.08,9.08c.31,2-.3,2.72-2.52,2.88-15.18,1.06-30.35-.05-45.53-.13-.79,0-1.59,0-2.38,0a66.89,66.89,0,0,0-9.8-.39,382.08,382.08,0,0,1-49.25-2.15c-.39,0-.81.07-1.08-.32,0-.12.11-.24.17-.37a2.48,2.48,0,0,1,1.64-1.23,31.76,31.76,0,0,1,8.6.27,317,317,0,0,0,37.86,1.44c15.05-.19,30.07.47,45.09,1,4,.14,8-.47,12-.52,1.82,0,2.51-.9,2.56-2.68C112.58,146,112,143.61,113.8,141.67Z"/><path class="cls-5" d="M45.52,6.16c0-1.34,1.58-.6,1.93-1.47A124.46,124.46,0,0,1,64.14,3.26c13.74-.39,27.51.26,41.23-.9a27.67,27.67,0,0,1,2.88,0c6.19.15,8.83,2.67,8.78,8.85,0,5.91-.28,11.82.07,17.74.06.87.05,1.75.07,2.63a10.2,10.2,0,0,1,.15,3c0,1.2-.6,1.48-1.64,1.12-1.34-2.84-1.07-5.92-1.18-8.91-.17-4.63-.08-9.27,0-13.91a6.32,6.32,0,0,1,0-1.23,15.15,15.15,0,0,0,0-2.13c-.3-3.06-1.67-4.37-4.73-4.54-1.11-.06-2.22,0-3.33,0-.56,0-1.11,0-1.67,0-11.83.73-23.67.33-35.51.57-7,.15-13.92.22-20.81,1.31a11.82,11.82,0,0,1-1.33,0A2,2,0,0,1,45.52,6.16Z"/><path class="cls-6" d="M115.64,35.5c.92,0,1.49-.28,1.44-1.36a24.72,24.72,0,0,1,.09-2.58c.76,3.08.22,6.16,0,9.45,1.68-.73,2.4-2.35,3.73-3.22a2,2,0,0,1,.77,1.53,8,8,0,0,1-4.59,4.57,3.59,3.59,0,0,1-1.76-.62,2.06,2.06,0,0,1-.82-2.09C114.9,39.29,114.62,37.26,115.64,35.5Z"/><path class="cls-7" d="M121.5,39.37c-.71-.33-.55-1-.61-1.58a42.69,42.69,0,0,1,5.35-5.15.9.9,0,0,0,1,.94A10.47,10.47,0,0,1,121.5,39.37Z"/><path class="cls-4" d="M3.25,136.87c1.18,1.84-.11,4,.89,6.21,1-1.38.31-2.75.62-4a.69.69,0,0,1,.7.34A7,7,0,0,1,5.53,144a4.41,4.41,0,0,0-.5,3.59,3.24,3.24,0,0,1-.28,2.7l-.14.15C3.32,146,3.23,141.42,3.25,136.87Z"/><path class="cls-2" d="M5.14,144.07l0-4.66a2.14,2.14,0,0,1-.18-.93c.22-16.63-1.09-33.25-.39-49.86.54-12.72.19-25.41.39-38.11.46-1.57,1.39-.92,2.18-.39s1.77,1.13,2.51.07c2-2.82,4.34-1.58,6.63-.77.91.31,1.62.91,2.63.14,2-1.5,2.95.73,4.33,1.37a1.53,1.53,0,0,1,.94,2,4.77,4.77,0,0,1-3.1,2.79c-.71.21-2.16-.38-1.9,1,.22,1.2,1.55,1.2,2.61,1,5.06-1.16,10.12-.49,15.21-.3s9.92,1.14,15,.3a34.49,34.49,0,0,1,8.13-.1,47.62,47.62,0,0,0,11.44-.26,5.16,5.16,0,0,1,2.13.25c.62.15,1.36.51,1.87.25,4.09-2,8.1.32,12.14.15,2.64-.11,5.27-.07,7.9-.44.85-.12,1.89-.16,2.4.7s-.13,1.83-.72,2.58A49.62,49.62,0,0,1,90.54,68c-2.14,1.83-3.94,4-5.91,6-1.27,1.29-2.46,1.65-3.78,0s-3.2-1.45-4.9-1.12c-7.36,1.41-14.82.91-22.23,1.24-9.27.41-18.55-.16-27.83.09-1.76.05-3.51.23-5.25.44-.6.08-1.47,0-1.56.78s.7,1.48,1.45,1.67a39.51,39.51,0,0,0,4.76.41c.23,0,.49-.08.71,0,4.48,1,8.92,1.58,13.24-.66a1.86,1.86,0,0,1,1.64.18c1.58.93,3.1,1.7,4.69,0a1.11,1.11,0,0,1,.94-.1c6.39,1.42,12.93.84,19.4,1.3a12.25,12.25,0,0,0,7.69-1.88,2.35,2.35,0,0,1,.7-.37,8.2,8.2,0,0,1,5.15.45c1.63.83,1.8,1.69.43,2.87a8.29,8.29,0,0,0-2,2.64c-1.28,2.48-3.57,4-5.51,5.91a25.1,25.1,0,0,0-4.85,6.18c-1.42,2.64-2.66,3.17-5.63,2.68a4.89,4.89,0,0,0-1.9-.09c-4,1-8.1.46-12.15.73-7.15,0-14.28.05-21.42,0-1.67-.15-3.35,0-5-.17-.38,0-.86-.09-.92.47s.34.66.69.86a5.06,5.06,0,0,0,2.11.33c7.81.81,15.65.32,23.47.52,4.62.11,9.17,1.29,13.83,1a2.24,2.24,0,0,1,2.34,2,9.7,9.7,0,0,1-.39,6.34c-1.23,2.52-1,5.14-1.35,7.7-.26,2,.76,2.93,2.77,3a16.3,16.3,0,0,0,8.89-2,83.24,83.24,0,0,1,10.69-4.58,3.06,3.06,0,0,0,2-1.91,7.48,7.48,0,0,1,1.93-2.72c2.32-2.24,5.43-3.65,7-6.74a2.41,2.41,0,0,1,1.59-1A4.1,4.1,0,0,0,99.19,97c.19-1,.75-2,2-1.56s2,1.94,1.22,2.91c-2.19,2.65-.1,5.77-1.29,8.49-.39.89.47,1.28,1.27,1.66,1.47.69,1.56,1.65.34,2.74a19.52,19.52,0,0,0-2.77,2.28c-1.15,1.47-1,2.29.76,3s1.52,1.59.51,2.71c-.37.42-.87.71-1.24,1.13-1,1.13-1.38,2.46-.34,3.68,1.28,1.5.94,2.63-.29,3.94-1.9,2-1.86,2.09.42,3.62a1.43,1.43,0,0,1,.51,2.05,11.11,11.11,0,0,1-1.92,2.7,25.15,25.15,0,0,0,5.19-4.26c2.39-2.44,5.09-4.54,7.15-6.73-1.2.59-1.87,2.49-3.64,3a4.87,4.87,0,0,1-2.67-3,32.92,32.92,0,0,1,7.16-6.93c.88.08,1.45.75,2.16,1.15q.06,9.74.11,19.48c0,.87,0,1.74,0,2.61-.4,2.45-.9,4.92-.46,7.39.33,1.88-.19,2.44-2.13,2.58a256.51,256.51,0,0,1-27.59.16q-19.68-.68-39.36-.61a279.86,279.86,0,0,1-32.1-1.63c-2.13-.24-4.29-.26-6.43-.38A5.94,5.94,0,0,1,5.14,144.07Z"/><path class="cls-1" d="M113.67,119.58c-1,.62-1.36-.27-1.83-.85.32,0-.49-.11-.18-.18,0,0,0-.13,0-.21-.72,0-1,.67-1.38,1.07-3,3-6.22,5.69-9.27,8.61a7.07,7.07,0,0,0-1.19,1.15,8.63,8.63,0,0,1,1.29-1.18c1.34-.6,1.62-2.65,3.49-2.5l2.38,2.72c-.3,2-2.19,2.56-3.35,3.74-1.93,2-3.76,4.09-6.19,5.49a1.12,1.12,0,0,1,.51-1.78c1-.5,1.13-1.51,1.71-2.25s.48-1.07-.54-1.41c-2.81-.93-2.93-1.79-.85-4,1-1.09,2.91-1.84.52-3.79-1.1-.9-1-3.15.62-4.45.5-.4,1.06-.72,1.52-1.16.72-.7,1-1.18-.42-1.5-2.52-.57-2.91-2.19-1.16-4.11a9.56,9.56,0,0,1,3.06-2.25,1,1,0,0,0,.61-1.18c-.1-.47-.54-.47-.92-.59-1.85-.58-2.48-1.9-1.52-3.75a2.29,2.29,0,0,0,0-2.59,2.62,2.62,0,0,1,.6-3.47c.77-.68,1.3-1.42.61-2.49-.3-.47-.49-1.08-1.2-1a1,1,0,0,0-.79,1.07A4.18,4.18,0,0,1,96,101.11a1.71,1.71,0,0,0-1.18.73c-1.27,3.13-4.25,4.48-6.57,6.52-1.14,1-2.26,2.06-2.38,3.74-.06.74-.64,1-1.27,1.23a62.19,62.19,0,0,1-7,2.87c-4.4,1.38-8.14,5-13.38,3.94-2.74-.55-4.36-1.5-3.66-4.23s-.33-5.4,1.71-8c.91-1.16.6-4.09,0-6.17-.25-.84-1-.9-1.77-.91-8.84-.1-17.64-1.59-26.51-1-3.92.28-7.79-.56-11.7-.5a3.12,3.12,0,0,1-2.18-.84,1.4,1.4,0,0,1-.28-1.76c.28-.62.78-.56,1.41-.49,1.58.18,3.18.2,4.77.28-.2,1-1,.79-1.47.88,11.68.84,23.65-.51,35.55,1-2.82-.94-5.74-.69-8.64-.79-1.12,0-2.47.36-3.15-1.07,4-.3,8.13.38,12.1-.9a3,3,0,0,1,1.83.34c2.48,1.11,3.94-.49,4.76-2.25,1.68-3.58,4.44-6.08,7.32-8.57A9.45,9.45,0,0,0,77.7,80.5c.23-.94.91-1.23,1.6-1.61.46-.27,1.15-.41,1.06-1.11s-.78-.72-1.25-1c-1.56-.88-3.3-.25-4.93-.56.49-1.36,1.92-.8,3.12-1.5-18.15,1.56-36,.58-52.88.9,7.5-.46,16,.8,24.44.37,7.19-.36,14.37-.39,21.56-.41,1.18,0,2.43-.2,3.44.67-.23,1.24-.69,2.15-2.24,1.64a1.48,1.48,0,0,0-.93,0c-4.25,1.66-8.55.51-12.86.43-2.66-.05-5.41-.84-8.07.27a1.71,1.71,0,0,1-1.37-.21c-1.45-1-2.67-2-3.91.4-.47.91-1.7.12-2.3-.43C40.57,76.94,39,77,37.19,78a8.71,8.71,0,0,1-8,.47c-2.39-1-5-.44-7.43-.46A4,4,0,0,1,18,75.63c-.56-1,.4-1.68,1.58-1.71,4.77-.13,9.5-.78,14.33-.57a188.18,188.18,0,0,0,22.78,0c6.39-.5,12.86.44,19.21-1.2,2.12-.55,4.72-.71,6,2,.42.88,1,.64,1.49.08,4.39-4.94,9.69-9,13.73-14.27.32-.42.77-.94.47-1.51s-1-.43-1.53-.35a45.2,45.2,0,0,1-10.26.42c-3.4-.17-6.78-1.88-10.18,0-5.57-1.24-11.18.25-16.81-.33-4.91-.51-10,.17-14.93.33a5.89,5.89,0,0,1-3.49-.62,1.74,1.74,0,0,0-.89-.29c-5,.19-10-.21-15-.06a4.12,4.12,0,0,0-2,.59,3.22,3.22,0,0,1-3.61-.24c-.74-.49-1.39-1.23-.94-2.2.37-.81,1.06-1,2-.67,2.05.69,2.52-1.5,3.79-2.26.07,0,.06-.3,0-.46-.14-1.08-3.91-2.79-4.77-2.12-.69.55-1.57,1-2.14.38-1.18-1.31-2.78-1-4.17-1.47a1.53,1.53,0,0,0-2,.69c-1.83,2.63-1.88,2.61-4.18.48a1.76,1.76,0,0,0-1.32-.39C5,48.3,7.33,43.55,8.63,43.1c.77-.27,1.75-.54,2.16.66-.39,1.76-2,2.78-2.38,4.17,1.06-1.48,1.9-3.55,3.78-4.79a3,3,0,0,1,4.14.14c.17,1.51-.93,2.48-1.45,3.46,1.38-1.13,1.25-3.59,3.22-4.58a38.34,38.34,0,0,1,12.51.12c1.25.28,1.56.8.71,2-1.1,1.52-2.49,2.8-3.77,4.63,1.34-1.83,2.8-3.1,3.84-4.71A2.51,2.51,0,0,1,34,42.94a2.81,2.81,0,0,1,1.91.57c-.26,1.84-2,2.65-2.85,4.13a19.53,19.53,0,0,1-1.56,2c1.34-1.38,2.42-3.24,3.94-4.76.62-.61,1.18-1.33,2.22-1a8.53,8.53,0,0,1,1.29.44,2,2,0,0,1,1,.9c.28,1.2-.79,1.62-1.37,2.3-1,1.24-2.53,2.12-3,3.41,1.48-1.82,2.89-4.15,5.59-5.16,1.13.29,1.82,0,1.77-1.3,0-.7,0-1.39,0-2.09a24.55,24.55,0,0,1,.16-4.37c2.67-3,5.82-5.51,7.93-7.68-1.31,1.27-3.47,3.09-5.43,5.13-.52.54-1.06,1.41-1.95,1s-.6-1.21-.63-1.92a2.53,2.53,0,0,1,.57-1.58,47.09,47.09,0,0,0,5.45-5.58,5.11,5.11,0,0,1,.45-.48A11,11,0,0,1,51,25.37a2.36,2.36,0,0,0,.36-.26c-.26-.07-.41.25-.68.19a2.11,2.11,0,0,1-2-1.62c0-1.14,1.12-1.52,1.59-2.26a62.27,62.27,0,0,0-4.41,5.08c-.48.5-1,1.2-1.75.71-.58-.36-.49-1.09-.54-1.72-.09-1.25.83-1.76,1.65-2.34,1.35-2.3,3.54-3.82,5.63-6.2-2.22,2.4-4.36,4.1-5.9,6.37-1.46-.33-2-2.34-.87-3.66.29-.35.8-.47,1.12-.82,1.12-1.5,2.5-2.77,3.86-4.43-1.4,1.63-2.74,2.94-3.9,4.42-.45.4-.9.76-1.55.44a1.73,1.73,0,0,1-.45-.93,3.85,3.85,0,0,1,1.69-4.08c1.85-1.33,3.28-3.22,4.95-4.82-1.52,1.48-3,3-4.51,4.5-1.17,1.25-2,1.26-2.41-.53a1.93,1.93,0,0,1,.06-1A53.33,53.33,0,0,1,48,6.25c9-1.68,18.12-1.41,27.21-1.43,10,0,19.92-.23,29.88-.53-.87,2.52-3.45,3.54-4.52,5.24,1.87-1.41,3.3-4.07,6-5.28.71,0,1.42-.07,2.13,0,5.16.1,6.87,2,6.55,7.27-1.09.65-1.38-.29-1.77-.93s-.51-1.49-1.19-2.12c-.36,4.12.23,4.88,3,4-.33,7.7,0,15.39.43,23.08.17,2.55-1,5.11,0,7.66-1.08,2.23-3.25,3.57-4.54,5.64-9.3,9.32-18.13,19.1-27,28.82C80.31,81.74,76.71,86,72.83,90c-2.19,2.2-3.5,5.18-6.18,6.94-1.79,1.48-1.85,3.72-2.34,5.69-.92,3.8-1.6,7.66-2.32,11.5-.26,1.41-.61,3,.68,4s2.8.58,4.07-.07A158.47,158.47,0,0,1,83.46,111c1.27-.48,1-1.66,1.75-2.36,9.15-8.48,17.3-17.94,26.17-26.7a16.37,16.37,0,0,0,1.55-2.11l.9.44c-.35,3.48-.69,7-1,10.44-2.68,3.27-6.56,5.31-8.67,8.43a49.09,49.09,0,0,1,7.25-6.77c.4-.33.67-1,1.37-.68,0,1.91,0,3.82,0,5.72-1.22,1.92-3.1,3.16-4.79,4.6a71.67,71.67,0,0,0-5.41,4.84c2.8-2.77,6.48-5.6,10.39-9-.18,2.86,1.21,5.48-1.88,7-3.36,3-6.39,6.38-9.65,9.49,3.33-3.11,6.31-6.57,9.79-9.53,2.11-1.67,1.69.35,2,1.36,0,1.27.3,2.57-.31,3.79-2.72,2.59-5.49,5.12-8,7.91a34.13,34.13,0,0,1-3.79,3.52,36.49,36.49,0,0,0,3.84-3.51c1.45-1.35,2.68-2.91,4.07-4.32a3.74,3.74,0,0,1,2.35-1.49c1.14,0,1.38,1.12,2.05,1.71A16,16,0,0,1,113.67,119.58Z"/><path class="cls-1" d="M121.5,39.37l5.71-5.79c2.07-1.86,4.11-3.75,6.22-5.56a8,8,0,0,1,2.39-1.53,3.5,3.5,0,0,1,3.85,1.28c1.06,1.25-.74,1.59-1.21,2.34a22.42,22.42,0,0,1-2.12,2.57,17,17,0,0,1-3,4c-8.89,9.2-17.46,18.7-26.22,28C102.18,70,97.35,75.29,92.36,80.47c-1.34,1.38-2.43,3-3.79,4.33-3.71,3.5-7,7.36-10.38,11.2-.88,1-1.71,2.12-3.14,2.44-1.22.24-2.16-.44-3.14-1h-.45a1.14,1.14,0,0,0-.87-.25c-.88,0-1.88,0-2.19-1s.53-1.39,1-2a37.44,37.44,0,0,0,3.11-3.55C85.29,76.79,98,62.85,111,49.19c2.16-1.69,3.52-4.31,6.18-5.44Z"/><path class="cls-8" d="M136.88,33.61c1.15-1.2,2.34-2.37,3.46-3.61.77-.86,1.27-.76,2.06.07,2.64,2.77,2.77,2.89.16,5.75-5.68,6.23-11.27,12.54-17.35,18.41-.92.89-1.53,2.16-2.64,2.94-.54.22-.74.79-1.2,1.11-1.29.89-2.19.64-2.72-.85a8.44,8.44,0,0,1-.19-3.74c.44-1.71,1.76-2.83,2.83-4.09,2.38-2.8,5.24-5.15,7.5-8.07.6-.78,1.31-1.69,2.58-1.38.79,1.2.07,2.76.88,4-.66-1.56-.44-3.25-.67-4.88C133.11,37.13,134.47,34.87,136.88,33.61Z"/><path class="cls-9" d="M138.28,42.74l2.8-3c.23,0,.6,0,.61.21.14,2.83,1.12,5.63.39,8.5L127.71,62.91c-1.84-.49-.57-2-1-2.9a11.38,11.38,0,0,1-.44,4.35l-1.41,1.45c-1.19.49-1.39-.32-1.48-1.18a18.81,18.81,0,0,1,.27-3.1c-.78,1.6.21,3.69-.31,5.65-.64.55-.74,1.72-1.92,1.65a1.61,1.61,0,0,1-.46-.66,30.83,30.83,0,0,1-.06-6.79l7.34-8c1.26.29.51,1.28.59,1.91.13,1.12,0,2.26,0,3.39.07-2-.22-3.94.22-5.9l2-2.35c1.63,2,.54,4.34.85,6,.76-2-1-4.92.52-7.48l1.42-1.46c2.11.74.23,2.55,1,3.34.2-1.39-.44-3.16.4-4.82l2.06-2.24c1.23.4.43,1.41.63,2.12s.18,1.8.48,2.64C138.06,46.59,137.64,44.69,138.28,42.74Z"/><path class="cls-10" d="M68.21,98c2.52,0,3.63,1.05,3.78,3.7.08,1.55.21,2.59,1.93,1a2.06,2.06,0,0,1,2.67.06,2.25,2.25,0,0,1,.85,2.76c-.55,1.78,0,2.25,1.69,1.6a2.84,2.84,0,0,1,2.12.08,2.11,2.11,0,0,1,1.34,1.59c.13.88-.72,1-1.24,1.2-2.94,1.23-5.93,2.37-8.86,3.62-.92.39-1.06-.19-1.41-.74a6.85,6.85,0,0,0-5.19-3.45c-.74-.07-1.24-.21-1.1-1.11.48-3.07.93-6.15,1.45-9.22C66.44,97.88,67.5,98.1,68.21,98Z"/><path class="cls-11" d="M113.67,69.06l1-.93c1.35-.1,1.47,1,1.67,1.86.31,1.3.76,2.6.31,4a161.46,161.46,0,0,1-11.58,12,26,26,0,0,0-3.12,2.9c-.88.85-1.5.63-2-.36-1.07-2-.64-3.74,1.09-4.27.56.23.65.77.82,1.56-.07-1.16-.79-1.89-.51-2.82a4.47,4.47,0,0,1,.39-.93l6.38-7c.47-.52.88-.85.93.24a6.45,6.45,0,0,1,.66,3.32,17.4,17.4,0,0,0-.33-3.23c-.3-2.69,2.19-3.59,3.41-5.3,1.41,1.23.71,3.07,1.24,4.13.14.72.62.35.31.44-.08,0-.14,0-.15-.08C113.91,72.72,113.08,71,113.67,69.06Z"/><path class="cls-12" d="M103.65,77.27c-2.32,3.34-5.4,6-8.05,9-1.3,1.49-2.64,3-4,4.43-1.48,2.34-1.77,2.43-3,.92a30.94,30.94,0,0,1-.82-5.5,2.22,2.22,0,0,1,.65-1.31c2.47-2.47,4.66-5.2,7.09-7.72.54-.55.94-1.4,1.93-.73.35,1.87,0,3.77.17,5.65,0,.32.54-.06.23,0-.58-2.08,0-4.22-.36-6.3a3,3,0,0,1,1.39-1.85c3.38-2.44,4-2.17,4.79,1.92A2.5,2.5,0,0,1,103.65,77.27Z"/><path class="cls-13" d="M96.94,76.35A118.63,118.63,0,0,1,88.82,85c-.55.09-.78-.12-.64-.69Q103.32,68,118.45,51.66c5.93-6.37,11.93-12.66,17.89-19a1,1,0,0,0,.54.93l-4.8,5.31c-.51.31-.31,1.2-1.07,1.32-4.11,4.22-8.2,8.46-12,12.94-1.09,2.32-3.26,3.67-4.87,5.53a6.47,6.47,0,0,0-1,1.22c-1.12,1.59-2.7,2.76-3.92,4.26a110.77,110.77,0,0,1-10,10.16L98,75.43C97.58,75.71,97.37,76.14,96.94,76.35Z"/><path class="cls-9" d="M78.74,103.59a2.47,2.47,0,0,0-1.95-2.3c-.72-.66-2.2.43-2.45-.76s1-1.72,1.73-2.37c2-1.7,3.33-4,5.29-5.76.57-.51,1-1.28,1.89-1.31,1.65,1.75,1.24,4.13,1.92,6.18-.86,3-3.39,4.74-5.41,6.84C79.32,104.56,78.91,104.12,78.74,103.59Z"/><path class="cls-11" d="M99.17,74.35c3-3.72,6.43-7.06,9.78-10.47a2.65,2.65,0,0,1,.46,2.47,7.38,7.38,0,0,0,0,4.34l0,.34a23.63,23.63,0,0,1-5.72,6.24,21.76,21.76,0,0,1-.83-2.21c-.71-2.71-.69-2.71-3-1A2.33,2.33,0,0,1,99.17,74.35Z"/><path class="cls-14" d="M113.74,58.55,119,53.18c0,.55,0,1.1.05,1.64,0,4.06.17,4.15,3.53,2.35-2.64,3-5.08,6.22-8.33,8.64a2.15,2.15,0,0,1-1-1.36C113,62.45,112.77,60.45,113.74,58.55Z"/><path class="cls-15" d="M142.45,38.3l3.18-3.84c3.29,4,3.24,7.25-.15,10.77-.77.8-1.62,1.52-2.44,2.27-1.42-.4-.81-1.64-1-2.53A10.06,10.06,0,0,1,142.45,38.3Z"/><path class="cls-14" d="M101.14,84.5c-.68,0-1.48.11-1.26,1,.3,1.13.06,2.45.88,3.39.41.46.81-.22,1.16-.48,1.06-.81,1.63-2.23,3.14-2.46L98.23,93c-2-.44-.78-2.52-1.69-3.36.14,1.4,1.26,2.72.81,4.36l-1.22,1.11c-1,.81-1.59.3-2-.64-.58-1.42-1-2.86-.17-4.34A107.83,107.83,0,0,1,101.7,82l0,1C101.23,83.38,101.79,84.18,101.14,84.5Z"/><path class="cls-9" d="M113.89,64.84l.35,1A16.31,16.31,0,0,1,109.37,71l.06,0c-.49-1.36-1-2.72-.54-4.22l.06-3,3.87-4.31c1,.07.57.88.66,1.4C113.7,62.25,113.07,63.62,113.89,64.84Z"/><path class="cls-11" d="M92.11,99.36l-3.77,3.9c-1.11.57-1.44-.31-1.72-1a10.25,10.25,0,0,1-.7-3.51c1.11-2.3,2.39-4.44,5-5.26A7.16,7.16,0,0,1,92.11,99.36Z"/><path class="cls-16" d="M116.64,74a13.24,13.24,0,0,1-1-4.1c-.15-.73-.19-1.41-1-1.73,1.2-1.37,2.15-3,3.81-3.93,1.36,2.14,1.31,4.49,1.08,6.87A8.39,8.39,0,0,1,116.64,74Z"/><path class="cls-17" d="M83.07,91.35l-8.69,9.19c.76.57,1.8,0,2.41.75-1.15-.25-2.7.89-3.38-1,.54-.88.87-1.94,2-2.31q5.46-5.94,10.92-11.87c.58-.63,1.23-1.2,1.85-1.8l.64.69-.57.9c-.32.43-.44,1-.79,1.39a15.31,15.31,0,0,1-3.27,3.59C83.87,91.18,83.32,90.9,83.07,91.35Z"/><path class="cls-18" d="M90.73,93.66l-4.42,4.68c-.47,1.41-1.66,2.25-2.6,3.29-1.36,1.3-2.62,2.68-4,4-1.41-.14-.72-1.3-1-2,.35.17.65.35,1-.06,1.72-2,3.47-4,5.2-6.06a1.45,1.45,0,0,1,.39-.91c1.37-1.4,2.87-2.72,3.25-4.79a.36.36,0,0,1,.56,0c.18.28-.07,1.22.76.55.6-.5,1.15-1.06,1.73-1.59a1.06,1.06,0,0,0,.51,1C92.49,93,91.62,93.31,90.73,93.66Z"/><path class="cls-19" d="M90.73,93.66l1.42-1.94L94,90.16c.22,1.33.4,2.67.66,4,.15.78.53,1.35,1.48,1-1,1.68-2.66,2.84-4,4.22Z"/><path class="cls-20" d="M83.45,101.25l2.86-2.91c.9,1.55-.06,3.86,2,4.92l-2.81,2.93C83.56,105.28,82.89,103.69,83.45,101.25Z"/><path class="cls-21" d="M66.18,110.92a3.54,3.54,0,0,1,2.14.93c2.22,1.7,2.08,3-.44,4-.72.3-1.3,1-2.18.82A4.77,4.77,0,0,1,66.18,110.92Z"/><path class="cls-22" d="M83.45,101.25a8.05,8.05,0,0,0,2.08,4.94c-.79,1.49-1.61,1.86-2.83.3a3,3,0,0,0-3-.9C80.21,103.49,82.18,102.67,83.45,101.25Z"/><path class="cls-23" d="M110.92,104.7c2.24-1.41,2-3.57,1.68-6.1l-10.79,9.34c2.9-4.28,7.34-7,10.94-10.49.85,2.87.42,5.8.42,8.71-.39-.74-.22-2.49-1.85-1.06A.54.54,0,0,1,110.92,104.7Z"/><path class="cls-11" d="M119.55,71.07c-.9-2.2-.67-4.58-1.08-6.87A4.23,4.23,0,0,1,120,62.37c1.23.1.94,1.08,1,1.79a21.21,21.21,0,0,0,.5,4.7v0A3.63,3.63,0,0,1,119.55,71.07Z"/><path class="cls-24" d="M66.18,110.92a18.08,18.08,0,0,0-.48,5.77c-1.8.81-2.57.19-2.3-1.72.15-1.1.43-2.18.64-3.26C64.33,110.26,65.07,110.09,66.18,110.92Z"/><path class="cls-25" d="M73.07,90.83l-4.64,5.4c.89,1,2.3.26,3,1.24-1.65.28-3.19-.51-4.81-.49,1.89-2.41,3.49-5.07,5.79-7.15A1.33,1.33,0,0,1,73.07,90.83Z"/><path class="cls-26" d="M112.74,91.73c-3.61,2.87-6.83,6.16-10.29,9.2,2.58-4.25,6.62-7.05,10.34-10.18Z"/><path class="cls-27" d="M111.2,112.29c-2.47,1.5-3.85,4.13-6.09,5.87a.66.66,0,0,1-.55-.53c2.65-2.68,4.92-5.78,8.3-7.68.37,0,.41.23.35.53C112.76,111.33,112.3,112.16,111.2,112.29Z"/><path class="cls-28" d="M142.45,38.3a17.34,17.34,0,0,0,.59,9.2,1.24,1.24,0,0,1-1,1c-.72-2.86-.6-5.81-1-8.71A3.48,3.48,0,0,1,142.45,38.3Z"/><path class="cls-29" d="M135.29,46v7.39c-1.65-1.78-.1-4.12-1.41-5.91Z"/><path class="cls-30" d="M132.46,48.92c-.74,2.73.44,5.5-.22,8.93-1.39-2.75-.16-5.28-1.15-7.42Z"/><path class="cls-31" d="M126.27,64.36v-7c1.65,1.65.11,3.88,1.44,5.52Z"/><path class="cls-32" d="M121.42,68.86a8.16,8.16,0,0,1-1-4.28c0-.76.3-1.62-.5-2.21a1.3,1.3,0,0,1,.94-1C121.91,63.81,121.26,66.36,121.42,68.86Z"/><path class="cls-33" d="M123.34,67.18a10.86,10.86,0,0,1,.46-6.77c0,1.13,0,2.26,0,3.4,0,.82-.31,1.87,1,2A2.66,2.66,0,0,1,123.34,67.18Z"/><path class="cls-9" d="M75.41,98c-.55.87-.88,1.93-2,2.31a8.61,8.61,0,0,0-1.5-2.82Z"/><path class="cls-34" d="M138.28,42.74c-.26,2.11.4,4.17.52,6.64-1.78-1.87-.55-4-1.45-5.64Z"/><path class="cls-35" d="M113.67,69.06c-.1,2,.89,3.85.38,6.33-.5-2.08-.9-3.71-1.3-5.34A1.36,1.36,0,0,1,113.67,69.06Z"/><path class="cls-2" d="M111.2,112.29a5.55,5.55,0,0,1,2-1.81l.16,3.29Z"/><path class="cls-36" d="M129.1,52.78v7c-1-2.46.1-4.55-.86-6.38C128.31,52.88,128.73,52.86,129.1,52.78Z"/><path class="cls-37" d="M97.35,94c-.12-1.62-1.1-3.11-.82-5.06.86,1.41.37,3.13,1.7,4.06A1.29,1.29,0,0,1,97.35,94Z"/><path class="cls-38" d="M109.34,75.35c1.21,1.15,0,2.74.81,4A7.22,7.22,0,0,1,109,75.26.49.49,0,0,1,109.34,75.35Z"/><path class="cls-2" d="M31.12,40.72c-6.56-1.26-13.08-.3-19.6.32-1.82.18-3.64.49-5.7.76a6.8,6.8,0,0,1,2.9-4c11-8.5,20.45-18.62,29.82-28.83.52-.56.91-2,2.14-.74,1.48,1.89,1.43,4.23,1.62,6.4a124.64,124.64,0,0,1,.54,16.51c-.73,4.15-.17,8.38-.72,12.54-.92,1.35-1.87.28-2.81,0-1.19-.83-2.72-1-3.85-2h0C34,41.32,32.54,41.18,31.12,40.72Z"/><path class="cls-39" d="M10.49,44.21c-.19-1.1-1.18-1.44-1.64-.72-1.32,2.07-3.14,3.88-3.64,6.42,0,.24,0,.48,0,.71.35,20-.83,40.07-.36,60.09.22,9.57.27,19.13.29,28.7l-.35-.28c-.12-7.27-.21-14.54-.36-21.81-.49-23.58.57-47.15.36-70.73,0-.87.24-1.74.29-2.61.06-1,.58-1.34,1.56-1.26,3.05.25,6-.37,9.07-.58.55-.11,1.28-.5,1.47.35.1.47,0,1.24-.94,1.06-1.3-1-2.59-1.37-3.81.11C11.55,43.13,11.27,44.56,10.49,44.21Z"/><path class="cls-5" d="M42.2,31.15a140.15,140.15,0,0,0-1.52-23c.07-.43-.11-1.09.36-1.21.86-.24.49,1,1.11,1.13.86.31,1,1.06,1.08,1.82a6.89,6.89,0,0,1-.09,2.52l0,1c.72,1.56-.18,3.27.44,4.84l.06.91c.3,3.71.34,7.42.42,11.14A1.42,1.42,0,0,1,42.2,31.15Z"/><path class="cls-40" d="M42.66,10,42.15,8.1c-.07-.78,0-1.38,1.05-1.46a17.07,17.07,0,0,0,2.32-.48L47,6.2c-.09,1.43-2.19,4.53-3.25,4.82C42.8,11.26,43,10.35,42.66,10Z"/><path class="cls-41" d="M34,43.14c-2.55,0-2.91,2.61-4.42,3.86-.81.67-1.21,1.82-2.55,2.45.63-2.37,2.55-3.51,3.72-5.16.62-.88.85-1.41-.17-2,1.17-.29,2.16.61,3.31.48.18,0,.25.11.22.21S34.07,43.14,34,43.14Z"/><path class="cls-42" d="M34,43.14c0-.13-.07-.26-.11-.38.7-.07,1.47,0,1.54-1.06a6.41,6.41,0,0,1,3.85,1.37c.35.68,0,1.12-.51,1.53a.92.92,0,0,1-1.06-.35c-.48-.81-1.38,0-1.94-.49Z"/><path class="cls-37" d="M16.21,43.55c.47-.2.82-.65.65-1s-.77-.26-1.18-.37a2.14,2.14,0,0,1,2.42,0A33.06,33.06,0,0,1,14.41,48C14.4,46,15.64,44.93,16.21,43.55Z"/><path class="cls-42" d="M31.12,40.72a8.1,8.1,0,0,1,4.34,1A6.57,6.57,0,0,1,31.12,40.72Z"/><path class="cls-4" d="M5.14,144.07l.59,5.11c-.09.58-.23,1.1-1,1.07-.18-1.46-.4-2.91-.52-4.37C4.17,145.15,4,144.24,5.14,144.07Z"/><path class="cls-2" d="M115.21,12.42c-1,.16-.93,2.87-2.77,1.23-.57-.51-1.45-5.31-1-5.94.73-1,1.09-.22,1.57.34.88,1,.36,3,2.2,3.42Z"/><path class="cls-43" d="M42.66,10c.42.09.49,1.28,1.19.44C45,9.11,46.46,8,47,6.2a.94.94,0,0,1,1,0,20,20,0,0,1-4.83,6.19A3.55,3.55,0,0,1,42.66,10Z"/><path class="cls-27" d="M106.53,4.25l-7.36,7c1.41-2.81,3.94-4.61,5.89-6.93Z"/><path class="cls-44" d="M117.16,43.75l-5.77,5.81c-.5-.23-.57-.71-.68-1.17a42,42,0,0,1,4.92-5.23C116.19,43.22,116.83,43.08,117.16,43.75Z"/><path class="cls-45" d="M73.86,76.27c-6.71.1-13.42.13-20.13.3-10.48.28-20.95-.31-31.42-.31a2.58,2.58,0,0,1-2.43-.86c2-.2,3.62-.51,5.25-.51,10.4-.06,20.79,0,31.19-.06A195.81,195.81,0,0,0,76.44,74a15.7,15.7,0,0,1,1.68,0c.59,0,1.16.12,1.2.86s-.54.88-1.13,1c-1.33.17-2.72-.14-4,.43L74,76.16Z"/><path class="cls-46" d="M48.24,96.59c3.74.25,7.47.49,11.21.77a6.43,6.43,0,0,1,1.85.39c.51.19,1.09.52.87,1.22s-.78.43-1.22.37C48.47,97.75,35.89,98.8,23.38,98a3.61,3.61,0,0,1-2.47-.58c1.79-.86,3.54-.17,5-.84Z"/><path class="cls-47" d="M97.47,137.44l9.54-9.23,5.27-4.72c.62.66.07,1-.22,1.25q-6.6,6.2-13.24,12.36C98.47,137.43,98.11,138.1,97.47,137.44Z"/><path class="cls-48" d="M34.46,117.7c2.92.13,5.85-.11,8.75.35a10.46,10.46,0,0,1-.29,1.2.74.74,0,0,1-.38.45c-2.88-.23-5.78,0-8.63-.55A1.69,1.69,0,0,1,34.46,117.7Z"/><path class="cls-49" d="M34.46,117.7c.06.57,0,1.12-.55,1.45L32.07,119c-2.71-.54-5.49.2-8.19-.4-.51-.32-1.43-1-.09-1C27.34,117.53,30.92,116.84,34.46,117.7Z"/><path class="cls-50" d="M99.36,143.44l12-12.72.51.48C107.92,135.5,104.18,140,99.36,143.44Z"/><path class="cls-51" d="M100.78,127.75l11.68-10.81c.25,1-.56,1.25-.62,1.79l-7.21,6.76-3.33,2.81C100.82,128.4,100.68,128.19,100.78,127.75Z"/><path class="cls-52" d="M110.52,140.43a65,65,0,0,1-9.25,9.56Z"/><path class="cls-48" d="M55.13,119.57c-1.54.92-3.21.35-4.81.37-2.6,0-5.19-.15-7.78-.24l.21-.28a6.58,6.58,0,0,1,4.29-1c.64,0,1.25.19,1.81-.24h1.49c.12.87.72.8,1.39.8C52.89,119,54.13,118.65,55.13,119.57Z"/><path class="cls-53" d="M55.13,119.57l-4.48-.07c-1.89,0-.55-.81-.31-1.33,1.42,0,2.84-.11,4.26-.12C56.19,118.05,56,118.71,55.13,119.57Z"/><path class="cls-54" d="M48.85,118.18c-1.93.93-4.09.7-6.1,1.24-1-.83-.33-1.13.46-1.37Z"/><path class="cls-48" d="M23.88,118.62c2.72.25,5.5-.57,8.19.4C29.35,118.7,26.57,119.59,23.88,118.62Z"/><path class="cls-2" d="M51.87,38.42A.9.9,0,0,1,51.53,37c1.54-2,1.47-4.47,2.31-6.65a9.16,9.16,0,0,0,.22-4.5c-.34-2.94-1-5.87,0-8.82a1.52,1.52,0,0,0,0-1.17c-1.59-2.15.12-4.67-.81-6.93a1.23,1.23,0,0,1,1.16-1.72c2.24-.13,4.51-1.37,6.44-1.15A21,21,0,0,1,66.35,7c1.94.8,3.62.41,5.67-.3,2.23-.78,4.86-2.71,7.49-.37a2.24,2.24,0,0,0,2.72,0c3.16-2.08,6.65-.78,10-1,1.28-.07,1.39,1.37,1.33,2.41a2.49,2.49,0,0,0,2.15,3c1,.16,1.15.59,1.28,1.38,0,.36.3,1,.52,1,3.5.44,2.74,3.09,2.8,5.3a1.45,1.45,0,0,0,.5,1.28q.22.13.15.27c0,.1-.1.14-.15.14.5,2-.85,3.84-.5,5.82.28,1.56,1.17,3.11,0,4.68a.23.23,0,0,0,0,.23c2.17,1.78.84,3.46.05,5.32a2.2,2.2,0,0,0,1.06,2.83c2.16,1.4,2.24,4.94.44,6.74a6.57,6.57,0,0,0-2,2.68,2,2,0,0,0,1.12,2.4,1.38,1.38,0,0,0,2.09-.36c.74-1.06,1.85-1.43,3.72-2-1.74,2.44-2.92,4.54-4.55,6.2-.89.89-2.37,1.76-3.64-.43-1-1.68-3.39-1.18-5.07-1.24-6.71-.23-13.43-.1-20.14-.08a7.73,7.73,0,0,0-1.64.29,63.35,63.35,0,0,1-12,1.18c-1.6,0-2.71-1.36-4.35-1-1.08.22-2.2,0-3.32.27-2,.46-2.67-.32-2-2.25a3.57,3.57,0,0,0,.11-2.58c-1.93-3.7.56-5.74,2.75-8,.54-.54,1.46-1,1-1.95s-1.14-.73-1.86-.35Z"/><path class="cls-55" d="M21,56.62c.5-1.34,1.52-1.07,2.33-1.09,11.35-.28,22.7-.57,34-.76,11.12-.19,22.23-.27,33.34-.37a39.55,39.55,0,0,1,4.06.28c.59.06,1.13.39,1,1.07s-.73.71-1.32.7c-2.55-.08-5.11-.21-7.66-.18q-29.27.31-58.52.7A40.43,40.43,0,0,1,21,56.62Z"/><path class="cls-56" d="M110.71,48.39a1.31,1.31,0,0,1,.68,1.17C105.91,55.37,100.38,61.14,95,67c-6.5,7.06-12.89,14.2-19.35,21.3-.8.88-1.69,1.68-2.54,2.52a1,1,0,0,1-.63-1Q91,68.55,110.71,48.39Z"/><path class="cls-57" d="M49.8,27.34h-.19c-1.76,1.05-2.82,2.83-4.29,4.19-.34.31-.63.82-1.16.57s-.39-.76-.42-1.24a4.87,4.87,0,0,1,2-4.5c1.05-1,1.52-2.56,3.14-2.91a2.32,2.32,0,0,0,2,1.49C50.88,25.9,50,26.47,49.8,27.34Z"/><path class="cls-58" d="M42.2,31.15l1.31-.5A3.93,3.93,0,0,1,44,33c-.5.43-.22,1-.36,1.55-.74,1,.16,1.92,0,2.89,0,1.76,0,3.52,0,5.28-1.61-.47-.85-1.48-.67-2.24-.5.61-.25,1.48-.23,2.32s.07,1.43-.74,1.8c-.05,0-.16,0-.22-.07a.51.51,0,0,1-.08-.42C42,39.78,41.34,35.43,42.2,31.15Z"/><path class="cls-43" d="M44,33a4.38,4.38,0,0,1-.46-2.33c0-3.84.08-7.67.11-11.51l1.16-.49a.46.46,0,0,1,.76,0c-1.67,1-1.65,2.51-1.41,4.11.08.52.42.24.68.13a.58.58,0,0,1,.79.11c-1.27,1-1.94,2.2-1.28,3.87.66,0,.81-.67,1.2-1,.45-.09.68.05.53.54-1.54,1.43-2.53,3.06-1.76,5.49,1.18-1.24,2.25-2.48,3.44-3.58.5-.47.8-1.54,1.88-1A22.43,22.43,0,0,1,44,33Z"/><path class="cls-59" d="M41.66,44.09c1-.22.4-1,.52-1.55.18-.79-.34-1.74.58-2.4.79.71-.08,1.94.84,2.56.07.55.16,1.1.19,1.65.11,2.72-.12,2.87-2.56,1.65-.55-.21-1.17-.29-1.51-.87l-.92-.53.51-1.53Z"/><path class="cls-60" d="M101.77,30.72l12-11,.44.47c-3.58,4.11-8.08,7.26-12,11.06Z"/><path class="cls-61" d="M100.79,20.05a1.87,1.87,0,0,0,0-.41,56.8,56.8,0,0,1,9.49-8.84C107.22,14,104.72,17.74,100.79,20.05Z"/><path class="cls-62" d="M43.61,37.42c-.37-1-.78-1.93,0-2.89l.28,1.77,8.51-7.86C52.17,30,46.43,35.8,43.61,37.42Z"/><path class="cls-63" d="M111.89,27.39,101.8,36.9l-.58-.61L111.4,26.8Z"/><path class="cls-64" d="M102.08,48.2c3.33-3.26,6.44-6.76,9-8.87l-8.42,9.5Z"/><path class="cls-37" d="M110.92,104.7l.4.4c-3.87,3.26-6.95,7.37-11.1,10.33C103.63,111.69,106.94,107.86,110.92,104.7Z"/><path class="cls-43" d="M43.56,18.23a14.11,14.11,0,0,1-.44-4.84L44,14.77l6.84-6.95.46.41c-1.88,1.94-3.68,4-5.68,5.78C44.28,15.2,43.36,16.39,43.56,18.23Z"/><path class="cls-65" d="M111.51,31.74l-7.31,7.67C105.84,37.41,109,34.94,111.51,31.74Z"/><path class="cls-66" d="M35.8,43.76c.7-.06,1.45-.29,1.94.49-1.74-.35-2.31,1.11-3.09,2.11C33.36,48,32.2,49.8,30.36,51,31.65,48.17,34,46.14,35.8,43.76Z"/><path class="cls-67" d="M111.9,86.47q-3.56,3.77-7.1,7.52l-.54-.53a81.48,81.48,0,0,1,7.2-7.43Z"/><path class="cls-68" d="M51.87,38.42a.77.77,0,0,0,.26,0c-1.56,3.19-4.59,5-6.93,7.47C46.91,42.94,49.6,40.88,51.87,38.42Z"/><path class="cls-31" d="M45.71,41a18.44,18.44,0,0,1,6.09-6.74C49.64,36.44,48.05,39.08,45.71,41Z"/><path class="cls-69" d="M45.6,23l-.79-.11c1.63-2.87,4.54-4.5,6.51-7l.47.42Q48.69,19.66,45.6,23Z"/><path class="cls-35" d="M39.72,45.13l1.51.87c-2.74,1.23-4.11,3.89-6.43,6.4A8.86,8.86,0,0,1,37.4,48C38.22,47.08,39.55,46.57,39.72,45.13Z"/><path class="cls-70" d="M21.82,49.29l4.55-6.57a19.36,19.36,0,0,1-4.08,7Z"/><path class="cls-71" d="M46.05,26.42l-.53-.54a20.9,20.9,0,0,1,6-5.44l-2.66,3Z"/><path class="cls-63" d="M104.56,117.63l.55.53a26.29,26.29,0,0,1-5.12,4.61Z"/><path class="cls-72" d="M45.54,18.68l-.76,0a24.41,24.41,0,0,1,5.31-5.52A19.52,19.52,0,0,1,45.54,18.68Z"/><path class="cls-73" d="M18,49.22a11.3,11.3,0,0,1,3.81-5.37A14.79,14.79,0,0,1,18,49.22Z"/><path class="cls-74" d="M10.49,44.21c.68,0,.91-1.6,1.91-.55C10.5,44.85,9.76,47,8.26,48.91,8,46.58,9.33,45.45,10.49,44.21Z"/><path class="cls-75" d="M103.59,22.94a42.56,42.56,0,0,1,5.33-5.24c.47-.16.58,0,.46.46l-5.23,5.34C103.68,23.59,103.47,23.43,103.59,22.94Z"/><path class="cls-68" d="M105.16,10.22c.64-1.54,2-2.36,3.34-3.26a6.16,6.16,0,0,1-3.12,3.48h-.22Z"/><path class="cls-76" d="M105.16,10.22a.25.25,0,0,0,.22.22,11.06,11.06,0,0,1-3.47,3.73A7.13,7.13,0,0,1,105.16,10.22Z"/><path class="cls-77" d="M45.73,51.47c.85-1.35,1.38-3,3.61-3.65A12,12,0,0,1,45.73,51.47Z"/><path class="cls-62" d="M49.8,27.34c-.32-1.08.67-1.61,1-2.41.66-.21.69-1.24,1.78-1.22C52.09,25.34,50.76,26.21,49.8,27.34Z"/><path class="cls-38" d="M100.78,127.75c.17.18.35.36.52.55L99,130.52C98.91,129.11,99.82,128.41,100.78,127.75Z"/><path class="cls-78" d="M109.38,18.16l-.46-.46a4.61,4.61,0,0,1,2.55-1.7A3.92,3.92,0,0,1,109.38,18.16Z"/><path class="cls-61" d="M103.59,22.94l.56.56a5.62,5.62,0,0,1-2.39,2.18A4.35,4.35,0,0,1,103.59,22.94Z"/><path class="cls-2" d="M104.28,115.31a2.56,2.56,0,0,1,1.57-2.25C106.17,114.35,105.41,114.74,104.28,115.31Z"/><path class="cls-79" d="M131,40.24c.24-.53.45-1.09,1.07-1.32-.57,2,.64,3.89.15,6C130.79,43.53,132.15,41.56,131,40.24Z"/><path class="cls-61" d="M101.14,84.5c.18-.51-.16-1.22.6-1.49.21,1.2.42,2.4.66,3.79C101.24,86.22,101.36,85.28,101.14,84.5Z"/><path class="cls-64" d="M89.15,91.78H89l-.15-.07c-2-1.15-1.35-3.1-1.5-4.81l.93-1Z"/><path class="cls-28" d="M96.94,76.35l1-.92v7.73C96.79,80.52,98.11,78.28,96.94,76.35Z"/><path class="cls-80" d="M93.4,82.17c.22,1.44.44,2.88.72,4.78A4.65,4.65,0,0,1,93.4,82.17Z"/><path class="cls-80" d="M113.89,64.84c-1.11-.72-.51-1.86-.67-2.81s.35-1.74-.4-2.46a1.45,1.45,0,0,1,.92-1Z"/><path class="cls-72" d="M85.44,97.12l-.49.35c-1.44-1.79-.7-4.25-1.88-6.12.08-.45.44-.56.81-.64C85.83,92.49,85.45,94.85,85.44,97.12Z"/><path class="cls-68" d="M80.92,101.11c-1.31-1.52-.78-3.09-.65-4.6C80.7,97.94,81.32,99.35,80.92,101.11Z"/><path class="cls-81" d="M108.89,66.84l.54,4.22A3.27,3.27,0,0,1,108.89,66.84Z"/><path class="cls-82" d="M145.33,37.51v5.86C144.62,41.43,145,39.47,145.33,37.51Z"/><path class="cls-15" d="M85.44,97.12c-1-2-.64-4.37-1.56-6.41l3.44-3.81c1.2,1.39.32,3.42,1.5,4.81C89.15,94.43,86.75,95.43,85.44,97.12Z"/></g></g></svg>