<svg xmlns="http://www.w3.org/2000/svg" viewBox="0 0 115.67 142.61"><defs><style>.cls-1{fill:#fefefe;}.cls-2{fill:#272526;}.cls-3{fill:#383536;}.cls-4{fill:#312f30;}.cls-5{fill:#2b2728;}.cls-6{fill:#3d3a3b;}.cls-7{fill:#343031;}.cls-8{fill:#504e4f;}.cls-9{fill:#c2c2c2;}.cls-10{fill:#332f30;}.cls-11{fill:#4a4748;}.cls-12{fill:#333132;}.cls-13{fill:#3b3738;}.cls-14{fill:#444142;}.cls-15{fill:#1e1a1b;}.cls-16{fill:#cdcdcd;}.cls-17{fill:#383636;}.cls-18{fill:#514f50;}.cls-19{fill:#555454;}.cls-20{fill:#454243;}.cls-21{fill:#bababa;}.cls-22{fill:#c7c7c7;}.cls-23{fill:#0e090a;}.cls-24{fill:#fbfbfb;}.cls-25{fill:#747373;}.cls-26{fill:#666465;}.cls-27{fill:#bfbfbf;}.cls-28{fill:#bebebe;}.cls-29{fill:#b4b4b4;}.cls-30{fill:#1d191b;}.cls-31{fill:#c5c5c5;}.cls-32{fill:#b2b2b2;}.cls-33{fill:#c3c3c3;}.cls-34{fill:#cfcfcf;}.cls-35{fill:#1d1b1c;}.cls-36{fill:#c6c7c7;}.cls-37{fill:#cacaca;}.cls-38{fill:#c5c4c4;}.cls-39{fill:#282627;}.cls-40{fill:#272626;}.cls-41{fill:#3d3b3c;}.cls-42{fill:#474747;}.cls-43{fill:#3c3c3c;}.cls-44{fill:#616161;}.cls-45{fill:#626262;}.cls-46{fill:#1a1617;}.cls-47{fill:#d3d3d3;}.cls-48{fill:#ececec;}.cls-49{fill:#f4f4f4;}.cls-50{fill:#c3c2c2;}.cls-51{fill:#f8f8f8;}.cls-52{fill:#f5f5f5;}.cls-53{fill:#cecdce;}.cls-54{fill:#bdbdbd;}.cls-55{fill:#a8a8a8;}.cls-56{fill:#f6f6f6;}.cls-57{fill:#b4b3b3;}.cls-58{fill:#e2e2e2;}.cls-59{fill:#c4c3c3;}.cls-60{fill:#f7f7f7;}.cls-61{fill:#fafafa;}.cls-62{fill:#f0f0f0;}.cls-63{fill:#ddd;}.cls-64{fill:#c1c1c1;}.cls-65{fill:#ebebeb;}.cls-66{fill:#c0bfbf;}.cls-67{fill:#b3b3b3;}.cls-68{fill:#e5e4e4;}.cls-69{fill:#d4d4d4;}.cls-70{fill:#f2f2f2;}.cls-71{fill:#c4c4c4;}.cls-72{fill:#fcfcfc;}.cls-73{fill:#f9f8f8;}.cls-74{fill:#e8e8e8;}.cls-75{fill:#efefef;}.cls-76{fill:#ededed;}.cls-77{fill:#a1a1a1;}.cls-78{fill:#f5f3f4;}.cls-79{fill:#f3f2f2;}.cls-80{fill:#aeaeae;}.cls-81{fill:#575455;}.cls-82{fill:#9b9b9b;}.cls-83{fill:#a7a6a6;}.cls-84{fill:#a3a3a3;}.cls-85{fill:#f7f6f6;}.cls-86{fill:#ebeaeb;}.cls-87{fill:#343233;}.cls-88{fill:#282426;}.cls-89{fill:#505050;}.cls-90{fill:#404040;}.cls-91{fill:#292828;}.cls-92{fill:#302e2f;}.cls-93{fill:#322f30;}.cls-94{fill:#545152;}.cls-95{fill:#686768;}.cls-96{fill:#4d4d4d;}.cls-97{fill:#ababab;}.cls-98{fill:#484848;}.cls-99{fill:#adadad;}.cls-100{fill:#a4a4a4;}.cls-101{fill:#9f9f9f;}.cls-102{fill:#aaa;}.cls-103{fill:#a09f9f;}.cls-104{fill:#7d7d7d;}.cls-105{fill:#262424;}.cls-106{fill:#acacac;}.cls-107{fill:#b8b8b8;}.cls-108{fill:#b0b0b0;}.cls-109{fill:#979797;}.cls-110{fill:#acabab;}.cls-111{fill:#868686;}.cls-112{fill:#292829;}.cls-113{fill:#b1b1b1;}.cls-114{fill:#757575;}.cls-115{fill:#9d9d9d;}.cls-116{fill:#bcbcbc;}.cls-117{fill:#7e7e7e;}.cls-118{fill:#b5b5b5;}.cls-119{fill:#b0b1b1;}.cls-120{fill:#f9f9f9;}</style></defs><g id="Layer_2" data-name="Layer 2"><g id="Layer_1-2" data-name="Layer 1"><path class="cls-1" d="M57.11,125.91c-.81,1.49-2.32.59-3.47,1-5.21,1.72-10.68.57-16,1.13a29.15,29.15,0,0,1-8.39-.35c-4.51-.9-9-.57-13.52-.66-1.95,0-3.76-.1-5-2-.48-.7-1.35-.57-2.1,0-1.82,1.37-3.9.88-5.85.51a2.09,2.09,0,0,1-1.52-2.79,6,6,0,0,0,0-3.07,2.81,2.81,0,0,1,.27-2.28c1.28-2,1.51-3.94-.28-5.81a1.69,1.69,0,0,1-.42-1.08c0-3.47-1-6.94-.71-10.33C.46,94.46.16,88.77.3,83.07c.09-3.48,0-7,0-10.45,0-2.57-.49-5.1.28-7.74.61-2.09-.08-4.41-.27-6.63-.36-4.32.58-8.62.39-13A2.31,2.31,0,0,1,1,44.18c1.41-2.76,2-5.43.39-8.44a4.52,4.52,0,0,1,.81-4.94c1.83-1.94,3.29-4.45,6.4-4.91,1.15-.16,1.5-1.7,2.33-2.53C16.61,17.71,22.29,12,27.78,6.19A11.84,11.84,0,0,1,38.45,2.24c2.14.33,3-.56,4.5-1a8.63,8.63,0,0,1,5.67-.14A2.71,2.71,0,0,0,51.24,1,3.09,3.09,0,0,1,52.77.79,86.28,86.28,0,0,0,65.63.43c1.07-.12,2.2.34,3.3.33C74.88.71,80.82.39,86.77.07c3.15-.17,6.42-.19,9.12,2.11a8.19,8.19,0,0,1,3,5.93,20.49,20.49,0,0,1,0,5.31c-.53,2.52.16,5,0,7.4-.07,1.31.59,1.7,1.62,2,2.59.74,3.14,2.35,1.57,4.56a7.17,7.17,0,0,1-1.33,1.42c-2.85,2.29-3.13,5.45-3.08,8.73.56.25.75-.2,1-.44.49-.41.92-1.09,1.67-.6s.58,1.24.23,1.93a32.14,32.14,0,0,1-1.65,3.13,11.25,11.25,0,0,0-1.68,8.59c.13.7,0,1.46.1,2.15.23,1.12.3,2.31,1.9,2.59a1.36,1.36,0,0,1,.59,2.51c-2.53,1.92-2.33,4.48-2.48,7.29-.11,2.11-1.39,4.23-1.46,6.53,0,.06-.35.12-.53.18a1.18,1.18,0,0,1-.9-.38c-1-2.36-.2-4.79-.22-7.18,0-.51.14-1,.15-1.56-.75-2.81.61-5.48.54-8.24-.47-3.78.47-7.56.07-11.34.25-2.38.78-4.74.39-7.15.46-3.24,1-6.47.3-9.75.05-4.32-.79-8.62-.23-13a15.57,15.57,0,0,0-.19-5.69c-.68-2.82-2-4-4.84-4.42a34,34,0,0,0-6.3-.07c-5.83.27-11.64.57-17.49.56-6.41,0-12.87-.2-19.29.42-2.74.27-5.49.43-8.22.78A28.88,28.88,0,0,0,33.2,5.64a4,4,0,0,0-1.73,1.24C27,11.46,22.35,16,17.85,20.57A99.3,99.3,0,0,1,7.57,29.74a10.42,10.42,0,0,0-4.33,9c.28,16.68-.64,33.34-.39,50,.08,5.19-.08,10.38,0,15.57.12,5.44.35,10.88.79,16.3.14,1.71.64,2.67,2.66,2.8,1.75.12,3.53.13,5.29.39a237.64,237.64,0,0,0,24.31,1c6.28,0,12.56-.13,18.83.35C55.6,125.25,56.51,125.1,57.11,125.91Z"/><path class="cls-2" d="M57.11,125.91c-9.5-.67-19-.12-28.52-.48a155.48,155.48,0,0,1-17.25-1.14c-.9-.59-1.9-.14-2.84-.27-.49-.07-1.19.15-1.18-.63s.63-.76,1.15-.84,1.17,0,1.76-.11c5.56.15,11.09.86,16.66,1,1.3,0,2.6.21,3.91.21H56.36a36.07,36.07,0,0,1,5.49.28,3.76,3.76,0,0,0,2.67-.3c.47-.24.53-1,1.26-.93.26,2.54.45,5.09.8,7.62,1,6.85,4.25,10.31,11.1,10.92a105.51,105.51,0,0,0,24.35-.42c5.37-.76,7.75-3.5,8.33-8.88.67-6.2,1-12.42,1.23-18.65a11.51,11.51,0,0,1,.29-3.31c1.12,1.24-.26,2.74.42,4A155.54,155.54,0,0,1,111,133.38a8.89,8.89,0,0,1-7.93,8.11,97.39,97.39,0,0,1-25.12.58c-8.28-.82-11.49-4.68-12.44-13.34-.39-3.62-.86-3.89-4.47-3.06A22.78,22.78,0,0,1,57.11,125.91Z"/><path class="cls-3" d="M93,81.19l-3.5,0c-3.64-.37-7.29-.12-10.94-.17-1.1,0-2.2,0-3.3-.12l-1.52,0a.72.72,0,0,1-.82,0H71.72a.26.26,0,0,1-.44,0l-1.16-.05a.4.4,0,0,1-.51.06c-.7-.46-1.49-.07-2.22-.24a7.59,7.59,0,0,1-1.16,0c-1.6-.23-2.2.53-2.12,2-.64,1.3.1,2.81-.64,4.08-1.09-.06-1-1-1-1.58a19.87,19.87,0,0,0-1.18-7.42c-.87-2.29.06-3.79,2.17-4.66,3.61.18,7.22,0,10.82.09a7.18,7.18,0,0,1,2.53.21.78.78,0,0,1,.44.53c-.62,1-1.61.76-2.5.77-3.08.05-6.17,0-9.26,0-1.11,0-2.41-.07-2.47,1.54a2.27,2.27,0,0,0,2.22,2.52,75.73,75.73,0,0,0,8.63.63c11.55.07,23.11,0,34.67,0a9.72,9.72,0,0,0,2.35-.15c1.38-.35,2.74-.86,2.95-2.49s-1.14-2-2.28-2.55a6.1,6.1,0,0,0-3-.37c-3.3,0-6.57.62-9.88.42a4.52,4.52,0,0,1-2.63-.48.77.77,0,0,1,.06-1c2.28-.3,4.59.17,6.86-.25l5.68-.13a10.42,10.42,0,0,1,4.25.63,3.66,3.66,0,0,1,2.68,3.08,3.93,3.93,0,0,1-2.13,3.72,8.82,8.82,0,0,1-4.34,1,27,27,0,0,1-4,.08C101.09,81.12,97,80.87,93,81.19Z"/><path class="cls-4" d="M105.69,115.7c.16,5.52-.52,11-.94,16.48-.2,2.57-1.82,3.37-4,2.25a1.11,1.11,0,0,1-.68-1.22c.3-7.33.55-14.67.82-22a19.5,19.5,0,0,0,.16-3.5c0-.38-.13-1,.67-.72.93,2.05.24,4.22.45,6.32,0,.34,0,.69,0,1a19.55,19.55,0,0,1-.18,3.59c-.42.57,0,1.09.09,1.64.25,1.62-.32,3.22-.07,4.84a4,4,0,0,1,0,.6,39.44,39.44,0,0,0-.23,5c0,.28,0,.57,0,.85s0,.73,0,1.09-.33,1,.12,1.49c2.21,0,1.51-1.7,1.71-2.87a4.85,4.85,0,0,1,.15-1.08,4.09,4.09,0,0,0,0-2.14,3.9,3.9,0,0,1,0-.58c.21-.88.09-1.8.33-2.68a11,11,0,0,0,.17-2.92c-.34-3.27.43-6.5.39-9.76a1.81,1.81,0,0,1,.56-1.42c.55,0,.59.42.57.83A40.08,40.08,0,0,1,105.69,115.7Z"/><path class="cls-5" d="M75.22,110.43c.27,7.58.52,15.17.86,22.75.06,1.21-.73,1.22-1.4,1.48a1.92,1.92,0,0,1-2.6-.62,4.79,4.79,0,0,1-.64-2.44c-.23-2.8-.4-5.61-.59-8.42,0-1.52-.51-3.07.26-4.55.82.38.65,1.16.73,1.83a11,11,0,0,0,.33,3.23c.07.62,0,1.25.07,1.87a6.2,6.2,0,0,0,.23,1.2,8.75,8.75,0,0,1,.16,1.84,19.18,19.18,0,0,0,.14,3.55c.31.62.3,1.73,1.5,1a5.06,5.06,0,0,0,.14-2.38,27.77,27.77,0,0,1-.12-3.53c0-2.86.11-5.72-.07-8.58a2.21,2.21,0,0,1-.06-.68,10.25,10.25,0,0,0,.15-2.35c0-1.18,0-2.35,0-3.52C74.38,111.46,74.19,110.6,75.22,110.43Z"/><path class="cls-6" d="M85.85,125.48a3.91,3.91,0,0,1-.19-1c.12-9.08-1-18.09-1.45-27.14,0-.32,0-.65,0-1a14.78,14.78,0,0,1,.1-4.92.43.43,0,0,1,.59.18,23.75,23.75,0,0,1,.63,2.65,25.33,25.33,0,0,1,.08,3,13.24,13.24,0,0,0,.29,3.92,14.89,14.89,0,0,1,.12,1.64,57,57,0,0,0,.71,8.55c0,.52,0,1,0,1.57s0,.82,0,1.24,0,.62,0,.93,0,.64,0,1a5.93,5.93,0,0,1-.19,1.33,48.36,48.36,0,0,0-.16,5.64C86.4,124,86.61,124.84,85.85,125.48Z"/><path class="cls-7" d="M90.71,96.09a11.71,11.71,0,0,1,.19,1.55q.1,17.24.17,34.47c0,.79.15,1.61-.75,2.06-.46.12-.59-.17-.68-.53,0-1.78.07-3.56,0-5.34,0-.55,0-1.1,0-1.66s0-.89,0-1.33c0-.69,0-1.37,0-2.06,0-1.9,0-3.79,0-5.69a13.12,13.12,0,0,1,.17-2.58c.46-2.41.17-4.84.21-7.26.06-3.09,0-6.17,0-9.26C90.1,97.64,89.92,96.73,90.71,96.09Z"/><path class="cls-3" d="M75.22,110.43c-.8,1.83-.08,3.77-.44,5.64-.51-.1-.64-.49-.75-.91a7.75,7.75,0,0,1-.09-1.27c0-.44,0-.87,0-1.3,0-.78,0-1.57,0-2.35-.15-3.4.34-6.81-.32-10.18a14,14,0,0,1-.06-1.71c0-.54,0-1.09,0-1.63V95.45c0-.52,0-1,0-1.56q0-.47,0-.93c0-1.5.08-3-.08-4.5a3.65,3.65,0,0,1-.18-.56,2.71,2.71,0,0,1-.15-.85c.17-.43.41-.63.83-.26a2.71,2.71,0,0,1,.81,1.93Z"/><path class="cls-3" d="M63.32,87c.37-1.49-.32-3.08.43-4.53.87,1.13-.17,2.47.4,3.63l.78,20.82a.61.61,0,0,1-.91-.1,31,31,0,0,1-.75-6.72A12.07,12.07,0,0,0,63,96C62.91,93,62.32,89.93,63.32,87Z"/><path class="cls-8" d="M104.43,86.37c1.58,0,2.49.78,2.48,2.39,0,5.64-.41,11.27-.79,16.9a.4.4,0,0,1-.51.42l-.23-.25c-.57-1.53-.18-3.12-.31-4.67a15.63,15.63,0,0,1,.16-4.73,6.19,6.19,0,0,0,.14-2.64,24.47,24.47,0,0,0,.13-3.2c.34-1.46.26-2.8-1.15-3.72A.46.46,0,0,1,104.43,86.37Z"/><path class="cls-9" d="M75.21,80.94a125.3,125.3,0,0,1,14.24.29c-.4.63-.53,1.45-1.26,1.92-.49-.72.33-1.14.18-1.74-1.53-.55-1.52,1.29-2.48,1.72-.66-.84.51-1.08.45-1.67-1.94-.88-2,1.24-3,2-.6-.8.51-1.31.22-2.08-1.33,0-1,1.55-1.87,2-.86-.6,1.09-1.38-.06-2a.45.45,0,0,1-.62,0c-2.14-.37-3.78.21-4.39,3-.66-1.52.4-2.09.31-3-2-.49-1.43,2-2.83,2.38C74,82.58,75.27,82,75.21,80.94Z"/><path class="cls-10" d="M64.24,106.87h.69c.46,5.25.73,10.51.85,15.78-.48.33-.34.87-.47,1.32-1-.44-.79-1.39-.91-2.2-.49-3.37-.24-6.8-.74-10.18C63.72,110,63.14,108.33,64.24,106.87Z"/><path class="cls-11" d="M70.16,106.87c-.29-5.46-.6-10.92-.88-16.38,0-.71.07-1.42.1-2.14,1,.14.78,1.07,1.1,1.66.34,1.41,0,2.87.3,4.28a3.2,3.2,0,0,1,.15.61,21,21,0,0,1,.12,2.51c0,.32,0,.64,0,1,.08,1.91-.18,3.84.26,5.73a3.2,3.2,0,0,1-.29,2.79A.67.67,0,0,1,70.16,106.87Z"/><path class="cls-12" d="M112.34,96.23l0-7c.12-1.2-.67-2.39,0-3.59h0c.34-1.43-.09-2.93.36-4.36.85-.13.8.47.77,1-.25,6.28-.15,12.57-.69,18.84-.83-.77-.23-1.69-.27-2.55A5.32,5.32,0,0,0,112.34,96.23Z"/><path class="cls-13" d="M104.43,86.37v.38a3.54,3.54,0,0,0-1.73,3.81c.21,2-.16,4.06-.1,6.1a14.78,14.78,0,0,1-.44,4.68.62.62,0,0,1-.86,0,118.77,118.77,0,0,1,.17-12.66C101.56,86.72,102.25,86.26,104.43,86.37Z"/><path class="cls-14" d="M70.16,106.87h.67a1.45,1.45,0,0,1,.59,1.21c.11,1.59-.15,3.2.36,4.76a31.34,31.34,0,0,1,0,4.94,1.36,1.36,0,0,1-.51.93c-.82,1.42,0,3-.43,4.47C70.27,117.76,70.25,112.31,70.16,106.87Z"/><path class="cls-15" d="M90.71,96.09c0,5.66-.06,11.32-.11,17,0,.69.22,1.44-.29,2.07-.88-.75-.56-1.79-.61-2.72a39.44,39.44,0,0,0-.13-4.07,2.57,2.57,0,0,1,0-.68c.08-3.59.11-7.18.15-10.77.19-.92-.46-2.15.92-2.65A3.49,3.49,0,0,1,90.71,96.09Z"/><path class="cls-16" d="M64.15,86.05l-.4-3.63a8.48,8.48,0,0,0-.06-1.34c-.17-.9.12-1.15,1-1s1.77.26,2.66.39c.13,0,.17.1.14.17s-.08.1-.12.1c-2.21.37-2.29,2.45-3.1,3.93A3.37,3.37,0,0,0,64.15,86.05Z"/><path class="cls-17" d="M90.61,94.25c-.69.87-.14,1.93-.43,2.85-.55-.08-.68-.5-.79-.94a15.61,15.61,0,0,1-.08-2.27c0-.52,0-1,0-1.57,0-.7,0-1.39,0-2.09s.16-1.24-.24-1.8c-.24-.27-.53-.48-.78-.74a.83.83,0,0,1-.15-.8c.28-.41.66-.31,1-.21,1.28.57,1.44,1.75,1.47,2.92C90.71,91.15,90.64,92.7,90.61,94.25Z"/><path class="cls-18" d="M112.72,102.93a64.79,64.79,0,0,1-.33,9.55c-.7-1.28.16-2.75-.48-4a69.19,69.19,0,0,1,.34-9.55C113,100.17,112.1,101.64,112.72,102.93Z"/><path class="cls-19" d="M89.2,86.68c-.37.08-.76.12-1,.52a1.15,1.15,0,0,1-.7.37,3.35,3.35,0,0,0-1.24.36c-1.46.64-.91,2.1-1.28,3.18a.85.85,0,0,1-.36.39c-.74,1.59,0,3.29-.41,4.91-.12-2-.31-4-.36-6.07C83.82,87.37,86.23,85.73,89.2,86.68Z"/><path class="cls-20" d="M86.38,132.85c-.73-1.92-.31-3.93-.44-5.89.4-1.67,0-3.38.24-5,.42-.26.62,0,.81.32.58,2.16,0,4.38.38,6.54.13.75-.25,1.49-.09,2.24a2.33,2.33,0,0,1,0,.53c0,.08,0,.17,0,.26C87.05,132.21,87.13,132.88,86.38,132.85Z"/><path class="cls-21" d="M93,81.19c4.08-.59,8.19-.14,12.28-.26.12.07.16.13.12.2a.17.17,0,0,1-.13.09.71.71,0,0,1-.29,0,.34.34,0,0,1-.56,0l-2.15.07a.49.49,0,0,1-.65,0h-1a.35.35,0,0,1-.55,0l-3.38,0a.41.41,0,0,1-.58,0c-1.94-.37-1.74,1.77-2.87,2.42-.45-.72.15-1.2.46-1.65C94.43,80.91,93.21,81.45,93,81.19Z"/><path class="cls-22" d="M112.34,85.59a7,7,0,0,1,0,3.59c-.58-.44-.58-.44-1.36.8C109.87,88.64,110.14,87.75,112.34,85.59Z"/><path class="cls-18" d="M101.3,101.35H102a.59.59,0,0,1,.23.42,10,10,0,0,1,0,1.55c-.2,1.12.13,2.28-.33,3.37l-.2.21c-1.12,1.28.17,3-.78,4.32A70.56,70.56,0,0,1,101.3,101.35Z"/><path class="cls-8" d="M105.69,115.7c-.44-1.86.4-3.83-.43-5.67-.68-.57-.51-1.37-.56-2.11a6.71,6.71,0,0,1,.11-1.26,1.53,1.53,0,0,1,.27-.56.38.38,0,0,1,.55,0h0a1.72,1.72,0,0,1,.5,1.6A69.27,69.27,0,0,1,105.69,115.7Z"/><path class="cls-9" d="M105.22,81.22a2.81,2.81,0,0,1,0-.29l4,0c-.4.49-.52,1.21-1.2,1.48v0c-.1-.36.41-.8,0-1.07a.82.82,0,0,0-1.19.31l-2.17,3.62c-.2-1.54.73-2.3,1.23-3.15C106.5,81.05,105.77,81.27,105.22,81.22Z"/><path class="cls-22" d="M112.7,81.23c-.21,1.45.33,3-.36,4.36l-.18-1.17L110.27,87C110.48,84.8,112.66,83.48,112.7,81.23Z"/><path class="cls-23" d="M86.35,121.79c-.39,1.7.28,3.49-.41,5.17l-.09-1.48c0-2.18.06-4.37.12-6.55,0-.61-.25-1.3.34-1.81.7.71.38,1.68.61,2.51a2.82,2.82,0,0,1,0,.58A2.87,2.87,0,0,1,86.35,121.79Z"/><path class="cls-24" d="M103.05,72.6c-2.27.53-4.61.05-6.9.39-1.67.07-1.83-.21-1.18-2l.41.4c-.12,1.16.64,1.19,1.48,1.18C98.93,72.55,101,72.58,103.05,72.6Z"/><path class="cls-25" d="M86.38,132.85c.42-.28.11-1,.66-1.16.4.2.52.65.82.93.54.58,1.45.46,2,1.06l.49.49A2.75,2.75,0,0,1,86.38,132.85Z"/><path class="cls-26" d="M70.05,89.93l-.67-1.58c.6-2.14,2.46-2.77,4.58-1.56l-.65.26a.47.47,0,0,1-.39.27h-.24a1.78,1.78,0,0,0-1.58.24c-.66.53-.41,1.38-.69,2A.72.72,0,0,1,70.05,89.93Z"/><path class="cls-27" d="M108.38,85.78a5.3,5.3,0,0,1,2.24-4.17Z"/><path class="cls-28" d="M67.38,80.79a2.45,2.45,0,0,1,0-.27,5.65,5.65,0,0,1,2.48.25.44.44,0,0,1-.6.14c-1.37.29-.77,2.09-2,2.61-.38-.85.3-1.36.52-2S67.86,80.86,67.38,80.79Z"/><path class="cls-29" d="M111.47,82.81l-1.93,3.44C109.28,84.57,110.44,83.68,111.47,82.81Z"/><path class="cls-30" d="M112.72,102.93c-.84-1.27,0-2.74-.47-4l.09-2.66c.81,1.55,0,3.25.44,4.83Z"/><path class="cls-31" d="M100,81.28h.55a13.86,13.86,0,0,1-2,3.45C98.28,83.06,99.65,82.38,100,81.28Z"/><path class="cls-9" d="M101.57,81.28l.65,0-1.84,3.76C100,83.22,101.43,82.47,101.57,81.28Z"/><path class="cls-32" d="M104.37,81.25l.56,0A5.63,5.63,0,0,1,103,84.69C103,83.2,104.33,82.49,104.37,81.25Z"/><path class="cls-33" d="M108,82.43a5.7,5.7,0,0,1-1.63,2.94,3.27,3.27,0,0,1,1.62-3Z"/><path class="cls-34" d="M96.05,81.3h.58a11.41,11.41,0,0,1-1.85,3.31C94.7,83,95.61,82.25,96.05,81.3Z"/><path class="cls-16" d="M69.24,80.91l.6-.14a.21.21,0,0,1,.28,0,6,6,0,0,1-1.5,2.88C68.2,82.48,69.44,81.85,69.24,80.91Z"/><path class="cls-35" d="M111.91,108.44c.78,1.27.08,2.72.48,4L112.3,114c-.78-1.27-.11-2.71-.42-4Z"/><path class="cls-36" d="M97,84.47a3.36,3.36,0,0,1,1.34-2.82C98.45,83,97.25,83.54,97,84.47Z"/><path class="cls-37" d="M81.05,81.29h.62a7.22,7.22,0,0,1-1.48,2.56C79.76,82.66,80.83,82.11,81.05,81.29Z"/><path class="cls-38" d="M72.87,80.88l.82,0c-.55.76-.41,1.92-1.46,2.51C71.87,82.38,73,81.77,72.87,80.88Z"/><path class="cls-28" d="M71.28,80.87l.44,0a7.68,7.68,0,0,1-1.51,2.65C70.06,82.23,70.85,81.63,71.28,80.87Z"/><path class="cls-16" d="M65.93,83.74a2.35,2.35,0,0,1,.85-2.38C67.09,82.32,66.54,82.82,65.93,83.74Z"/><path class="cls-39" d="M10.32,123c-.86.22-1.81-.19-2.8.42,1.2,1,2.81-.2,3.82.9-2.31.1-4.57-.41-6.86-.51-1.26-.06-1-1-1.14-1.7a127.52,127.52,0,0,1-.92-14.75c-.61-23.07.19-46.13.21-69.2a9.53,9.53,0,0,1,3.55-8c8.46-6.53,15.8-14.26,23.09-22C32,5.21,35.27,4.22,39,3.9c.07,1-1,.84-1.43,1.41-.83.62-2,.53-2.74,1.36-.48.31-1.11-.34-1.54.26-2,1.21-3.4,3.07-5,4.74C22.06,18.4,15.68,25,8.39,30.65a7.29,7.29,0,0,0-2.77,3.18,75.57,75.57,0,0,1,8.09-1,96.67,96.67,0,0,1,10.63-.11,2.9,2.9,0,0,1,1.3.4c1,.58,2.26.55,3.34,1a.68.68,0,0,1,.32.51c-.11.88-.79.91-1.44,1-1,.1-1.94-.39-2.94-.32A44.53,44.53,0,0,0,15.13,35a6.36,6.36,0,0,0-2.71.19,47.51,47.51,0,0,1-5.47.5A2.06,2.06,0,0,0,4.56,37.9c0,.79-.15,1.57-.13,2.36C4.72,58,3.68,75.67,4.1,93.37c.15,6.42.29,12.83.33,19.25a6.25,6.25,0,0,0,.23,1.55c.36,1.81.08,3.67.41,5.49.41,2.32.36,2.3,2.66,2.41C8.66,122.12,9.76,121.81,10.32,123Z"/><path class="cls-40" d="M37.39,5.11c0-1.1,1.3-.5,1.59-1.21A99.69,99.69,0,0,1,52.67,2.73C64,2.4,75.26,2.93,86.52,2a23.42,23.42,0,0,1,2.37,0c5.08.12,7.24,2.19,7.2,7.26,0,4.85-.23,9.71.07,14.56,0,.72,0,1.44,0,2.16a8.79,8.79,0,0,1,.12,2.51c0,.9-.49,1.11-1.27.89-.71-.57-.62-1.4-.71-2.16-.64-5.48-.25-11-.36-16.47,0-.59,0-1.18,0-1.76-.09-3.67-1.24-4.81-4.86-4.83-.53,0-1.05,0-1.57,0s-1,0-1.44,0c-9.76.61-19.53.35-29.29.49a120.11,120.11,0,0,0-17,1.06c-.36,0-.73,0-1.09,0A1.68,1.68,0,0,1,37.39,5.11Z"/><path class="cls-41" d="M95,71c.24.76-.48,2.08,1.18,2v.7c-1.69,1.15-3.56.55-5.37.5a28.3,28.3,0,0,0-8.27-.08c-1.75,0-3.56,1.1-5.23-.3-.06,0-.12-.12-.18-.18a.6.6,0,0,1,.2-.49,2.36,2.36,0,0,1,1.61-.54,2.31,2.31,0,0,0,2.7-1.72,1.12,1.12,0,0,1,1,.51,2.06,2.06,0,0,0,2,1c2.42,0,4.83,0,7.25,0,.55,0,1.33.15,1.47-.6s-.56-1.08-1.12-1.42c-.88-.54-2.14-.14-2.82-1.15.1-.63.68-.63,1.09-.86a2.63,2.63,0,0,1,1.15-.07c1.59.19,1.31-.72,1.06-1.82-1.21.55-1.83,1.91-3.21,1.82a1,1,0,0,1-.3-.48c0-1.34,1-2,1.8-2.86a18.13,18.13,0,0,0,2-2.07c.64-1-.24-2.51,1-3.45.7.86.23,2.06.91,2.86-.15,2.23-.29,4.46-.44,6.69C94.44,69.71,94.34,70.43,95,71Z"/><path class="cls-42" d="M95.84,35.65a17,17,0,0,1-.41,6.81c.39,2.47-.16,4.86-.55,7.26-1.22-.5-.75-1.67-1-2.55,0-.61.2-1.19.17-1.8.1-2,0-4.1.12-6.32-1,.38-1.54,1.16-2.44,1.3-.38-.19-.84.09-1.21-.2-.22-1.17.78-1.68,1.35-2.38.85-1,1.92-1.88,2.8-2.89.25-.5.33-1.11,1-1.45C96.26,34.18,95.87,34.94,95.84,35.65Z"/><path class="cls-43" d="M94.93,62.3C93.56,62,94.54,60.73,94,60c-.61,1.13.31,2.51-.61,3.52-1.07-1.93-.17-3.9-.09-6-.72.19-1.17,1.06-2,.77a.84.84,0,0,1-.45-.33c-.25-1.2.76-1.69,1.35-2.41s1-1.23,1.42-1.84.33-1.5,1.14-2.12c.44.86,1,1.56.62,2.57C95.67,56.86,94.32,59.52,94.93,62.3Z"/><path class="cls-44" d="M95.84,35.65l-.14-1.78c-.68.35,0,1.39-.88,1.54a1.11,1.11,0,0,1-.8-1.18c.22-1.7.12-3.46.93-5,.75,0,1.23-.23,1.18-1.12,0-.7.05-1.41.08-2.12A26,26,0,0,1,95.84,35.65Z"/><path class="cls-45" d="M95.41,54.1,94.85,52c-.44.77.16,1.87-1,2.09a4.82,4.82,0,0,1,.75-4.36c.7-2.35.61-4.8.84-7.21.65,2.72-.25,5.45,0,8.19C95.51,51.78,96.1,53,95.41,54.1Z"/><path class="cls-1" d="M94.59,49.68c-.35,1.44,0,3-.75,4.36-.6,1.55-2.38,2.25-2.85,3.9-1.84,2-3.53,4.16-5,5.45,1.39-1.32,3.24-3.32,5-5.38,1.42.23,1.47-1.55,2.92-1.88-.13,2.54-.73,4.93-.6,7.36C92.14,65,90.06,65.8,89.47,67.9a1.41,1.41,0,0,1-1.27.75A9,9,0,0,0,81.67,71c.11,1.55,0,2.77-2.16,2.14a6,6,0,0,0-2.3.27,122,122,0,0,1-13.79,0c-1.78,1.15-2.62,3.3-1.37,5.16S63,82,63.1,83.84c.08,1,.15,2.08.22,3.11q.07,4.55.13,9.09a12.45,12.45,0,0,1,.17,2.73c.16,1.39-.17,2.3-1.81,2.3a1.28,1.28,0,0,0-1.32,1.42,56.21,56.21,0,0,0,0,6.49,2.07,2.07,0,0,0,1.87,2,3.31,3.31,0,0,1,1.82.64c.25,3.44.48,6.87.73,10.3.06.7-.11,1.44.36,2.07-.22.9-.94.57-1.46.54-13.65-.69-27.32,0-41-.69-4.2-.22-8.38-.56-12.57-.85A11.7,11.7,0,0,0,6,122.72c-.93,0-1.28-.26-1.36-1.18a55.54,55.54,0,0,1-.45-7.06,2.09,2.09,0,0,1-.15-1c.18-13.44-.88-26.89-.33-40.32.45-10.7.17-21.38.34-32.07,0-2.2.68-3,2.45-3.19a1.16,1.16,0,0,1,.64,1.11c.75-1.46,1.46-2.87,3-3.61,1.2-.59,2.4-1.2,3.16.58.12,1-.73,1.67-1.05,2.38,1.13-1,1-3,2.63-3.75a31.6,31.6,0,0,1,10.27.1c1,.23,1.29.65.59,1.6-.84,1.14-1.83,2.14-2.85,3.43a42.89,42.89,0,0,0,2.87-3.45,2,2,0,0,1,2.14-1,2.82,2.82,0,0,1,.82.07c.87.53.7,1.1.12,1.76C27.63,38.5,26.6,40,25.4,41.37c1.33-1.43,2.39-3.08,3.72-4.52.51-.56,1-1.06,1.83-.87a5.52,5.52,0,0,1,1.06.36,1.65,1.65,0,0,1,.83.73c.24.9-.53,1.25-1,1.76-.9,1-2.07,1.8-2.53,2.82,1.28-1.35,2.34-3.35,4.55-4.12.93.25,1.49,0,1.45-1.07,0-.57,0-1.14,0-1.71a19.43,19.43,0,0,1,.13-3.58c2.2-2.47,4.75-4.56,7.1-6.88-1.67,1.61-3.44,3.11-5.05,4.78-.43.45-.86,1.16-1.6.84s-.49-1-.51-1.57a2,2,0,0,1,.46-1.3,38.85,38.85,0,0,0,4.48-4.59,4.49,4.49,0,0,1,.36-.39,9.56,9.56,0,0,1,1.19-1.19,3.06,3.06,0,0,0,.29-.21c-.21-.06-.34.2-.56.15a1.71,1.71,0,0,1-1.65-1.33c0-.93.9-1.26,1.4-1.95a50.73,50.73,0,0,0-3.72,4.27c-.4.41-.78,1-1.44.59-.47-.3-.4-.9-.44-1.42-.08-1,.68-1.44,1.36-1.92,1.1-1.89,2.9-3.13,4.62-5.1-1.83,2-3.58,3.38-4.85,5.24A1.84,1.84,0,0,1,36,16.33c.25-.4.77-.46,1-.81.93-1.23,2-2.3,3.31-3.81-1.27,1.46-2.32,2.53-3.27,3.7-.46.51-.94.61-1.44.06a1.72,1.72,0,0,1-.23-.52A2.87,2.87,0,0,1,36.56,12c1.5-1.34,2.88-2.82,4.29-4.26C39.61,9,38.33,10.22,37.14,11.5c-1,1-1.61,1-2-.45a1.68,1.68,0,0,1,.05-.83,44.79,44.79,0,0,1,4.19-5C46.79,3.81,54.28,4,61.73,4c8.19,0,16.36-.18,24.54-.43-.72,2.07-2.81,2.94-3.78,4.36,1.6-1.21,2.77-3.39,5-4.39,6.15-.25,7.55,1,7.18,7.21s0,12.29.3,18.44c.06,2.07-.67,4.13-.13,6.22l-4.35,4.75c-.77,2-2.7,3-4,4.58a10.82,10.82,0,0,0-1,1c.34-.4.67-.7,1-1a32.58,32.58,0,0,1,4.94-4.45A19.06,19.06,0,0,1,95,37.81c-.52,2.61-.16,5-.41,7.45A12.86,12.86,0,0,1,91.73,49c-2.15,2.25-4.15,4.63-6.36,6.81a5.19,5.19,0,0,1-.37.45c.3.08.31-.23.42-.37a4,4,0,0,0,.28-.5,98.65,98.65,0,0,0,7.09-7.51c.49-.56.83-1.35,1.71-1.49A11.33,11.33,0,0,0,94.59,49.68Z"/><path class="cls-24" d="M77.28,73.81a26,26,0,0,0,5.07-.08,40.2,40.2,0,0,1,8.28,0,35.08,35.08,0,0,0,5.52,0c4.21.27,8.41-.24,12.61-.3.68-.41-.46,1.14.51.47a2.8,2.8,0,0,1,2.35-.18c.42.16.82.34,1.24.48,2.08.71,2.6,2.64,1.11,4.26a5,5,0,0,1-3.7,1.56c-14.37.23-28.73.53-43.09-.36-.72-.05-1.44-.14-2.15-.24-2.17-.32-3.14-1.92-2.54-4.07.35-1.25,1.26-1.26,2.31-1.28C69,74,73.13,74.29,77.28,73.81Z"/><path class="cls-46" d="M63.42,73.36a115.35,115.35,0,0,1,13.79,0,.7.7,0,0,1-.11.23l-12.6.06A1.24,1.24,0,0,1,63.42,73.36Z"/><path class="cls-47" d="M111.62,73.68c-1.33,0-2.68,0-2.91,2.19-.87-1.2.17-1.78.05-2.48C109.72,73.44,110.72,73.1,111.62,73.68Z"/><path class="cls-48" d="M105.2,107.67l.06,2.36-.48,11.41a.38.38,0,0,1-.36.18,10.15,10.15,0,0,0-1.36,2c-.35.47-.52,1.21-1.38,1a16,16,0,0,1,0-5.12c.48-1.2,1.47-2.19,1.46-3.59a1,1,0,0,1,.09-.38c.13-.31.08-.32-.06,0a3.22,3.22,0,0,0-.47,1.89c-.15.58-.34,1.11-1.13.93l.14-4c.81-1.25,1.32-2.66,2.14-3.9a3,3,0,0,0,.34-2C104.37,107.92,104.55,107.5,105.2,107.67Z"/><path class="cls-49" d="M104.46,124.24c-.24,1,.24,2-.35,2.89-.37-.37-.41-.07-.59.23-.61,1-.84,2.33-2.18,2.77.16-1.74-.18-3.5.28-5.23a2.27,2.27,0,0,0,.64.24c.57-.38.71-1.07,1.15-1.54.27-.28.55-.73.93-.54S104.67,123.82,104.46,124.24Z"/><path class="cls-50" d="M105.2,107.67a1.11,1.11,0,0,0-.74.79,13.07,13.07,0,0,1-2.73,5.13q0-3.36,0-6.7l.12,0a.26.26,0,0,1,.39,0c.79.46.94-.8,1.62-.62a.54.54,0,0,1,.39.34c-.16,1.11-1.08,1.82-1.4,2.72.78-.9,1-2.39,2.38-2.94Z"/><path class="cls-51" d="M101.73,113.59c.42-2,1.68-3.49,2.73-5.13,1.14,2.1-1.18,3.11-1.53,4.75a1.43,1.43,0,0,1-1.17,1.15Z"/><path class="cls-52" d="M104.11,129.43l-.17,1.1a6.36,6.36,0,0,1-1.5,2.87c-.26.35-.62.7-1.12.26s-.12-1,0-1.53a15.81,15.81,0,0,1,1.64-3.26c.22-.35.47-.92,1-.65S104.21,129,104.11,129.43Z"/><path class="cls-53" d="M101.32,133.66c1.32-.67,1.6-2.21,2.62-3.13a10.11,10.11,0,0,1,0,1.74C103.69,133.84,103,134.69,101.32,133.66Z"/><path class="cls-54" d="M104.11,129.43l-.24-1c-1,1.19-1.33,2.75-2.52,3.72l-.06-1.21c.63-1,1.16-2,1.8-3,.23-.35.38-.88,1-.56A2.37,2.37,0,0,1,104.11,129.43Z"/><path class="cls-55" d="M104.46,124.24l-.13-.9c-1.23.4-.71,2.43-2.35,2.43a9,9,0,0,1,2.5-4.22,2.65,2.65,0,0,0,.3-.11C104.68,122.37,105.05,123.36,104.46,124.24Z"/><path class="cls-56" d="M104.48,121.55l-2.5,4.22-.36-.87a.19.19,0,0,1,.06-.28c1.11-.84,1.46-2.2,2.23-3.28C104.43,120.62,104.38,121.24,104.48,121.55Z"/><path class="cls-49" d="M104.09,127.4c-1.39.81-1.41,2.71-2.8,3.52l0-.79c.64-1,1.28-2.09,1.91-3.15.43-.73.71-.7.86.15A.21.21,0,0,1,104.09,127.4Z"/><path class="cls-57" d="M103.66,115.93a5.55,5.55,0,0,1-1.93,3.57c0-.4-.39-.77-.11-1.19.63-.18.82-.71,1-1.25S102.76,115.79,103.66,115.93Z"/><path class="cls-58" d="M74.76,133.68c-1.38.81-2.15.45-2.28-1.17a8.66,8.66,0,0,1,.45-5.18,6.33,6.33,0,0,0,.5-2.09c.24-.49.21-1.34,1.17-.93.19,1-.14,2.06.2,3.07l.23,3.85C74.68,132,74.17,132.79,74.76,133.68Z"/><path class="cls-9" d="M74.8,127.38c-.69-1-.1-2.15-.44-3.18-.46-.54-.14-1.09,0-1.64a23.4,23.4,0,0,1-1,2.84c-.23.57-.32,1.31-1.23,1.19a.83.83,0,0,1-.28-.84c.42-2.12,1.66-3.92,2.43-5.92,0-.28-.49-.13-.23-.13.08,0,.12,0,.09.15-.45,1.52-.89,3.05-2.35,4a8.52,8.52,0,0,1-.37-3.17.59.59,0,0,1,.76-.08c.34.56.09,1-.38,1.36.78-.49.58-1.41,1-2s.47-1.87,1.78-1.65C75.05,121.31,74.77,124.35,74.8,127.38Z"/><path class="cls-59" d="M72.2,120.71l-.83,0-.09-2,.09-.83A18.11,18.11,0,0,1,73,113.93c.33-.54.56-1.22,1.39-1.16l.09,1.2A38.39,38.39,0,0,0,72,119.35c.86-1.28.7-3.28,2.43-4.21l.35.93c-.17.63.17,1.33-.24,1.94-.5-.33-.37-.75-.17-1.18C73.73,118.17,73.46,119.71,72.2,120.71Z"/><path class="cls-60" d="M71.74,123.84l2.43-4.39c0,2.4-1.35,4.29-2.37,6.3Z"/><path class="cls-61" d="M72.08,126.59c1.21-1.07,1.15-2.83,2.17-4.09.4.61.13,1.16.11,1.7l-.67,1.23c-.27,1.18-.24,2.51-1.6,3.13A4.23,4.23,0,0,1,72.08,126.59Z"/><path class="cls-56" d="M72.2,120.71a20,20,0,0,0,1.86-4c.61.33.22.92.48,1.3a.39.39,0,0,1,0,.28c-1.45,1-1.52,2.85-2.64,4.08C71.56,121.69,72.15,121.25,72.2,120.71Z"/><path class="cls-9" d="M72.09,128.56c.91-.85,1.06-2.09,1.6-3.13.66.56.06,1.14-.13,1.56a11.18,11.18,0,0,0-1.08,5.52C71.78,131.25,72.28,129.87,72.09,128.56Z"/><path class="cls-62" d="M74.76,133.68c-.35-.1-1.13.19-.72-.64.31-.62.27-1.42,1-1.81Z"/><path class="cls-63" d="M89.83,96.22l.35.88c-.1,3.55-.19,7.1-.29,10.66a.8.8,0,0,1-.31-.85c-.24.19-.08.53-.27.73-1.13,1.24-1.22,3.27-3,4-.69-2.86-.52-5.79-.73-8.69a25.39,25.39,0,0,1,3.37-6.15C89.11,96.44,89.34,96.08,89.83,96.22Z"/><path class="cls-64" d="M86.35,121.79c.06-.55-.19-1.14.25-1.62a.56.56,0,0,1,.29.64c.14-.09.1-.26.17-.38.84-1.38,1.6-2.81,2.45-4.2-1.18,1.07-1,3.16-2.86,3.66-.63-.86-.21-1.85-.34-2.77l0-1.19c.44-.29.72-.1.92.3.18.72-.5,1.33-.32,1.86a7.42,7.42,0,0,1,1.57-3.34,3.07,3.07,0,0,0,.77-2.54,8.47,8.47,0,0,1-.09-.85c.07-.89.1-1.78.1-2.67,0-.34,0-.82.6-.66.58,2.35.12,4.75.4,7.11l-.13,2.4a27.61,27.61,0,0,1-2.07,3.67c-.33.5-.55,1.21-1.4,1Z"/><path class="cls-65" d="M89.91,108c-.36,1.17.3,2.46-.46,3.57a28.44,28.44,0,0,1-1.74,3.21c-.25.49-.62,1.35-1.35.34l0-.78a14,14,0,0,1,1.21-2.63c-.54.35-.27,1.47-1.27,1.45a2.47,2.47,0,0,1,0-1.59l3.46-5.39.17,1.55A.24.24,0,0,1,89.91,108Z"/><path class="cls-66" d="M89.41,88c.63.53.31,1.25.39,1.89-1,3.37-3.12,6.25-4.14,9.35,1.2-2.28,1.75-5.13,4.1-7l0,1.62a51.37,51.37,0,0,1-3.12,6.42c-.25.47-.36,1.17-1.17,1-.75-1.26-.23-2.65-.37-4A44.54,44.54,0,0,1,89.41,88Z"/><path class="cls-24" d="M89.41,88c.15,1.72-1.18,2.85-1.76,4.27a22.38,22.38,0,0,1-2.51,5.07,7.08,7.08,0,0,1,.06-3.14,5.25,5.25,0,0,1,.2-.78c.8-1.71,1.75-3.35,2.46-5.11a1.11,1.11,0,0,1,.79-.71Z"/><path class="cls-24" d="M85.51,101.35c1.39-1.81,2-4,3.17-6,.33-.53.39-1.27,1.12-1.5l0,2.34-4.3,6.69Z"/><path class="cls-61" d="M88.65,87.64l-.37.56a53.29,53.29,0,0,0-2.78,5.68l-.3.36a2.83,2.83,0,0,1-.41-2.33c1-1.47,1.13-3.51,2.72-4.66l.73,0Z"/><path class="cls-63" d="M86.36,115.15c.93.48.86-.45,1.11-.83.61-.94.82-2.17,2-2.72l.37.42c-.84,1.48-1.06,3.35-2.7,4.33a.83.83,0,0,0-.76-.42Z"/><path class="cls-28" d="M87.51,87.25c-1,1.49-1,3.58-2.72,4.66l-.13-.41.12-.45a32.25,32.25,0,0,1,1.48-3.54C86.62,87.16,87.08,87.29,87.51,87.25Z"/><path class="cls-67" d="M86.28,113.19c.55-.86,1.1-1.73,1.66-2.59a7.91,7.91,0,0,1-1.6,3.77Z"/><path class="cls-68" d="M86.71,122.25c1.55-1.28,1.73-3.57,3.47-4.71,0,2,0,3.94,0,5.91-.55,1.45-1,2.94-1.66,4.34-.3.65-.41,1.55-1.44,1.56A19.5,19.5,0,0,1,86.71,122.25Z"/><path class="cls-69" d="M89.83,133.68c-.87,0-1.77.08-2.39-.75.69-1.72.91-3.7,2.73-4.77C90,130,90.83,131.89,89.83,133.68Z"/><path class="cls-60" d="M87.09,129.35c1.11-1.17,1.31-2.78,2-4.16.31-.64.45-1.37,1.14-1.74l0,1.94c-.54,1.81-1.55,3.43-2.17,5.22-.13.4-.3.91-.93.74A1.51,1.51,0,0,1,87.09,129.35Z"/><path class="cls-60" d="M90.17,128.16c-1.26,1.39-1.31,3.47-2.73,4.77a1.18,1.18,0,0,1-.4-1.24l.06,0c1.13-.92.92-2.48,1.7-3.57.4-.56.32-1.58,1.39-1.54Z"/><path class="cls-31" d="M90.19,126.61c-1.15.82-1.3,2.19-1.82,3.35-.3.68-.27,1.59-1.27,1.76a1.57,1.57,0,0,0,0-.37c1.13-1.93,1.45-4.3,3.1-6Z"/><path class="cls-70" d="M70.93,104.5a32.41,32.41,0,0,1-.35-6.3,22.91,22.91,0,0,1,2.25-4.58c.24-.45.49-1,1.18-.54v.77c-.42,1.78-1.51,3.24-2.23,4.74,1-.78.63-2.68,2.27-3.15L74,96.61c-.18.39-.18.85-.38,1.23-.46.89.55-.08.44.36v1.57c-.3.45-.16,1.06-.55,1.48C72.61,102.3,72.65,104.1,70.93,104.5Z"/><path class="cls-51" d="M74.37,112.77c-1.53,1.39-1.6,3.64-3,5.11,0-1.7-.05-3.4-.07-5.1a10.62,10.62,0,0,1,2.64-4.56c.39.86.51,1.48-.1,2.07-.62.9-.88,2-1.26,2.54a15.78,15.78,0,0,0,1.09-2.4c.25-.21.48-.25.71,0Z"/><path class="cls-59" d="M74.38,110.45l-.72,0h0a2.37,2.37,0,0,0,.27-1.79c-1.07,1.38-1.43,3.05-2.65,4.15-.6-1.55-.23-3.16-.32-4.75.64-.65.46-2.22,2-1.86.34,1-.34,1.72-.73,2.51a5.29,5.29,0,0,0-.66,2.31c.12-2.22,2.49-3.76,1.92-6.17-.09-1.29.28-2.61-.27-3.86l.78-1.19A55.24,55.24,0,0,1,74.38,110.45Z"/><path class="cls-71" d="M70.05,89.93l.09-.43a16.58,16.58,0,0,0,.75-2.36,1.65,1.65,0,0,1,2,0c-1.08.82-1.24,2.18-2,3.23.74-1,.9-2.4,2-3.23l.38-.06c.21.11.4.23.33.52a7,7,0,0,1-1.33,3c-.8,1.28-1.1,2.78-1.82,4.09C69.89,93.14,70.42,91.49,70.05,89.93Z"/><path class="cls-37" d="M74,93.08c-1.22.75-1.31,2.24-2.12,3.26-.47.6-.6,1.43-1.31,1.86l0-.82a15.45,15.45,0,0,1,1.93-4.47,3.8,3.8,0,0,0,.58-2.79,4.66,4.66,0,0,1,.65-2.24C74.32,89.59,73.87,91.35,74,93.08Z"/><path class="cls-72" d="M73.71,87.88a5.79,5.79,0,0,1-.44,2.43c0,.08,0,.17,0,.26-.5,1.34-1.45,2.43-2,3.74-.17.23-.35.42-.67.31l-.07,0c0-2.83,1.77-4.88,3.15-7.1A1.08,1.08,0,0,1,73.71,87.88Z"/><path class="cls-73" d="M74.43,115.14c-1.09,1.48-1.65,3.23-2.61,4.79.46-2.17,1-4.31,2.64-6Z"/><path class="cls-37" d="M74.06,95.44l-2.52,4c.32-2.12,1.57-3.8,2.48-5.64Z"/><path class="cls-37" d="M74.06,98.2,73,99.12a4.3,4.3,0,0,1,1-2.51Z"/><path class="cls-1" d="M64.22,111.6c-3.9,0-4.35-.45-4.35-4.4,0-1.7,0-3.41,0-5.11,0-1.25.76-2,1.82-1.71,1.68.44,1.78-.35,1.74-1.59,0-.92,0-1.83,0-2.75q.4,5.42.79,10.83C64.23,108.45,64.23,110,64.22,111.6Z"/><path class="cls-74" d="M102.13,96.59c0-2.52.08-5,.05-7.56,0-1.6.73-2.28,2.25-2.28,2.17.47,1.9,2,1.55,3.56-.71,2.16-2.71,3.61-3.19,5.89C102.65,96.45,102.47,96.66,102.13,96.59Z"/><path class="cls-52" d="M102,102.88c0-.39-.68-.79,0-1.18.39-1.27,1.35-2.24,1.29-3.82A3,3,0,0,1,105.5,95a1,1,0,0,1,.14,1.31c.25,1.56-.51,3.09-.12,4.65a.94.94,0,0,1-.42.28c-.93.4-1.19,1.35-1.74,2.06-.35.46-.55,1.34-1.46.71A2.26,2.26,0,0,1,102,102.88Z"/><path class="cls-75" d="M102.47,96.25c.14-2.59,2.13-4.08,3.51-5.94-.19,1.2.26,2.45-.33,3.61-.74-.72-.48.63-1,.47C103.67,94.66,103.72,96.24,102.47,96.25Z"/><path class="cls-50" d="M105.24,101l.28,0c0,1.72.07,3.45.11,5.17a.89.89,0,0,1-.32.08c-.56-.48-.71.78-1.27.3h0c-.63-.92.29-1.4.53-2-.47.41-.64,1.24-1.47,1.34a.5.5,0,0,1-.43-.28C102.75,103.56,104.24,102.41,105.24,101Z"/><path class="cls-49" d="M104.5,94.25c.14-.19.27-.4.43-.59s.38-.43.57-.64l.15.9a2.83,2.83,0,0,1,0,2.35c0-.43,0-.9-.35-1.23-1.22.78-1.47,2.38-3,3.55C102.34,96.45,103.46,95.37,104.5,94.25Z"/><path class="cls-76" d="M72.93,106c-1,.34-.81,1.82-2,2l-.15-1.16c-.19-.8.51-1.56.1-2.37,1.09-1,1.38-2.48,2.34-3.54,1.64,1.08.42,2.67.71,4C73.82,105.5,73.7,106.08,72.93,106Z"/><path class="cls-24" d="M70.56,94.62l.34-.27c.74-1.38,1.72-2.63,2.39-4.06l0,0a1.51,1.51,0,0,1,.14,2c-.92,1.72-1.91,3.41-2.86,5.1A6.93,6.93,0,0,1,70.56,94.62Z"/><path class="cls-9" d="M104.5,94.25l-2.12,3.44.32.22c.55-.78,1.09-1.56,1.65-2.33.23-.3.25-1,.93-.54a21.56,21.56,0,0,0-2,3.55c.41.48.61-.37,1.1,0A18.64,18.64,0,0,1,102,101.7a.88.88,0,0,0,0-.36c0-1.59.07-3.17.11-4.75.12-.11.23-.23.34-.34C103.35,95.8,103.13,94.22,104.5,94.25Z"/><path class="cls-61" d="M89.76,92.26q-2,3.75-4.07,7.5a26,26,0,0,1,4.11-9.83Z"/><path class="cls-70" d="M86.26,87.51a4.27,4.27,0,0,1-1.48,3.54C84.74,89.65,84.23,88.05,86.26,87.51Z"/><path class="cls-77" d="M102,102.88l.22,1.19c.46.45,0,1.25.65,1.64l0,0c.47.82.08,1.14-.71,1.22l-.28,0A7.53,7.53,0,0,1,102,102.88Z"/><path class="cls-52" d="M104,106.47c.52.32.53-1.53,1.27-.3a.53.53,0,0,1-.09.3l-3.11,4.32C102.27,108.92,103.78,108,104,106.47Z"/><path class="cls-61" d="M86.65,119.89c1.61-1.22,1.69-3.44,3.19-5,.24,2.86-2.13,4.19-2.94,6.62l-.3-1.32A.26.26,0,0,1,86.65,119.89Z"/><path class="cls-24" d="M70.89,87.14c.22.12.76,0,.48.5-.36.65-.81,1.24-1.23,1.86C70.17,88.64,69.71,87.63,70.89,87.14Z"/><path class="cls-1" d="M25.57,33.47c-5.38-1-10.74-.24-16.09.27-1.5.14-3,.39-4.68.62A5.61,5.61,0,0,1,7.18,31c9-7,16.79-15.28,24.48-23.66.43-.46.75-1.65,1.76-.6,1.21,1.55,1.17,3.46,1.32,5.25a100.45,100.45,0,0,1,.45,13.55c-.6,3.41-.14,6.87-.59,10.29-.76,1.11-1.54.23-2.31,0-1-.69-2.23-.83-3.16-1.61h0C28,34,26.73,33.85,25.57,33.47Z"/><path class="cls-78" d="M13,36.33c-.6-2.15-1.72-1.09-2.77-.44-.75-.41-1,.84-1.75.51-.23,0-.59-.22-.66,0-.18.43.45.45.54.8C8,37.74,7.92,38.59,7,38.64c-1.1-.57-2.47.44-2.69,2a11.88,11.88,0,0,0,0,1.58c0,9.07.29,18.15-.1,27.2-.33,7.68-.48,15.37-.17,23,.3,7.36.13,14.7.22,22A7.31,7.31,0,0,1,4,111.77c-.87-24.43,0-48.85,0-73.27,0-.33,0-.66,0-1,0-1.76.57-2.63,2.67-2.44a35.9,35.9,0,0,0,6.26-.44c.46-.07,1.14-.41,1.21.29A1.18,1.18,0,0,1,13,36.33Z"/><path class="cls-40" d="M34.66,25.61A114.27,114.27,0,0,0,33.42,6.77c0-.36-.09-.9.29-1,.71-.2.41.8.92.93.7.25.79.87.88,1.49a5.76,5.76,0,0,1-.07,2.07l0,.78c.67,1.27-.15,2.68.36,4a.78.78,0,0,0,0,.37c.33,3.16.24,6.34.37,9.52A1.17,1.17,0,0,1,34.66,25.61Z"/><path class="cls-79" d="M35,8.27,34.63,6.7c-.07-.65,0-1.14.85-1.2a15.77,15.77,0,0,0,1.91-.39l1.18,0c-.08,1.17-1.81,3.72-2.67,4S35.32,8.54,35,8.27Z"/><path class="cls-80" d="M28,35.46c-2.08,0-2.38,2.14-3.62,3.17-.67.55-1,1.5-2.1,2,.52-2,2.1-2.88,3.05-4.24.51-.72.71-1.16-.13-1.65,1-.24,1.77.5,2.71.4.15,0,.21.09.19.17S28,35.46,28,35.46Z"/><path class="cls-81" d="M28,35.46a1.58,1.58,0,0,0-.09-.31c.58-.06,1.21,0,1.27-.87a5.18,5.18,0,0,1,3.16,1.12c.29.56,0,.92-.42,1.26a.76.76,0,0,1-.87-.29c-.71-.48-1.67-.22-2.35-.8Z"/><path class="cls-82" d="M13,36.33a1.9,1.9,0,0,0,.9-1.39c0-.08-.64-.2-1-.31a1.78,1.78,0,0,1,2,0,30,30,0,0,1-3,4.8C11.68,38,12.76,37.32,13,36.33Z"/><path class="cls-81" d="M25.57,33.47a6.79,6.79,0,0,1,3.56.81A5.32,5.32,0,0,1,25.57,33.47Z"/><path class="cls-83" d="M35,8.27c.35.08.4,1.05,1,.37.92-1.11,2.15-2,2.55-3.5a.76.76,0,0,1,.83,0,16.35,16.35,0,0,1-4,5.08A2.9,2.9,0,0,1,35,8.27Z"/><path class="cls-84" d="M87.47,3.54l-6,5.72C82.58,7,84.66,5.47,86.27,3.57Z"/><path class="cls-85" d="M89.34,69.07c.94.21,1.88.45,2.83.64a2.22,2.22,0,0,1,1.76,1.37c.47,1.12.62,1.94-1.15,1.88-2.92-.09-5.86,0-8.79.12-1.39.07-1.9-.36-1.68-1.71a1.66,1.66,0,0,1,1-1.76A6.42,6.42,0,0,1,89.34,69.07Z"/><path class="cls-86" d="M89.47,68.26a7.16,7.16,0,0,0,2.44-2.17.69.69,0,0,1,1-.31c.4.14.41.41.47.74.45,2.31.14,2.55-2.75,2.16C90.16,68.74,89.59,69.14,89.47,68.26Z"/><path class="cls-87" d="M89.47,68.26l1.15.42c-.34.42-.85.29-1.28.39-1,0-1.94,0-2.91,0a4,4,0,0,0-4.12,2.33L81.67,71c1-2,2.7-2.7,4.83-2.74,1,0,2,.34,3-.35A1.09,1.09,0,0,0,89.47,68.26Z"/><path class="cls-88" d="M90.63,73.73a60.21,60.21,0,0,1-8.28,0A19.75,19.75,0,0,1,90.63,73.73Z"/><path class="cls-89" d="M85,55.54l9.53-10.28c0,.36,0,.72,0,1.08a67.39,67.39,0,0,1-8.62,9.25C85.27,56.23,85.27,56.23,85,55.54Z"/><path class="cls-90" d="M86.26,44.52c1.41-1.45,2.81-2.91,4.21-4.36.33,0,.72-.34,1,.14A28.36,28.36,0,0,1,86.74,45C86.33,45.09,86.18,44.93,86.26,44.52Z"/><path class="cls-91" d="M17.21,46.6c.58-1.19,1.42-1,2.08-1,9.32-.23,18.64-.46,28-.62,9.06-.15,18.12-.22,27.18-.3,1.11,0,2.22.11,3.33.21.48,0,1,.23,1,.8,0,.75-.63.68-1.16.66-10.37-.35-20.74.05-31.11.14-8.66.07-17.33.19-26,.27C19.41,46.79,18.37,46.67,17.21,46.6Z"/><path class="cls-92" d="M16.37,62.13a16.89,16.89,0,0,1,5-.65c10.64,0,21.28,0,31.92-.13,3.4,0,6.81-.38,10.22-.55.6,0,1.54-.29,1.61.62.09,1.11-.94.83-1.6.88-12,.77-24,.74-36,.49-2.89-.06-5.78-.07-8.67-.14A3.42,3.42,0,0,1,16.37,62.13Z"/><path class="cls-93" d="M17.45,79.73c1.1-.08,2.19-.19,3.29-.23a263.86,263.86,0,0,1,27.7.4c.33,0,.66.07,1,.12.73.1,1.73.29,1.63,1.08-.14,1.05-1.17.45-1.77.38-8.69-1-17.42-.53-26.13-.81a28.69,28.69,0,0,1-5.71-.44Z"/><path class="cls-62" d="M40.14,19.29a1.91,1.91,0,0,0,1.61,1.22c0,.8-.7,1.27-.85,2h-.15c-1.45.86-2.32,2.32-3.53,3.44-.27.26-.51.68-.95.47s-.32-.63-.34-1a4,4,0,0,1,1.63-3.7C38.42,20.89,38.81,19.57,40.14,19.29Z"/><path class="cls-94" d="M34.66,25.61l1.08-.41a3.22,3.22,0,0,1,.38,1.92c-.41.35-.18.85-.3,1.27-.61.79.13,1.58,0,2.37v4.33c-1.33-.37-.68-1.2-.56-1.82-.41.5-.2,1.21-.19,1.9s.06,1.17-.6,1.47a.21.21,0,0,1-.18-.06.38.38,0,0,1-.07-.34C34.48,32.7,34,29.13,34.66,25.61Z"/><path class="cls-83" d="M36.12,27.12a3.53,3.53,0,0,1-.38-1.92c0-3.27,0-6.55.07-9.82a.72.72,0,0,0,1,0,.38.38,0,0,1,.63,0c-1.36.78-1.36,2-1.16,3.36.06.43.34.2.56.11a.48.48,0,0,1,.65.09,2.54,2.54,0,0,0-1.06,3.17c.54,0,.67-.55,1-.83.37-.07.55,0,.43.45-1.26,1.17-2.07,2.5-1.44,4.5,1-1,1.85-2,2.83-2.94.41-.38.65-1.27,1.54-.82A18.56,18.56,0,0,1,36.12,27.12Z"/><path class="cls-95" d="M28.31,96.66a63.66,63.66,0,0,1,7.18.29,8.2,8.2,0,0,1-.23,1,.65.65,0,0,1-.32.37c-2.36-.19-4.74,0-7.08-.45A1.4,1.4,0,0,1,28.31,96.66Z"/><path class="cls-17" d="M34.22,36.24c.85-.18.33-.84.43-1.27.14-.65-.29-1.43.48-2,.64.58-.08,1.59.69,2.09,0,.46.13.91.15,1.37.09,2.23-.1,2.35-2.1,1.35-.45-.17-1-.24-1.24-.72l-.76-.43.42-1.26Z"/><path class="cls-96" d="M28.31,96.66c.05.47,0,.92-.45,1.19l-1.51-.11c-2.23-.44-4.51.17-6.73-.32-.41-.27-1.17-.81-.07-.84C22.47,96.52,25.4,96,28.31,96.66Z"/><path class="cls-97" d="M93.61,16.4c-2.77,3.59-6.4,6.22-9.79,9.12C86.63,22,90.38,19.47,93.61,16.4Z"/><path class="cls-98" d="M91.06,58c-1.13,3.12-4,4.68-6.36,6.62,2-2.29,3.59-5,6.29-6.69Z"/><path class="cls-99" d="M35.82,30.76c-.3-.79-.64-1.58,0-2.37l.24,1.44,7-6.45C42.85,24.64,38.14,29.44,35.82,30.76Z"/><path class="cls-100" d="M90.65,9l-7.49,7.43A24.8,24.8,0,0,1,90.65,9Z"/><path class="cls-101" d="M83.11,29.83,91.48,22l.42.45-8.31,7.85Z"/><path class="cls-95" d="M45.28,98.19c-1.27.76-2.64.29-4,.31-2.13,0-4.26-.13-6.39-.2l.18-.23a5.4,5.4,0,0,1,3.52-.82c.52,0,1,.15,1.49-.2h1.22c.09.72.59.66,1.14.67C43.44,97.72,44.45,97.44,45.28,98.19Z"/><path class="cls-102" d="M83.83,39.65a105.52,105.52,0,0,1,7.69-7.56l-7.19,8.06Z"/><path class="cls-83" d="M35.78,15a11.34,11.34,0,0,1-.36-4l.68,1.1,5.62-5.69.39.35c-1.54,1.58-3,3.24-4.63,4.73A4.07,4.07,0,0,0,35.78,15Z"/><path class="cls-103" d="M28.65,35.57a3.72,3.72,0,0,1,2.35.8c-1.44-.28-1.88.94-2.55,1.76-1.08,1.33-1.93,2.87-3.76,4,.91-2.13,2.46-3.3,3.52-4.83C28.56,36.86,29.51,36.41,28.65,35.57Z"/><path class="cls-104" d="M91.64,26.18l-7.08,7.39C86.94,30.76,89.52,28.7,91.64,26.18Z"/><path class="cls-105" d="M45.28,98.19l-3.68,0c-1.55,0-.45-.67-.25-1.1,1.16,0,2.33-.08,3.5-.09S46,97.49,45.28,98.19Z"/><path class="cls-106" d="M43.21,31.61l-6.44,5.72.44.45C37.54,36.44,40.52,33.27,43.21,31.61Z"/><path class="cls-107" d="M42.55,28.18c-1.8,1.74-3,4-5,5.55A15.35,15.35,0,0,1,42.55,28.18Z"/><path class="cls-77" d="M37.46,19l-.65-.09c1.33-2.36,3.73-3.69,5.34-5.78l.39.35Z"/><path class="cls-108" d="M37.82,21.74l-.43-.45a16.15,16.15,0,0,1,4.94-4.46l-2.19,2.46Z"/><path class="cls-109" d="M32.63,37.09l1.24.72c-2.25,1-3.38,3.19-5.29,5.26a7.25,7.25,0,0,1,2.14-3.63C31.39,38.69,32.48,38.27,32.63,37.09Z"/><path class="cls-110" d="M17.92,40.54l3.75-5.45a16.85,16.85,0,0,1-3.28,5.75Z"/><path class="cls-111" d="M37.41,15.39l-.63,0a20.37,20.37,0,0,1,4.36-4.53A16,16,0,0,1,37.41,15.39Z"/><path class="cls-112" d="M40.13,97.05c-1.59.77-3.36.58-5,1-.78-.68-.27-.92.37-1.12Z"/><path class="cls-113" d="M17.93,36.07a14.51,14.51,0,0,1-3.28,4.6A9.29,9.29,0,0,1,17.93,36.07Z"/><path class="cls-114" d="M89.82,15l-4.3,4.38c-.38.08-.56-.06-.46-.47a34.22,34.22,0,0,1,4.38-4.3C89.82,14.45,89.91,14.61,89.82,15Z"/><path class="cls-106" d="M86.34,8.43c.49-1.3,1.73-1.87,2.73-2.69a4.92,4.92,0,0,1-2.53,2.88h-.19Z"/><path class="cls-55" d="M8.64,36.33c.56,0,.75-1.31,1.56-.44C8.66,36.86,8.05,38.58,7,40c-.57-.52,0-.95,0-1.37L8.1,37.05A.58.58,0,0,1,8.64,36.33Z"/><path class="cls-115" d="M86.34,8.43a.23.23,0,0,0,.2.19,10.21,10.21,0,0,1-2.84,3.09A5.75,5.75,0,0,1,86.34,8.43Z"/><path class="cls-116" d="M40.57,39.29a10,10,0,0,1-3,3C38.18,41.14,38.69,39.85,40.57,39.29Z"/><path class="cls-95" d="M19.62,97.42c2.24.2,4.52-.47,6.73.32C24.11,97.48,21.83,98.21,19.62,97.42Z"/><path class="cls-117" d="M86.26,44.52l.48.48a5.6,5.6,0,0,1-2.52,2A5,5,0,0,1,86.26,44.52Z"/><path class="cls-115" d="M85,55.54c.26.49.58,0,.87.05-.07.24-.07.54-.23.71-.37.4-.59,1-1.22,1.09-.11,0-.33-.24-.37-.39C83.87,56.2,84.48,55.89,85,55.54Z"/><path class="cls-99" d="M40.9,22.49c-.25-.89.55-1.32.85-2,.55-.17.57-1,1.47-1C42.78,20.85,41.69,21.57,40.9,22.49Z"/><path class="cls-118" d="M89.82,15l-.38-.39a3.78,3.78,0,0,1,2.09-1.4A3.23,3.23,0,0,1,89.82,15Z"/><path class="cls-100" d="M85.06,18.87l.46.47a6.48,6.48,0,0,1-2,1.94A3.67,3.67,0,0,1,85.06,18.87Z"/><path class="cls-119" d="M103.66,115.93l-1.06,1.13c-.75-1.39.79-1.88,1.26-2.84Z"/><path class="cls-120" d="M102.12,106.91a1.58,1.58,0,0,0,.71-1.22c1.17-.4,1.2-1.8,2.17-2.42.81,1.41-1.12,2-1,3.21-.83.28-1.16,1.11-1.74,1.69C101.93,107.75,102.16,107.31,102.12,106.91Z"/><path class="cls-61" d="M87.12,116.35c1.19-1.26,1.27-3.22,2.7-4.33.44,2.79-2.42,4-2.81,6.43A1.92,1.92,0,0,1,87.12,116.35Z"/><path class="cls-28" d="M85.5,93.88a12.78,12.78,0,0,1,2.78-5.68A19.48,19.48,0,0,1,85.5,93.88Z"/><path class="cls-59" d="M73.66,110.41c0,1.48-1,2.54-1.73,3.68a9,9,0,0,1,1.75-3.67Z"/><path class="cls-120" d="M72.93,106,74,105c.62,2.67-1.67,4.18-2.38,6.56C70.62,109.1,72.69,107.82,72.93,106Z"/><path class="cls-61" d="M72.93,87.11,70.8,91.24c.38-1.55.45-3.28,2.12-4.13Z"/><path class="cls-37" d="M73.29,90.29C73.06,92,72,93.16,70.9,94.35A8.72,8.72,0,0,1,73.29,90.29Z"/><path class="cls-51" d="M102.86,105.71c-.88.07-.88.07-.65-1.64.63-.94,1.24-1.88,1.88-2.82.29-.42.58-.94,1.15-.28.22,1.24-.95,1.78-1.39,2.68C103.52,104.34,102.87,104.86,102.86,105.71Z"/><path class="cls-1" d="M8.64,36.33l-.54.72c-.45-.09-1.12.28-1.28-.43a1.15,1.15,0,0,1,.49-.94C8,35.29,8.35,35.79,8.64,36.33Z"/></g></g></svg>