<svg xmlns="http://www.w3.org/2000/svg" viewBox="0 0 120.09 145.47"><defs><style>.cls-1{fill:#fefefe;}.cls-2{fill:#282627;}.cls-3{fill:#272626;}.cls-4{fill:#2f2c2d;}.cls-5{fill:#343434;}.cls-6{fill:#f5f3f4;}.cls-7{fill:#f3f2f2;}.cls-8{fill:#b0b0b0;}.cls-9{fill:#575455;}.cls-10{fill:#9b9b9b;}.cls-11{fill:#a7a6a6;}.cls-12{fill:#0b0b0b;}.cls-13{fill:#f0f0f0;}.cls-14{fill:#171717;}.cls-15{fill:#545152;}.cls-16{fill:#333;}.cls-17{fill:#383636;}.cls-18{fill:#adadad;}.cls-19{fill:#b5b5b5;}.cls-20{fill:#a09f9f;}.cls-21{fill:#4d4d4d;}.cls-22{fill:#636363;}.cls-23{fill:#bbb;}.cls-24{fill:#b8b8b8;}.cls-25{fill:#acacac;}.cls-26{fill:#a1a1a1;}.cls-27{fill:#979797;}.cls-28{fill:#acabab;}.cls-29{fill:#868686;}.cls-30{fill:#b1b1b1;}.cls-31{fill:#121212;}.cls-32{fill:#a8a8a8;}.cls-33{fill:#bcbcbc;}.cls-34{fill:#5d5d5d;}.cls-35{fill:#656565;}.cls-36{fill:#b9b9b9;}.cls-37{fill:#ccc;}.cls-38{fill:#4c4c4c;}.cls-39{fill:#7a7a7a;}.cls-40{fill:#393939;}.cls-41{fill:#666;}</style></defs><g id="Layer_2" data-name="Layer 2"><g id="Layer_1-2" data-name="Layer 1"><path class="cls-1" d="M64.59,142.35c-.91,1.68-2.62.67-3.92,1.09-6.05,1.95-12.38.62-18.58,1.29a30.55,30.55,0,0,1-9.05-.4c-5-1-10-.65-15.06-.75-2.27,0-4.43,0-5.92-2.22-.54-.79-1.52-.63-2.37,0-2.06,1.54-4.41,1-6.62.57a2.38,2.38,0,0,1-1.71-3.17,6.91,6.91,0,0,0,0-3.47,3.2,3.2,0,0,1,.31-2.58c1.45-2.25,1.71-4.46-.33-6.56a1.63,1.63,0,0,1-.44-1c0-4-1.11-8-.82-11.91.51-7.06.1-14.1.3-21.14.09-3.19,0-6.39,0-9.58s-.6-6.07.3-9.21C1.34,71,.64,68.47.41,66c-.47-5,.62-9.91.41-14.88A1.8,1.8,0,0,1,1,50.08c1.68-2.14,1.59-4.65,1.56-7.14a3.55,3.55,0,0,0-.3-1.49C.77,38.53,1.06,36,3.38,33.75c1.89-1.8,3.35-4.12,6.37-4.53,1.27-.18,1.68-1.93,2.63-2.87,7.18-7.09,14-14.53,21.45-21.38a7.7,7.7,0,0,1,5.78-2.36c1.33.1,3.13-.73,3.86-.27,2.3,1.46,3.23-.15,5-1A9.57,9.57,0,0,1,55,1.18a4.17,4.17,0,0,0,3-.08c2.25-.9,4.6.25,7-.17,3-.52,6.19.12,9.3-.48C75.44.23,76.75.83,78,.81,84.87.73,91.74.29,98.62,0s11.21.93,13,7.62a21.21,21.21,0,0,1,0,9.28c-.5,2.63.55,5.12.39,7.72-.06.93,1.21.91,2,1.13,2.38.72,3.17,2.48,1.85,4.6a8.86,8.86,0,0,1-2.54,3c-2.13,1.28-2.08,3.45-2.65,5.35-.25.83-.07,1.81-.76,2.49s0,1.1.31,1.48c.63.74.79-.14,1.12-.43.68-.58,1.21-1.84,2.34-1s.35,1.77-.09,2.61c-.58,1.12-1.19,2.22-1.83,3.31a12.81,12.81,0,0,0-1.7,9.34c.16.78,0,1.64.13,2.44.24,1.35.38,2.69,2.29,3,1.34.25,1.73,1.51.6,2.51a8.16,8.16,0,0,0-2.63,8.76c.09.32.08.88-.11,1-1.55,1.22-1,2.87-1.14,4.44-.54,4.41.57,8.8-.28,13.23-.52,2.64.57,5.42.4,8.18-.07,1,.54,2,1.55.76.86-1.08,2.23-.25,3.12-1.37s2.76-1.66,2.75-3.69a1.15,1.15,0,0,1,1.6-.79,1.59,1.59,0,0,1,1.12,1.51c0,.28-.27.58-.24.85.2,1.5-2.51,3.2.55,4.66.89.43,0,2.57-.48,3.73s-1.93.54-2.89.39c-.35.44-.12.6.13.79.54.43,1.64.46,1.47,1.42s-1,1.21-1.88,1.27c-1.44.09-1.81,1.59-2.36,2.36-1.45,2-4.42,2.61-5,5.42-.13.58-.49,1.1,0,1.62a3.32,3.32,0,0,1,.53,2.55c-.14,3.84.07,7.68-.31,11.54-.24,2.51.34,5.14.34,7.74,0,2.08-.9,3.46-2.89,3.93-3.37.79-6.58,1.35-8.73-2.08,1.79-1.36,4-.83,6-1.16,2.56-.42,3-.62,2.64-3.18-.42-3.34.16-6.62.45-9.91a24.44,24.44,0,0,0-.18-5.73,61.16,61.16,0,0,1-.14-6.64c0-11-.76-21.9-.46-32.86.1-3.63.55-7.23.57-10.86A110.05,110.05,0,0,0,107.31,59a129.12,129.12,0,0,1,.55-14.58,124.2,124.2,0,0,0,.49-13.92,8.28,8.28,0,0,1-.21-2c0-.53,0-1.06,0-1.6a129.15,129.15,0,0,1-.06-15.74,10.59,10.59,0,0,0-.35-3.53,5.75,5.75,0,0,0-5.09-4.6,20.49,20.49,0,0,0-3.32-.2c-6.6.06-13.16,1.1-19.75.82-7.12-.3-14.22.19-21.33.12A100.24,100.24,0,0,0,44.29,4.92,30.86,30.86,0,0,0,38.2,6.14a5.77,5.77,0,0,0-2.62,1.57c-4.93,5.05-10,10-14.92,15a125.29,125.29,0,0,1-12.27,11,11.45,11.45,0,0,0-4.72,9.81C4,61.45,3,79.35,3.22,97.25q.13,10.81,0,21.63c0,2.76.63,5.46.47,8.22-.28,3.23.34,6.41.49,9.61a3.15,3.15,0,0,0,1,2.38c5.73.81,11.49,1.21,17.26,1.59,10.82.71,21.65.29,32.48.46,2.58,0,5.16.47,7.76.43A2.09,2.09,0,0,1,64.59,142.35Z"/><path class="cls-2" d="M64.59,142.35c-11.47-.8-23-.14-34.45-.59q-12.67-.51-25.28-1.86a1.84,1.84,0,0,1-.56-.28c0-.11.11-.22.16-.34A2.34,2.34,0,0,1,6,138.13a29.71,29.71,0,0,1,8,.26,298.31,298.31,0,0,0,36.24,1.33c14.26-.19,28.49.63,42.74.92,3.13.07,6.21-.54,9.33-.5,1.62,0,2.22-.9,2.2-2.42a20.12,20.12,0,0,1,.61-6.18c.77-3.35.19-6.75.35-10.13.06-1.1,0-2.21.07-3.31.09-.89.23-1.82,1.49-1.75a137.1,137.1,0,0,1,.11,13.75c-.19,3.32-.63,6.64-.14,10,.24,1.56-.34,2.26-2.06,2.25-2.44,0-4.87.3-7.31.47Z"/><path class="cls-2" d="M3,127.06c-.68-12.84-.58-25.7-.55-38.54,0-14.57.39-29.13.38-43.69A14.5,14.5,0,0,1,9,32.27C17,26.31,23.64,19,30.52,11.9a35.45,35.45,0,0,0,2.63-2.72c2.78-3.62,6.74-4.46,10.93-4.82.05,1.18-1.24,1-1.7,1.66a3.73,3.73,0,0,1-2.79.59c-1.06-.36-1.25.74-1.87,1.12-2.36,1.36-3.94,3.55-5.74,5.49-7,7.53-14.18,14.94-22.34,21.29A8.28,8.28,0,0,0,6.4,38.25a70.21,70.21,0,0,1,9.13-1.2,106.77,106.77,0,0,1,12-.13,3.44,3.44,0,0,1,1.48.45c1.17.65,2.55.63,3.77,1.12a.78.78,0,0,1,.36.58c-.12,1-.9,1-1.63,1.13-1.14.11-2.2-.44-3.33-.37a51.86,51.86,0,0,0-11.07-.31,7.24,7.24,0,0,0-3.07.22,57.38,57.38,0,0,1-6.41.58,2.18,2.18,0,0,0-2.44,2.29c-.07,1-.2,1.92-.18,2.89.33,20-.84,39.92-.38,59.88.18,7.93.36,15.86.38,23.79a13.16,13.16,0,0,1-.16,2.88c-.13.51-.36,1-1,.9s-.5-.62-.54-1C3.15,130.29,3.52,128.65,3,127.06Z"/><path class="cls-3" d="M42.29,5.72c0-1.24,1.47-.55,1.79-1.36A115.24,115.24,0,0,1,59.59,3c12.77-.36,25.56.23,38.32-.83a21.91,21.91,0,0,1,3.34,0c5,.28,7.33,2.54,7.42,7.57.11,5.78,0,11.57,0,17.36a1.15,1.15,0,0,1-1.56,0c-.94-.95-.82-2.18-.82-3.35,0-4.53,0-9.07,0-13.6-.06-4.31-1.32-5.65-5.66-5.52-13.29.41-26.58.26-39.87.53-5.24.1-10.55,0-15.75,1.13-.41,0-.82,0-1.23,0A1.89,1.89,0,0,1,42.29,5.72Z"/><path class="cls-4" d="M107,116.35c-1,.45-.91,1.39-.91,2.26,0,3.61,0,7.21,0,10.82,0,.71.22,1.48-.39,2.09a2.55,2.55,0,0,1-.72-2c0-.74,0-1.48,0-2.22.34-13.27-.71-26.53-.46-39.8.09-4.66.13-9.33.47-14,.08-1,0-2.11,1.09-2.77,1.62-.19,1.09.9,1,1.72-.37,9.83-.86,19.66-.39,29.51C106.88,106.74,107.39,111.53,107,116.35Z"/><path class="cls-5" d="M107,72.44c-.1-.68.06-1.51-1-1.58a1.48,1.48,0,0,1-.46-1.21c.44-5.9.06-11.81.35-17.71.36-7.45,1-14.9.7-22.38a2.56,2.56,0,0,1,.79-2.41h1.25l.06,1.35a1.78,1.78,0,0,0-.38,1.81c.12.49.26-.23.47-.15.62,3.1-.1,6.18-.13,9.27-.08,6.79-1.08,13.52-.69,20.36C108.24,64,107.4,68.21,107,72.44Z"/><path class="cls-2" d="M3,127.06c1.1,1.71-.1,3.74.83,5.77.89-1.28.29-2.56.57-3.67a.63.63,0,0,1,.65.32,6.44,6.44,0,0,1,.07,4.16A4.14,4.14,0,0,0,4.69,137a3,3,0,0,1-.25,2.5l-.14.14A43.91,43.91,0,0,1,3,127.06Z"/><path class="cls-1" d="M116.3,103.06c-.06.52-.25,1.17-.7.92-.78-.44-1.78-.82-1.91-1.93,0-.37-.18-1.09.46-1A3.07,3.07,0,0,1,116.3,103.06Z"/><path class="cls-3" d="M108.82,30.15c-.23.67.14,1.45-.83,2.61.11-1.82-.92-3.15.74-4.27Z"/><path class="cls-1" d="M113.15,107.33c-.09.43-.29.89-.84.78s-.71-.7-.79-1.2.15-.76.62-.62S113.15,106.62,113.15,107.33Z"/><path class="cls-1" d="M4.8,133.75l0-4.33a1.81,1.81,0,0,1-.16-.86c.21-15.36-1-30.71-.37-46,.5-12,.18-24,.37-36,0-2.49.77-3.42,2.78-3.61a1.34,1.34,0,0,1,.73,1.25C9,42.46,9.76,40.87,11.47,40c1.36-.67,2.72-1.36,3.58.66.13,1.18-.84,1.88-1.2,2.69,1.28-1.1,1.11-3.38,3-4.24a35.89,35.89,0,0,1,11.61.11c1.16.26,1.47.74.67,1.81-.95,1.29-2.07,2.42-3.22,3.87A47.89,47.89,0,0,0,29.14,41a2.3,2.3,0,0,1,2.42-1.16,3.26,3.26,0,0,1,.93.08c1,.61.78,1.25.13,2-1.36,1.54-2.54,3.24-3.9,4.79,1.51-1.62,2.72-3.48,4.21-5.12.58-.63,1.12-1.2,2.07-1a8.17,8.17,0,0,1,1.21.4,1.86,1.86,0,0,1,.93.84c.28,1-.6,1.41-1.11,2-1,1.14-2.3,2.06-2.89,3.22,1.48-1.57,2.68-3.83,5.18-4.69,1,.28,1.69,0,1.64-1.21,0-.65,0-1.29-.05-1.94a21.93,21.93,0,0,1,.15-4c2.49-2.79,5.37-5.16,8-7.77-1.88,1.82-3.89,3.5-5.71,5.39-.48.51-1,1.31-1.81,1S40,32.65,40,32a2.35,2.35,0,0,1,.52-1.47,43.61,43.61,0,0,0,5.07-5.19A5.76,5.76,0,0,1,46,24.9a11.31,11.31,0,0,1,1.34-1.34,3.14,3.14,0,0,0,.33-.24c-.24-.07-.38.23-.63.17A2,2,0,0,1,45.16,22c0-1.05,1-1.41,1.47-2.09a58.53,58.53,0,0,0-4.09,4.71c-.45.46-.89,1.12-1.62.67-.55-.34-.46-1-.5-1.6-.09-1.16.76-1.63,1.53-2.18,1.25-2.13,3.28-3.54,5.23-5.76-2.07,2.24-4,3.82-5.49,5.92a2.08,2.08,0,0,1-.95-3.23c.29-.46.87-.52,1.19-.92,1-1.41,2.35-2.56,3.2-3.68-.89,1-2.09,2.23-3.15,3.56-.53.58-1.07.69-1.64.06a2.15,2.15,0,0,1-.26-.58,3.24,3.24,0,0,1,1.27-3.3c1.7-1.52,3.25-3.19,4.85-4.82C44.8,10.14,43.36,11.5,42,13c-1.1,1.18-1.81,1.13-2.23-.5a1.87,1.87,0,0,1,.06-.94,50.54,50.54,0,0,1,4.73-5.7c9.91-1.68,19.93-1.39,29.91-1.33,8.16,0,16.3-.42,24.45-.6,6.91-.14,8.49,1.27,8.15,8.23-.21,4.3-.25,8.6,0,12.9,0,.72-.13,1.5.39,2.14-.06,4.17-.08,8.35-.19,12.52-.1,3.64-.21,7.28-.47,10.91-.4,5.73-.48,11.46-.44,17.2a29.37,29.37,0,0,1-.28,3.08c-.81,3.4-.52,6.9-.81,10.35-.31,3.66-.14,7.35-.15,11,0,10.88,1,21.73.64,32.61-.07,2.22,0,4.45,0,6.67a20.87,20.87,0,0,0-.42,6.86c.31,1.75-.19,2.26-2,2.4a240.63,240.63,0,0,1-25.62.14q-18.27-.61-36.54-.56a260.48,260.48,0,0,1-29.81-1.52c-2-.22-4-.24-6-.35A5.51,5.51,0,0,1,4.8,133.75Z"/><path class="cls-2" d="M4.8,133.75l.55,4.74c-.09.54-.22,1-.91,1-.17-1.35-.38-2.7-.49-4C3.89,134.75,3.73,133.91,4.8,133.75Z"/><path class="cls-1" d="M28.92,37.81c-6.09-1.17-12.14-.28-18.2.3-1.69.16-3.37.44-5.29.7A6.33,6.33,0,0,1,8.12,35c10.23-7.88,19-17.28,27.69-26.75.48-.53.85-1.88,2-.69,1.37,1.76,1.32,3.92,1.5,5.94a115.29,115.29,0,0,1,.5,15.33c-.67,3.85-.16,7.77-.66,11.63-.86,1.26-1.74.27-2.62,0-1.1-.77-2.52-.93-3.57-1.81h0C31.62,38.37,30.24,38.24,28.92,37.81Z"/><path class="cls-6" d="M14.67,41c-.68-2.43-1.94-1.24-3.13-.5-.85-.47-1.16,1-2,.58-.26,0-.67-.26-.75-.06-.2.49.52.51.61.9C9,42.63,9,43.59,7.89,43.65c-1.23-.64-2.79.5-3,2.26a13.22,13.22,0,0,0,0,1.78c0,10.26.33,20.53-.11,30.77-.38,8.69-.55,17.38-.2,26,.34,8.32.16,16.62.25,24.93l-.33-.26c-.11-6.75-.19-13.5-.33-20.24-.46-21.89.53-43.78.34-65.66,0-.81.22-1.62.26-2.43s.54-1.24,1.45-1.17c2.83.23,5.61-.34,8.42-.54.52-.09,1.29-.46,1.36.32A1.33,1.33,0,0,1,14.67,41Z"/><path class="cls-3" d="M39.21,28.92A130,130,0,0,0,37.8,7.6c.2-1.48.23-1.51,1.4-1.32a5.24,5.24,0,0,1,1,2.91,6.93,6.93,0,0,1-.1,2.36l0,.88c.76,1.44-.17,3,.41,4.49a1,1,0,0,0,0,.42c.38,3.58.27,7.18.42,10.77A1.33,1.33,0,0,1,39.21,28.92Z"/><path class="cls-7" d="M39.63,9.3l-.43-3,3.09-.56,1.33,0c-.09,1.32-2,4.21-3,4.47S40,9.61,39.63,9.3Z"/><path class="cls-8" d="M31.62,40.05c-2.36.05-2.7,2.43-4.1,3.59-.76.62-1.12,1.69-2.38,2.28.58-2.21,2.37-3.26,3.45-4.8.57-.81.81-1.31-.15-1.87,1.09-.27,2,.57,3.07.45.17,0,.24.1.22.19S31.66,40.05,31.62,40.05Z"/><path class="cls-9" d="M31.62,40.05a2,2,0,0,0-.11-.35c.66-.07,1.38-.05,1.44-1A5.87,5.87,0,0,1,36.52,40c.33.63,0,1-.47,1.42a.86.86,0,0,1-1-.33c-.8-.54-1.89-.24-2.65-.9Z"/><path class="cls-10" d="M14.67,41a2.17,2.17,0,0,0,1-1.58c0-.09-.72-.22-1.11-.34a2,2,0,0,1,2.25,0L13.5,44.87C13.21,42.94,14.43,42.16,14.67,41Z"/><path class="cls-9" d="M28.92,37.81a7.54,7.54,0,0,1,4,.91A6.15,6.15,0,0,1,28.92,37.81Z"/><path class="cls-11" d="M39.63,9.3c.4.09.46,1.19,1.11.42,1-1.25,2.43-2.27,2.88-4a.87.87,0,0,1,.94,0,18.55,18.55,0,0,1-4.48,5.74A3.34,3.34,0,0,1,39.63,9.3Z"/><path d="M19.94,86.5l3.18,5.75c.77.74,1.22,2,2.59,1.85,1.08,2.35,2.17,4.71,3.26,7.06,1.61,2.09,1.88,4.74,2.94,7.06.47,1.92,1.25,3.74,1.77,5.64-.43-1.6-1-3.16-1.51-4.74a7.13,7.13,0,0,0-.38-1.27c-.75-2.55-2.05-4.93-2.4-7.61l-3.18-7.93c.35-1.17,1.06-.53,1.61-.27s.54.87,1,1.14c2,2.06,1.73,5.13,3.35,7.49.56-1.24-.57-2.09-.46-3.38,2.7,4.26,3.31,9,5.11,13.48a205.44,205.44,0,0,1,11.85-17A203.49,203.49,0,0,1,69.23,72.14C73.73,68,78.36,63.93,83,59.86A59,59,0,0,1,91.8,54c3.75-2.27,6.44-5.83,10.12-8.18.39-.07.62-.67,1.13-.32.36,1.24-.62,1.79-1.26,2.53a13.56,13.56,0,0,0-1.52,1.86c-9.1,8.76-19,16.66-28,25.55S54.88,93.61,48.05,104.3c-1.88,1.1-2.44,3.17-3.56,4.84-1.23,2.7-2.93,5.19-3.55,8.16-.21,1.35-1.27,2.39-1.36,3.78-.49.91-.67,2-1.11,2.89-.7,1.4-1,2.93-1.58,4.37-.29.75-.43,1.79-1.39,1.82s-1.09-1.06-1.32-1.78c-1.52-4.78-3-9.59-4.51-14.37a27.26,27.26,0,0,0-1.1-2.89c-.85-3-2.16-5.9-3.18-8.87-1.21-3-2.9-5.9-3.56-9.15a26,26,0,0,0-2.31-5.71C19.27,86.91,19.19,86.51,19.94,86.5Z"/><path class="cls-12" d="M38.29,123.29a4.52,4.52,0,0,1,.87-2c.54-.08.74.12.54.65L35.36,135c-.9-2.78-1.62-4.93-2.28-7.09-2.89-9.41-6.14-18.71-9.6-27.93-.2-.44,0-.6.43-.67a10.71,10.71,0,0,1,1.87,3.55c1.24,2.85,2.17,5.81,3.31,8.7,2.09,6.32,4,12.7,6.2,19.54C36.93,128.33,37.32,125.69,38.29,123.29Z"/><path class="cls-13" d="M46.26,25.39l-.17,0c-1.64,1-2.62,2.63-4,3.9-.31.29-.58.76-1.08.53s-.36-.71-.38-1.16a4.54,4.54,0,0,1,1.84-4.18c1-.89,1.41-2.37,2.92-2.69a2.16,2.16,0,0,0,1.82,1.38C47.27,24.05,46.43,24.58,46.26,25.39Z"/><path class="cls-14" d="M39.7,121.92l-.54-.65c-.61-1.67,1.28-2.5,1.32-4,.79-3,2.85-5.49,3.62-8.51.89-1.52,1.82-3,2.67-4.58.54-1,.87-.24,1.28.07A104,104,0,0,0,39.7,121.92Z"/><path class="cls-15" d="M39.21,28.92l1.22-.47a3.81,3.81,0,0,1,.43,2.17c-.48.4-.21,1-.34,1.44-.69.89.15,1.79,0,2.68,0,1.63,0,3.27,0,4.9-.88-.81-.88-.81-.49-2.22-.61.72-.36,1.53-.35,2.31s.06,1.32-.69,1.66c0,0-.15,0-.2-.07a.42.42,0,0,1-.07-.38C39,36.94,38.41,32.9,39.21,28.92Z"/><path class="cls-11" d="M40.86,30.62a3.88,3.88,0,0,1-.43-2.17c0-3.7,0-7.4.07-11.11a.83.83,0,0,0,1.1,0,.43.43,0,0,1,.71,0c-1.54.89-1.53,2.32-1.31,3.8.07.49.39.23.63.13a.55.55,0,0,1,.74.1A3,3,0,0,0,41.12,25c.66-.05.81-.63,1.17-.95.42-.08.63,0,.49.5-1.43,1.33-2.35,2.84-1.63,5.1,1.09-1.16,2.09-2.3,3.2-3.33.46-.43.74-1.43,1.74-.93A20.88,20.88,0,0,1,40.86,30.62Z"/><path class="cls-16" d="M28.82,93.18c-1,0-1.38-1.65-2.61-.87a17.15,17.15,0,0,1-2.29-5.57l1.41,1.6-.5-2.6C26.36,88.16,28,90.46,28.82,93.18Z"/><path class="cls-17" d="M38.71,40.94c.95-.21.37-1,.48-1.44.16-.74-.32-1.62.54-2.23.73.66-.08,1.79.78,2.37.06.51.15,1,.17,1.54.11,2.53-.11,2.66-2.37,1.53-.51-.19-1.09-.27-1.4-.81l-.86-.49L36.52,40Z"/><path class="cls-18" d="M40.52,34.74c-.35-.89-.73-1.79,0-2.68l.26,1.63,7.91-7.3C48.47,27.82,43.14,33.24,40.52,34.74Z"/><path class="cls-19" d="M25.42,102.92l-1.5-3.47c-1.2-1.8-2.49-3.56-2.6-5.84l.51-.51c1.64,2.84,2.65,6,4,8.94C26,102.47,26.26,103,25.42,102.92Z"/><path class="cls-11" d="M40.47,16.92a12.83,12.83,0,0,1-.41-4.49l.77,1.25,6.36-6.43.44.39c-1.74,1.79-3.4,3.67-5.24,5.35C41.17,14.09,40.33,15.23,40.47,16.92Z"/><path class="cls-20" d="M32.41,40.18a4.11,4.11,0,0,1,2.65.9c-1.63-.31-2.13,1.07-2.88,2C31,44.58,30,46.31,27.93,47.65c1-2.41,2.78-3.73,4-5.45C32.31,41.63,33.38,41.12,32.41,40.18Z"/><path class="cls-21" d="M103,45.46l-1,.31,4-4.37c-.3,1.8-.77,3.39-2.12,4.47C103.49,45.86,103.27,45.56,103,45.46Z"/><path class="cls-22" d="M25.71,94.1c-2.25,1.32-2.09-.72-2.59-1.85.92-1-.8-1.78-.05-3.33A28.42,28.42,0,0,0,25.71,94.1Z"/><path class="cls-23" d="M29.39,100.24A42.29,42.29,0,0,1,32,107.87c.21.47,0,.51-.39.4L29,101.16Z"/><path class="cls-24" d="M42.46,38.09a17.7,17.7,0,0,1,5.66-6.28C46.15,33.83,44.63,36.25,42.46,38.09Z"/><path class="cls-25" d="M48.51,36.23l-6.69,6A28.53,28.53,0,0,1,48.51,36.23Z"/><path class="cls-26" d="M42.37,21.38l-.74-.1c1.51-2.67,4.22-4.18,6-6.54l.43.4Z"/><path class="cls-8" d="M42.78,24.53l-.49-.5A18.94,18.94,0,0,1,47.88,19L45.4,21.77Z"/><path class="cls-27" d="M36.91,41.9l1.4.81c-2.55,1.14-3.82,3.61-6,5.95a8.22,8.22,0,0,1,2.42-4.11C35.51,43.71,36.74,43.23,36.91,41.9Z"/><path class="cls-28" d="M24.93,39.94a17.53,17.53,0,0,1-4.66,5.93q2.09-3.1,4.18-6.19Z"/><path class="cls-29" d="M42.31,17.35l-.71,0a23.3,23.3,0,0,1,4.93-5.13A18,18,0,0,1,42.31,17.35Z"/><path class="cls-30" d="M20.33,40.81a22.59,22.59,0,0,1-3.58,5.13C17.07,44,18.1,42.46,20.33,40.81Z"/><path class="cls-31" d="M103,45.46c.63-.57.65.16.89.41-1.27,1.25-1.48,3.45-3.57,4a2.46,2.46,0,0,1,1.33-2.31A2.78,2.78,0,0,0,103,45.46Z"/><path class="cls-5" d="M21.32,93.61l2.6,5.84-.44.51-2.71-5.78c-.15-.47.05-.61.49-.53Z"/><path class="cls-32" d="M9.77,41c.63,0,.85-1.49,1.77-.5-1.74,1.1-2.43,3-3.67,4.66-.64-.59,0-1.07,0-1.55l1.27-1.8A.66.66,0,0,1,9.77,41Z"/><path class="cls-33" d="M45.88,44.34a11.25,11.25,0,0,1-3.4,3.49C43.14,46.45,43.78,45.07,45.88,44.34Z"/><path class="cls-18" d="M46.26,25.39c-.28-1,.63-1.5,1-2.24.62-.2.65-1.16,1.66-1.13C48.39,23.53,47.16,24.34,46.26,25.39Z"/><path class="cls-34" d="M19.94,86.5c-.45.15-.27.6-.42.89l-1.56-3A2.94,2.94,0,0,1,19.94,86.5Z"/><path class="cls-35" d="M21.26,93.65l-.49.53-1.31-2.77c-.11-.44.05-.56.46-.4Z"/><path class="cls-36" d="M19.92,91l-.46.4a7.75,7.75,0,0,1-1.23-3.13A5.13,5.13,0,0,1,19.92,91Z"/><path class="cls-37" d="M17.33,82c-1.13-.62-1.42-1.35-1.94-2.68A3.48,3.48,0,0,1,17.33,82Z"/><path class="cls-1" d="M9.77,41l-.61.81c-.51-.1-1.27.32-1.44-.48a1.26,1.26,0,0,1,.55-1.07C9,39.86,9.44,40.43,9.77,41Z"/><path class="cls-38" d="M38.29,123.29c-.36,2.87-1.64,5.41-2.58,8.08l-.64.06Q32,121.5,28.9,111.57a.39.39,0,0,1,.13-.67c2.08,4.67,3.21,9.66,4.82,14.48.5,1.52,1,3,1.56,4.81C36.8,127.87,36.87,125.29,38.29,123.29Z"/><path class="cls-39" d="M29,110.9c0,.23-.09.45-.13.67l-3.48-8.65.4-.88A62.07,62.07,0,0,1,29,110.9Z"/><path class="cls-40" d="M44.1,108.81c.67.47.12.92-.07,1.32-1.17,2.4-2.36,4.79-3.55,7.19C40.85,114.13,42.86,111.63,44.1,108.81Z"/><path class="cls-39" d="M33,103.5a15.29,15.29,0,0,1,2,5.87C33.11,107.48,33.12,105.45,33,103.5Z"/><path class="cls-41" d="M31.65,108.27l.39-.4a17.09,17.09,0,0,1,1.65,6.23A17.62,17.62,0,0,1,31.65,108.27Z"/></g></g></svg>