<svg xmlns="http://www.w3.org/2000/svg" viewBox="0 0 157.59 200.32"><defs><style>.cls-1{fill:#444142;}.cls-2{fill:#444041;}.cls-3{fill:#433f40;}.cls-4{fill:#443f41;}.cls-5{fill:#454142;}.cls-6{fill:#494546;}.cls-7{fill:#494647;}.cls-8{fill:#464344;}.cls-9{fill:#484546;}.cls-10{fill:#464243;}.cls-11{fill:#474344;}.cls-12{fill:#4a4748;}.cls-13{fill:#696667;}.cls-14{fill:#4c4849;}.cls-15{fill:#504c4d;}.cls-16{fill:#524f50;}.cls-17{fill:#6b6869;}.cls-18{fill:#656364;}.cls-19{fill:#555354;}.cls-20{fill:#6a6869;}.cls-21{fill:#646263;}.cls-22{fill:#696768;}.cls-23{fill:#6d6a6b;}.cls-24{fill:#615e5f;}.cls-25{fill:#6c696a;}.cls-26{fill:#545253;}.cls-27{fill:#585657;}.cls-28{fill:#3d3a3b;}.cls-29{fill:#6b696a;}.cls-30{fill:#676566;}.cls-31{fill:#6b6969;}.cls-32{fill:#f4f4f4;}.cls-33{fill:#6d6b6c;}.cls-34{fill:#595657;}.cls-35{fill:#5e5c5d;}.cls-36{fill:#6e6b6c;}.cls-37{fill:#4d4a4b;}.cls-38{fill:#5a5859;}.cls-39{fill:#595858;}.cls-40{fill:#5e5b5c;}.cls-41{fill:#d6d5d5;}.cls-42{fill:#939192;}.cls-43{fill:#555253;}.cls-44{fill:#504f4f;}.cls-45{fill:#bcbbbc;}.cls-46{fill:#f5f5f5;}.cls-47{fill:#423f40;}.cls-48{fill:#3d3b3b;}.cls-49{fill:#f3f3f3;}.cls-50{fill:#514f4f;}.cls-51{fill:#575556;}.cls-52{fill:#565455;}.cls-53{fill:#656263;}.cls-54{fill:#f2f2f2;}.cls-55{fill:#545152;}.cls-56{fill:#ebebeb;}.cls-57{fill:#5c5a5b;}.cls-58{fill:#5b595a;}.cls-59{fill:#5f5d5e;}.cls-60{fill:#636263;}.cls-61{fill:#3b393a;}.cls-62{fill:#3d393a;}.cls-63{fill:#706e6f;}.cls-64{fill:#dcd9da;}.cls-65{fill:#bfbdbe;}.cls-66{fill:#ececec;}.cls-67{fill:#565354;}.cls-68{fill:#f0f0f0;}.cls-69{fill:#e2e1e1;}.cls-70{fill:#686667;}.cls-71{fill:#676667;}.cls-72{fill:#545051;}.cls-73{fill:#666364;}.cls-74{fill:#575455;}.cls-75{fill:#3c393a;}.cls-76{fill:#474345;}.cls-77{fill:#5b5859;}.cls-78{fill:#dbd9da;}.cls-79{fill:#cac9c9;}.cls-80{fill:#a7a4a5;}.cls-81{fill:#5a5758;}.cls-82{fill:#413f3f;}.cls-83{fill:#4e4b4c;}.cls-84{fill:#c2c0c1;}.cls-85{fill:#595758;}.cls-86{fill:#605e5f;}.cls-87{fill:#615f60;}.cls-88{fill:#f0efef;}.cls-89{fill:#efefef;}.cls-90{fill:#6d6b6b;}.cls-91{fill:#6c6a6b;}.cls-92{fill:#626061;}.cls-93{fill:#514f50;}.cls-94{fill:#828081;}.cls-95{fill:#575555;}.cls-96{fill:#6e6c6d;}.cls-97{fill:#5d5b5b;}.cls-98{fill:#f1f1f1;}.cls-99{fill:#cbcaca;}.cls-100{fill:#454143;}.cls-101{fill:#dad9d9;}.cls-102{fill:#6a6969;}.cls-103{fill:#e6e6e6;}.cls-104{fill:#d6d5d6;}.cls-105{fill:#666465;}.cls-106{fill:#403d3e;}.cls-107{fill:#747273;}</style></defs><g id="Layer_2" data-name="Layer 2"><g id="Layer_1-2" data-name="Layer 1"><path class="cls-1" d="M86.78,27.26c5.09-5,11.3-6,18-5.22a3.69,3.69,0,0,1,1.07.19c4,1.83,7.19.19,10.32-2.08a12.73,12.73,0,0,1,1.6-.83c1.17.46.94,1.16.34,1.92a3.45,3.45,0,0,1-1.06,1,49.89,49.89,0,0,0-9.72,7.25,17.24,17.24,0,0,1-4.48,3.07c-2.74,1.17-3.28,3.49-3.52,6a7.69,7.69,0,0,1-.26,2.33c-.36.58-.75,1.13-1.53,1.16a.84.84,0,0,1-.53-.68c-.22-2.9-.54-5.81.21-8.67.52-2,2.24-2.95,3.76-4s3.09-1.87,4.77-2.91c-4.82-.75-9.31-.41-13.54,1.84a5.89,5.89,0,0,1-1.53.58,3.13,3.13,0,0,0-1.16.39C88,29.69,87.14,29.25,86.78,27.26Z"/><path class="cls-2" d="M105.8,193.67c.79,0,1.57-.14,2.35-.14a217.15,217.15,0,0,0,22.09-.68,6.56,6.56,0,0,1,1.08.05c1.59.71,2.55,2.12,3.65,3.36a.67.67,0,0,1,0,1c-9.94,1-19.91.83-29.88.72a1.77,1.77,0,0,0-.69-.14c-.75-.1-1.9.41-2.18-.27-.39-.94.78-1.48,1.34-2.14A6.14,6.14,0,0,1,105.8,193.67Z"/><path class="cls-2" d="M137.13,50.74c3.16,7.15.51,16.88-5.76,21.17a4.5,4.5,0,0,1-3.87-3.71,5.65,5.65,0,0,1,2.26-1.76,12.11,12.11,0,0,0,4.52-4.87c1.62-3.08.84-6-.44-8.91-.42-.95-.87-.55-1.29.05-1.14,1.64-2.1,3.41-3.24,5-.37.53-.65,1.29-1.49,1.1s-1-.89-1.09-1.55c-.47-2.32-.6-4.58,1.47-6.33,2-1.4,4.29-1.76,6.66-2.24,2.75-.55,5.39-.18,8.07-.19,1.12,0,2.28-.06,3.42,0a3.49,3.49,0,0,1,1.73,1.09c-.19,1-1,.48-1.44.49-2.7.05-5.4,0-8.1.05C138.07,50.22,137.27,49.71,137.13,50.74Z"/><path class="cls-3" d="M130.7,72.28a13.75,13.75,0,0,1-6.24,2.91,2.92,2.92,0,0,0-1.91,1,4.24,4.24,0,0,1-1.7.18c-1.22.23-2.64-.63-3.65.68-1,1.76-1.42,3.75-2.47,5.47-.4.32-.8.54-1.15,0-.34-1.49.58-2.65,1.08-3.91.8-2,.81-2-1.27-2.4-.53-.1-1.07-.16-1.6-.25a5.73,5.73,0,0,1-1-.29,5,5,0,0,1-1.14-.55c-.79-.86-2.28-.28-3-1.4.07-1,.93-1.48,1.51-2.13a8.53,8.53,0,0,0,1.92-2.34,1.29,1.29,0,0,1,.49-.26,5.79,5.79,0,0,1,2.51.33,21.5,21.5,0,0,0,11.14-.51,7.28,7.28,0,0,1,2.3-.49A26.3,26.3,0,0,1,130.7,72.28Z"/><path class="cls-2" d="M35.48,182.68c-6.58-6.22-13.65-11.87-20.49-17.8-.15-.29,0-.47.21-.65a4.87,4.87,0,0,0,2.09-2.1,1,1,0,0,1,.61-.4c1.09,0,1.54,1.43,2.74,1.17.73.26.55,1.1,1,1.55a11.84,11.84,0,0,0,2,1.77,2.72,2.72,0,0,1,1.55,1.48,8.21,8.21,0,0,0,1.66,1.21c.38.27.55.72.88,1s.88.81,1.34,1.2.82.72,1.24,1.05c.85.65,1.55,1.46,2.35,2.16.42.36.83.74,1.26,1.09A7.08,7.08,0,0,1,35.47,177a11.79,11.79,0,0,0,2.41,2.05,1.64,1.64,0,0,1,.7,1.07,1.6,1.6,0,0,1-.39,1C37.33,181.71,37,183.18,35.48,182.68Z"/><path class="cls-3" d="M40.68,157.5a9.46,9.46,0,0,1,3.91,7.16c.09,1.39.79,2.69.73,4.12a10.57,10.57,0,0,1-.11,4.48c-.42.09-.52-.23-.66-.51-.23-.72,0-1.52-.35-2.23-.71-2.1-1-4.38-2.76-6-.38-.34-.6-.81-1-1.14A10.26,10.26,0,0,0,36,161.13c-1.28-.48-2.66-.62-4-1a7.45,7.45,0,0,0-2.82-.19c-.78,0-1.56,0-2.34,0H26c-1.29.06-2.65-.25-3.83.59a.68.68,0,0,1-.89-.24c-.26-.31-.61-.52-.88-.82a.72.72,0,0,1,0-.48,1.48,1.48,0,0,1,.39-.32,13,13,0,0,0,2.8-2.48c.57-.51,1-1.17,1.87-1.31,3.53.28,7.1-.28,10.6.7A18.2,18.2,0,0,1,40.68,157.5Z"/><path class="cls-2" d="M66.48,195.06a159.74,159.74,0,0,0,21.1.09c.49,0,1.17-.29,1.35.5s-.37.94-.92,1.1c-9,2.56-18.07,4.23-27.47,3.32a4.15,4.15,0,0,1-.68-.22c0-1.78,1.75-2.31,2.61-3.47A3.44,3.44,0,0,1,66.48,195.06Z"/><path class="cls-4" d="M3.37,145.88a11.82,11.82,0,0,0,9.09,8.46c1.76.77,2.82,2.34,4.1,3.64.47.48.61,1.06-.24,1.38-.22.09-.09-.15-.19,0s-.18.14,0,.13.52-.25.8-.35a.75.75,0,0,1,.73.19,2.13,2.13,0,0,1-.08,1.89c-.94,1.22-1.62,2.73-3.43,2.93a88.2,88.2,0,0,1-8.69-8.27c-.92-1-.81-2.24-1.28-3.33-1.17-2.75-2.86-5.34-3.11-8.43-.09-.78.38-.54.75-.39C2.8,144.15,3,145.08,3.37,145.88Z"/><path class="cls-5" d="M24.85,45.62l23.64-.4a23,23,0,0,1,4-.13c1.14,0,1,.55.57,1.24a4.6,4.6,0,0,1-4.12,2.17c-7.17.24-14.34.49-21.51.06C26.34,47.77,24.94,47.27,24.85,45.62Z"/><path class="cls-2" d="M56.49,199.19a5.1,5.1,0,0,1-.88-.19c-4.82-2-9.5-4.13-12.68-8.57a55.33,55.33,0,0,0-6.37-6.71c-.56-1.59.9-1.92,1.66-2.69.84-.25,1.35.3,1.88.78,1.41,1.28,2.92,2.44,4.28,3.78a10,10,0,0,1,.89.95c3.46,3.6,7,7.07,10.56,10.62a4.06,4.06,0,0,1,1.11,1.4C57.06,198.92,57.1,199.31,56.49,199.19Z"/><path class="cls-5" d="M86.78,27.26a11.58,11.58,0,0,0,.74,1c.53.61,1.06,1.25,1.67,0,.28-.57.89-.51,1.43-.44a3.69,3.69,0,0,1-2.69,2.59c-1.56-1.43-2.21-1.32-2.82.75a34.8,34.8,0,0,0-1.44,4.69c.82-1.88.82-1.88,2-1.61a1.86,1.86,0,0,1,0,1.07C84.26,40,85.22,44.4,87,48.74a5,5,0,0,1,.58,1.89,1,1,0,0,1-.54.91c-2-1.69-2.23-4.18-3.06-6.4-.17-.44-.14-1-.35-1.42-.1.55.23,1,.28,1.45.15,1.48-.39,2.15-1.87,2.3a25.26,25.26,0,0,1-10-.65c-1.73-.53-3.57-.37-5.64-.49,1.1,1.43,2.83,1.09,3.77,2.15a.65.65,0,0,1,0,.53,1.38,1.38,0,0,1-1.28.44c-.4,0-.81,0-.69-.63-.51-.84-1.36-.64-2.11-.64-3.62,0-7.24,0-10.86.06a14.76,14.76,0,0,1-3.94,0c1.24-2,2.59-3.43,5-3.33a68.26,68.26,0,0,1,18.1,1.24c2.8.57,5.54-.33,8.32,0,.86.12.39-.66.32-1.05a25.36,25.36,0,0,1,.58-12.77C84.19,30.41,85,28.5,86.78,27.26Z"/><path class="cls-5" d="M.39,128.27c-.09-8.58-.48-17.16-.25-25.75,1.39-.53,1.59.68,2.09,1.45.14,7.2.26,14.41.43,21.62.07,2.72.24,5.44.37,8.16a3.24,3.24,0,0,1-1.43,3.77c-.3.23-.62.47-1,.37s-.36-.58-.36-.93C.34,134.06.08,131.16.39,128.27Z"/><path class="cls-6" d="M152.85,140.78v21.51c-1.23-.36-.9-1.42-.92-2.24-.07-3.45,0-6.91-.12-10.37a2.67,2.67,0,0,0-.21,1.25c.06,6.13-.28,12.24-.65,18.35a3.27,3.27,0,0,0,1.27,2.81,19,19,0,0,0-.11-4,11.88,11.88,0,0,1-.15-3.26c.07-.59-.09-1.42.92-1.47.5,6.85.74,13.69-.93,20.44-.39,1.57,0,3.13-.14,4.69-.21.56-.49,1-1.2.75a27.72,27.72,0,0,1,.22-6c.26-1.6-.39-3.33-.56-5a92.78,92.78,0,0,1-.06-14.91c.5-8.79.44-17.59.58-26.39,0-.72.11-1.44.17-2.16.77.63.61,1.53.62,2.35.05,2.77,0,5.53.13,8.31a22.24,22.24,0,0,0,.23-3.05C152,141.78,151.84,140.94,152.85,140.78Z"/><path class="cls-5" d="M74.63,73.4A22,22,0,0,1,71.13,69c-.29-.85,0-1.28.91-1.35.8.28.62,1.24,1.17,1.69.81.93,1.55,1.93,2.28,2.92a6.14,6.14,0,0,0,1.11,1.27c.88,1,1.55,1,2-.38a1.45,1.45,0,0,1,.82-1.1c.43,0,.89,0,1.19-.43A15.15,15.15,0,0,0,84.84,67a1.08,1.08,0,0,1,1,.26,2.1,2.1,0,0,1,.57.84c.51,1.21,1.71,1.79,2.5,2.75a1.58,1.58,0,0,1,.12.52c-1.06,2.53-1.75,5.22-3.29,7.54-.74-.14-.71-.75-.79-1.29,0-1.44.72-2.73,1-4.18-2.09.79-2.08,2.88-3,4.32a.51.51,0,0,1-.65-.23c-.22-.28-.28-1-.43-.88-.47.33-1.51.06-1.37,1.11-.17.56-.53.61-1,.37l-2.58,1.35c-.78-1.26.18-2.17.47-3.18A16.13,16.13,0,0,0,74.63,73.4Z"/><path class="cls-6" d="M2.74,48.23c2.79,8.82,2.43,17.83,1.58,26.86-.59,6.34-1.34,12.66-1.73,19A.41.41,0,0,1,2,94a5.28,5.28,0,0,1-.27-3c.48-5.43,1.06-10.84,1.59-16.26a47,47,0,0,0,.24-8A71.09,71.09,0,0,1,3,77.81c-.49,4.63-1,9.26-1.26,13.91a39.53,39.53,0,0,0-.33,5.44,1,1,0,0,1-.61,1C0,98,.28,97.46.39,97,.51,90.11,1.48,83.32,2.05,76.5c.76-9.08,1.18-18.14-.89-27.13C.32,45.75.35,45.73,4.1,45.69c2.79,0,5.57,0,8.36,0,.31.43.11.69-.31.87-2.78,0-5.57-.08-8.35,0-2,.08-2.29.49-1.82,2.36.4,1.63.68,3.29,1.08,4.93-.24-1.49-.64-3-.92-4.43C2,48.88,1.71,48.21,2.74,48.23Z"/><path class="cls-7" d="M79.46,78.11c.43,0,.76-.18.81-.66,1.06-.45,1.31.68,2,1l.58.43a15,15,0,0,0,2,1.42c.48.28.69.86,1.22,1.08.94.56,1.83,1.2,2.76,1.78a5.33,5.33,0,0,0,.87.41c1,.32,1.77,1.32,3,1.23.71-.29.55-1,.71-1.52.56-2,.43-4.16,2-5.75.75-.07.94.43,1.06,1a26.06,26.06,0,0,1-1,5c-.09.47-.24.94-.32,1.41a1.13,1.13,0,0,0,.65,1.35c.67.28.83-.24,1.05-.67a1.09,1.09,0,0,1,.78-.69c.65.22.64.78.67,1.32-.14,1.33.89,1.41,1.75,1.54s.94-.7,1.15-1.3c.29-.81.09-1.86,1.12-2.31a.94.94,0,0,1,.86.52A3.77,3.77,0,0,1,103,87c-.27,1.16.19,1.69,1.31,1.82.78.09,1.56,0,2.34.11a2.83,2.83,0,0,1,1.26.4,2.2,2.2,0,0,1,.41.33c.28.34.6.66.42,1.16-6.25.39-12-1.45-17.41-4.31A55.64,55.64,0,0,1,79.46,78.11Z"/><path class="cls-8" d="M151.4,92.29c-.05-8.26,0-16.53.36-24.78a5.68,5.68,0,0,1,.66-1.08,1,1,0,0,1,1-.37c.44.13.34.58.34.91-.07,6.77.16,13.54-.12,20.3l-.12,7.18C152,94.48,151.79,93.31,151.4,92.29Z"/><path class="cls-2" d="M139,196.88l-1.39.08a2.54,2.54,0,0,1-3-1,29.88,29.88,0,0,0-2.16-2.2c-.64-.66-.45-1,.38-1.2,3.72-.47,7.44-1,11.16-1.39a6.17,6.17,0,0,1,3.4.29c.22.73-.35,1.09-.72,1.55C144.66,195.5,142.39,197.34,139,196.88Z"/><path class="cls-9" d="M152.85,140.78c-.8,1.42-.27,3-.35,4.43-.06,1-.32,1.62-1.55,1.85V134.83c0-8.6,0-17.19.37-25.78,1.35.37,1,1.51.92,2.36-.43,6.06-.24,12.11-.32,18.17,0,.27,0,.55,0,.39.16-6.71.5-13.85.41-21,0-.7-.05-1.5.86-1.79a1.68,1.68,0,0,1,.11,1.6q-.13,12.56-.26,25.1C153,136.18,152.89,138.48,152.85,140.78Z"/><path class="cls-5" d="M152.87,163.38c-.79,1.36-.43,2.82-.26,4.22s.2,3,.23,4.53c0,1.07-.53,1-1.09.49a3.52,3.52,0,0,1-1.39-3.69,11.47,11.47,0,0,0,.28-3.24c0-5.21.63-10.4.36-15.61-.05-1,.35-1.61,1.46-2.3v2.43c0,3.4,0,6.8,0,10.19,0,.64-.22,1.35.37,1.89Z"/><path class="cls-10" d="M140.83,1.13a26.62,26.62,0,0,1,13.59,11.7,6.65,6.65,0,0,1,1.32,3.27c-.87.53-1.35-.18-1.83-.65q-6.37-6.31-12.69-12.69c-.42-.43-1.11-.83-.7-1.65,0,0,.09,0,.14,0A1.15,1.15,0,0,1,140.83,1.13Z"/><path class="cls-2" d="M51.37,191.83c1.85,1.55,4.18,1.7,6.39,2.13,1.89.36,3.82.55,5.74.81.33.35.17.66-.09.94-1.16,1.22-2.35,2.4-3.56,3.56a1.6,1.6,0,0,1-1.83.23h0c-2.51-2.22-4.77-4.69-7.15-7.05a.63.63,0,0,1-.19-.64A.46.46,0,0,1,51.37,191.83Z"/><path class="cls-5" d="M150.6,189.26l1.2-.75c.21,1.92.46,3.83.61,5.75.11,1.4-.66,2.4-2,2.08-2.15-.51-4.16.18-6.24.26-.56.19-1.2,0-.67-.56,1.46-1.53,2.64-3.39,4.69-4.28C150,192,150.35,191.64,150.6,189.26Z"/><path class="cls-5" d="M26.32,48.59,19,48.51a61.45,61.45,0,0,0-6.51-.15c-.41,0-1,.17-1.15-.3A1,1,0,0,1,12,46.85c.58-.35,1-.93,1.61-1.18l10.2-.05a2.48,2.48,0,0,1,.29.37,5.42,5.42,0,0,0,2.08,1.95C26.33,48.12,26.47,48.32,26.32,48.59Z"/><path class="cls-5" d="M99.54,197.69l-2.12-.06c-2-.29-3.58-1.06-4-3.26a58.46,58.46,0,0,1,11.67-.73C104,196.07,101.48,197.92,99.54,197.69Z"/><path class="cls-11" d="M153.09,107.24a1.74,1.74,0,0,0-.26,1.22c.25,7.39-.34,14.78-.36,22.17,0,.43,0,.85,0,1.28s-.06.65-.45.64-.52-.3-.57-.61a6.64,6.64,0,0,1-.06-1.09c0-6,0-12,.09-18,0-1.29.71-2.58-.14-3.83l.05-1.08a2.13,2.13,0,0,1,1.18-1.42C153.07,106.33,153.11,106.38,153.09,107.24Z"/><path class="cls-12" d="M151.73,66.78c-.11-4.86.11-9.7.41-14.54.11-1.88-.39-2.56-2.24-2.18a4,4,0,0,1-1.08-.07.35.35,0,0,1,.06-.48,1.81,1.81,0,0,1,1-.35c2.21-.26,2.6.05,2.9,2.51a29.31,29.31,0,0,1-.22-3.45,1.47,1.47,0,0,0-1.65-1.68c-1.81,0-3.61,0-5.42,0-.44-.18-.62-.45-.31-.89,2,0,4.11.07,6.16-.08,1.61-.11,2.19.57,2.2,2q0,6.44.08,12.87a21.11,21.11,0,0,1,.1,4.13A2.26,2.26,0,0,1,151.73,66.78Z"/><path class="cls-10" d="M2.74,48.23c-.54,1.75.5,3.28.78,4.91.15.84.29,1.52-.7,2.16-.56-2.75-1.12-5.4-1.63-8.06-.07-.39-.24-1,.55-1.08a77.06,77.06,0,0,1,10.08,0c.1,0,.19.14.28.22-.87,2-1.22,2.2-4.1,1.89Z"/><path class="cls-13" d="M145.57,34.35,142,38.07c-.83.17-1,1.06-1.62,1.47a.87.87,0,0,0-.27,1l-.59.76-.25,0a90.33,90.33,0,0,0-6.57,6.41c-1,1-2.26,1.8-3.21,2.89a.52.52,0,0,1-.79.08c0-1.9,1.13-3.19,2.4-4.4.82,0,1.25-.65,1.76-1.16,1-1,2-2.13,3.1-3.06a3.11,3.11,0,0,0,1.28-3.39c1-.42,1.26.31,1.61.85a4.19,4.19,0,0,1,1.36-1.74c2.77-2.8,5.57-5.57,8.35-8.37.89-.9,2.22-1.63,1.55-3.28a4.59,4.59,0,0,1,2.64.32c.56.58.09,1-.27,1.39-1.66,1.66-3.13,3.54-5.14,4.83C146.69,33.21,145.88,33.51,145.57,34.35Z"/><path class="cls-14" d="M108.71,90.79l-.66-1.1a2.19,2.19,0,0,1,2-.79,2.58,2.58,0,0,0,2-.91c.68-.52.89.51,1.44.43a6.24,6.24,0,0,0,2-.64c.49-.38.31-1,.44-1.46a1.09,1.09,0,0,1,.36-.65c.43-.07.6.21.74.53s0,.76.58.73a4,4,0,0,0,2.4-2.52,5.18,5.18,0,0,1,1.23-2.35.85.85,0,0,1,.84.13c.4,0,.4-.32.53-.54.14-.38.25-.76.38-1.14s.24-1,1-1c-.08,3.6-1.26,6.58-4.58,8.43A20.77,20.77,0,0,1,108.71,90.79Z"/><path class="cls-10" d="M157.51,22.32c-.09,2.05.58,4.14-.81,6.11A4.15,4.15,0,0,1,154.89,30c-2.24.89-4.52,1.7-6.78,2.54-.26-.86.55-1.1.94-1.55,1.38-1.56,3.09-2.82,4.26-4.58a2.64,2.64,0,0,1,2.23,0,19.21,19.21,0,0,1,.62-3.3C156.46,22.63,156.8,22.18,157.51,22.32Z"/><path class="cls-11" d="M151.32,105.71q0-6.17.08-12.31c1.13.11,1.52,1.09,2.11,1.82a86.73,86.73,0,0,1-.28,10.57,2.17,2.17,0,0,1-.56.68c-.39.3-.69,1-1.25.7S151.18,106.22,151.32,105.71Z"/><path class="cls-12" d="M45.68,174.31c.24,2.53.42,5.08.72,7.6a16.6,16.6,0,0,0,3.3,8.36.37.37,0,0,1,0,.5,15.82,15.82,0,0,1-5.07-4.9c-.86-2.53-.68-5.14-.55-7.75.41-1.08.18-2.26.56-3.34C44.89,174.4,45.18,174.12,45.68,174.31Z"/><path class="cls-8" d="M128.4,9.17c1.36-2.29,2.69-4.6,4.08-6.86A3.62,3.62,0,0,1,134.6.43c1.1-.26,2.71-.63,3.16.12.59,1-1,1.68-1.63,2.47s-1.53,1.51-2.26,2.31c-1.45,1.35-2.77,2.83-4.26,4.13C129.28,9.75,128.42,10.83,128.4,9.17Z"/><path class="cls-10" d="M14,154.58l.67.07c2.52.39,5,.06,7.57.17.4,0,1-.17,1.17.25s-.15.92-.49,1.27a22.21,22.21,0,0,1-2.47,2.38c-1.62,1.07-2.29,1-3.61-.28-1-1-2-1.93-2.91-3C13.7,155.25,13,154.79,14,154.58Z"/><path class="cls-2" d="M138.34,42.81l-2,3.24c2.68,0,5.2-.66,7.74-.38a.58.58,0,0,1,.14.49,2.07,2.07,0,0,1-.38.72,2.46,2.46,0,0,1-2,.7,29.6,29.6,0,0,0-5.07.46,2,2,0,0,1-2.33-1c-.54-1,.09-1.61.75-2.18.91-.79,1.52-1.9,2.71-2.36A.51.51,0,0,1,138.34,42.81Z"/><path class="cls-15" d="M.39,128.27v9.56c1.6-1.19,2.86-2.15,2.64-4.08a58.1,58.1,0,0,1,.26,9.6c0,.84,0,1.69.08,2.53-.84-.46-.85-2-2.26-1.72C-.6,138.93.1,133.59.39,128.27Z"/><path class="cls-16" d="M72.25,67.89c-.74,0-1,.46-1.12,1.14a21,21,0,0,1-3.67-7.21c-.06-.38-.34-.85.39-.87a.14.14,0,0,1,.07.2c1.09.23.14-.87.66-1-.06-2.41,1.28-4.51,1.49-6.86.17-.2.26-.5.61-.43a1,1,0,0,1,.5.92A23.15,23.15,0,0,1,70,58.72c-1.19,3.39.07,6,2.29,8.41A.63.63,0,0,1,72.25,67.89Z"/><path class="cls-17" d="M140.83,1.13c-.43.57.19.75.43,1q6.54,6.59,13.12,13.15c.38.38.73.83,1.36.82a2.91,2.91,0,0,1,1.06,2.19c-1.72-.12-2.21-1.93-3.55-2.57a82,82,0,0,0-7.2-7.12c-1.58-2.16-3.7-3.82-5.5-5.78-.52-.56-1.25-1-1.3-1.89l.17-.2A1.84,1.84,0,0,1,140.83,1.13Z"/><path class="cls-18" d="M128.4,9.17c.29,1.11.69.22.91,0,1.41-1.32,2.79-2.68,4.17-4,.48-.17.54.17.62.5a1.31,1.31,0,0,1-.12.47c-.15.28-.34.55-.51.82-.48.64-.81,1.42-1.62,1.75-1.68,1-2.69,2.71-4.27,3.79-1.57,1.59-3,3.39-5,4.48a.69.69,0,0,1-.8-.49A35.11,35.11,0,0,0,128.4,9.17Z"/><path class="cls-13" d="M151.73,66.78a3.28,3.28,0,0,0,1.81-3.6,18.83,18.83,0,0,1,.08-2.7,24.92,24.92,0,0,1,.23,5.59c0,6.72,0,13.43,0,20.15a5.52,5.52,0,0,1-.19,1q0-9.4-.07-18.81c0-.67,0-1.33,0-2.08-.87,0-1.14.9-1.78,1.13Z"/><path class="cls-19" d="M153.4,15.41c1.47.56,2.13,2.09,3.4,2.88a7.87,7.87,0,0,1,.71,4l-1,.71c-.23-.08-.48-.2-.54-.43a38.58,38.58,0,0,0-2.6-6.67A.75.75,0,0,1,153.4,15.41Z"/><path class="cls-20" d="M44.93,186.35l4.72,4.4a2,2,0,0,1,1.06,1.07q3,3.09,6,6.19c.45.47.85,1,1.27,1.49-.53,0-1.08.11-1.53-.31.54-.85-.38-1-.71-1.37-3.18-3.24-6.41-6.44-9.61-9.66a4.13,4.13,0,0,1-1.27-1.51q-.15-.12-.09-.21T44.93,186.35Z"/><path class="cls-10" d="M40.68,157.5c-1.88-.43-3.48-1.79-5.47-1.79s-3.55-1.05-5.51-.43c-1.43.45-3-.52-4.48-.27a.28.28,0,0,1-.39.07.29.29,0,0,1,0-.4c3.93-.21,7.86-.42,11.7.68A8.33,8.33,0,0,1,40.68,157.5Z"/><path class="cls-7" d="M2.31,100.76l0,2.48c-2.18-1-2.68-2.52-1.59-4.94a2.42,2.42,0,0,0,.68-.56c.2-.21.43-.45.75-.34s.33.58.32.9A8.83,8.83,0,0,1,2.31,100.76Z"/><path class="cls-21" d="M24.87,154.68a1.71,1.71,0,0,1,0,.32,28.22,28.22,0,0,1-4,4,2,2,0,0,0-.34,0,.52.52,0,0,1-.44-.43l3.4-3.59c-2.43,0-4.5,0-6.56,0-.76,0-1.59.25-2.26-.36Z"/><path class="cls-22" d="M144.1,46l0-.32,1.11,0a.72.72,0,0,0,.37.71,7.63,7.63,0,0,1,3.29,3.29,2,2,0,0,1,0,.35c-3.2.67-6.45.38-9.68.43-.67,0-1.44-.41-2,.32.23-.73.23-.75,1-.75,2.95,0,5.9,0,8.84,0,.26,0,.75.32.79-.31C146.43,48.53,144.78,47.74,144.1,46Z"/><path class="cls-23" d="M56.22,44.93a6.1,6.1,0,0,0-4.53,3c1.16.47,2.38-.07,3.51.27a27.5,27.5,0,0,1-6.28.26c1.9-.21,2.95-1.6,4.49-3.28H48.49A42.52,42.52,0,0,1,56.22,44.93Z"/><path class="cls-24" d="M133.94,5.92a1,1,0,0,0-.46-.78L138,.43H134.6c1.66-.81,3.25-.34,4.82.3a.94.94,0,0,0-.19.14c-1.49,1.79-3.29,3.27-4.81,5A.51.51,0,0,1,133.94,5.92Z"/><path class="cls-17" d="M8,48.24c1.65,0,3.26-.13,4.1-1.89a.7.7,0,0,0,.36-.69h1.11L11.49,48c2.58.59,5.13-.21,7.54.55A79.65,79.65,0,0,1,8,48.24Z"/><path class="cls-25" d="M148.16,191.76c-1.41,1.35-2.82,2.71-4.24,4.05-.47.44-.33.66.22.79a19.06,19.06,0,0,1-5.17.28c.05,0,.1-.11.14-.11,4.09.34,5.91-2.86,8.23-5.27Z"/><path class="cls-20" d="M20.07,158.61l.44.43v.27a2.07,2.07,0,0,1-2.89.07h-.75c-.42.28-.71.21-.8-.32,1-.28.28-.66,0-.93-1.2-1.28-2.43-2.52-3.64-3.78a2.18,2.18,0,0,1,1.52.24C14.62,157.13,18.06,159.4,20.07,158.61Z"/><path class="cls-26" d="M121.82,16.46l.74.35c.1,1.49-1.26,1.83-2,2.62-1.6.9-1.64.89-2.31-.41Z"/><path class="cls-14" d="M93.69,197.33c-1.77-.18-2-.53-1.44-2.63,1.63-.12,2.13,1.31,3,2.23C95.49,197.27,95.16,197.46,93.69,197.33Z"/><path class="cls-20" d="M58,199.5a2.77,2.77,0,0,0,2.6-1.33c.94-1.15,2.41-1.85,2.88-3.4a7.7,7.7,0,0,1,3,.29c-2.19-.34-3.29,1.28-4.56,2.57-.71.72-1.38,1.48-2.06,2.22C59.22,199.87,58.55,200,58,199.5Z"/><path class="cls-17" d="M99.54,197.69c2.82,0,3.87-2.45,5.53-4.05l.73,0-3.42,3.7c.85.63,1.94-.09,2.69.59A21.36,21.36,0,0,1,99.54,197.69Z"/><path class="cls-27" d="M122.52,75.91a1.85,1.85,0,0,1,1.94-.72c-1.95.42-.51,1.8-.76,2.69a1.82,1.82,0,0,1,0,1.26c-.49.51-.53,1.26-1,1.79a.53.53,0,0,1-.48.12,1.13,1.13,0,0,1-.49-.92C122,78.72,122.19,77.3,122.52,75.91Z"/><path class="cls-28" d="M153.2,26.66c-.41,1.57-1.92,2.23-2.84,3.38-.7.89-1.75,1.47-2.25,2.54l-.63.37c-.4.13-.51-.07-.46-.43a71.27,71.27,0,0,0,5.81-5.85A.32.32,0,0,1,153.2,26.66Z"/><path class="cls-13" d="M132.78,192.6c-.11.26-.69.44-.46.66,1.61,1.43,2.55,3.84,5.26,3.7a5.48,5.48,0,0,1-2.63.28c-.7-1.87-2.71-2.65-3.63-4.34C131.73,192.44,132.26,192.53,132.78,192.6Z"/><path class="cls-29" d="M93.69,197.33l1.41-.19c-.91-1-1.52-2.12-2.85-2.44.26-.53.74-.34,1.15-.33a8,8,0,0,0,4,3.26A11.43,11.43,0,0,1,93.69,197.33Z"/><path class="cls-13" d="M14.19,164.19a13.32,13.32,0,0,0,3-3c.57-.08.83.16.72.74l-.38.32a6.86,6.86,0,0,1-2.22,2.23l-.35.41Z"/><path class="cls-20" d="M2.31,100.76l-.15-3c-.67-.13-.84.63-1.36.71-.11-.08-.15-.16-.12-.25s.07-.12.1-.12l.37-.69c.52-1,.4-2.28,1.12-3.25l.32,0A39.92,39.92,0,0,1,2.31,100.76Z"/><path class="cls-29" d="M.78,98.08l0,.37c-.82,2.46-.6,3.17,1.47,4.79l0,.73c-.81-.33-1.1-1.4-2.09-1.45A22,22,0,0,1,.39,97C.55,97.33.38,97.8.78,98.08Z"/><path class="cls-30" d="M23.81,46c0-.11,0-.22,0-.34h1.08l2.56,2.94c-.36.07-.72.27-1.09,0L26,48.17A6.18,6.18,0,0,1,23.81,46Z"/><path class="cls-31" d="M130.7,72.28A20.42,20.42,0,0,1,127,68.6c0-.64.33-.55.73-.36a7.78,7.78,0,0,0,3.69,3.67A.61.61,0,0,1,130.7,72.28Z"/><path class="cls-32" d="M70.45,52.93l-.38.35c.13-.51-.25-1,.09-1.57.8-1.37.84-2.43-1.27-2.11a.2.2,0,0,1,.11-.31l1.06-.42c1.25-.54,1.45.25,1.53,1.19a14.64,14.64,0,0,1-.37,1.72A2,2,0,0,1,70.45,52.93Z"/><path class="cls-33" d="M151.32,105.71l.2,1.23c.8-.06,1-1,1.71-1.15a4.64,4.64,0,0,1,0,3c-.05-.52-.11-1-.16-1.54,0-.31,0-.64-.41-.34s-.87.71-1.31,1.07A2.91,2.91,0,0,1,151.32,105.71Z"/><path class="cls-34" d="M45.68,174.31l-.76.37a1,1,0,0,1,0-1.45c.85-1.42.09-3,.43-4.45C45.87,170.59,45.63,172.46,45.68,174.31Z"/><path class="cls-35" d="M118.2,19c.71,1.3,1.44.44,2.17,0a.54.54,0,0,1,.47.58c-.75,1-1.55,1.88-3,1.27.64-.53.34-1,0-1.56Z"/><path class="cls-36" d="M38.36,181.25c-.8.68-1.87,1.16-1.8,2.47l-1.08-1c1.2-.09,1.55-1.36,2.51-1.8C38.34,180.78,38.44,180.93,38.36,181.25Z"/><path class="cls-20" d="M69,49.29c0,.1-.08.21-.11.31-.81,0-1.08.94-2,1.11-.1-1,.56-1.46,1.23-1.89C68.34,49.17,68.67,49.23,69,49.29Z"/><path class="cls-37" d="M74.63,73.4a4.78,4.78,0,0,1,2.72,2.88A17.26,17.26,0,0,1,74.63,73.4Z"/><path class="cls-29" d="M153.51,95.22,151.4,93.4V92.29a10.45,10.45,0,0,0,2.09,2.16Z"/><path class="cls-38" d="M140.07,39.43c.59-.5.73-1.63,1.88-1.36l-1.45,1.84A.53.53,0,0,1,140.07,39.43Z"/><path class="cls-39" d="M147,32.52l.46.43-1.91,1.4C145.48,33.28,146.43,33,147,32.52Z"/><path class="cls-40" d="M67.85,61l-.39.87a4.87,4.87,0,0,1-.73-2.29c-.11-.38,0-.48.4-.39Z"/><path class="cls-41" d="M66.33,58.06c-.48-.6-.24-1.25-.23-2a1.16,1.16,0,0,1,.63,1.29C66.51,57.56,66.74,58,66.33,58.06Z"/><path class="cls-42" d="M66.33,58.06l.4-.67c.14.58.27,1.16.4,1.75l-.4.39C66.32,59.12,66.43,58.56,66.33,58.06Z"/><path class="cls-34" d="M123.23,79.21c.5-.32.43-.84.47-1.33a2.28,2.28,0,0,1,.3,1.67l-.61,1.09C122.9,80.21,123.15,79.7,123.23,79.21Z"/><path class="cls-43" d="M50.71,191.82a2.39,2.39,0,0,1-1.06-1.07l.05-.48,1.67,1.56Z"/><path class="cls-44" d="M140.07,39.43l.43.48-.44.61C138.88,40.15,139.58,39.79,140.07,39.43Z"/><path class="cls-2" d="M139.47,41.28a4.08,4.08,0,0,1-1.13,1.53l-.12-.12c-.34-1,.27-1.24,1-1.39A.25.25,0,0,0,139.47,41.28Z"/><path class="cls-40" d="M68.58,60.14c0,.45.21,1-.19,1.29-.23.21-.38-.06-.47-.28C68.46,61,68.26,60.41,68.58,60.14Z"/><path class="cls-45" d="M66.3,51.6c.29-.07.41,0,.38.25a.68.68,0,0,1-.26.41c-.25.14-.31-.1-.3-.26A1.22,1.22,0,0,1,66.3,51.6Z"/><path class="cls-46" d="M117.85,20.88a5.33,5.33,0,0,0,3-1.46c.16-.74.86-1,1.35-1.39,1.8-1.45,3.59-2.89,4.58-5.07.16-.35.54-.48.85-.66,1.94-.63,2.68-2.6,4.15-3.75l1.38-1.93c.56-.08.65.34.79.72A23.46,23.46,0,0,0,137.67,20,10.68,10.68,0,0,1,139,23.19a20.44,20.44,0,0,1,.07,3.91,11.7,11.7,0,0,1-1.17,3.18A17.16,17.16,0,0,1,135,34.81a9.06,9.06,0,0,0-.84.91,19.89,19.89,0,0,1-3,3.7c-3.47,3.44-6.8,7-11,9.65A20.05,20.05,0,0,1,112.57,52c-2.62.33-4.86-.67-7-1.91a34.16,34.16,0,0,1-4.45-3.51c-1.6-1.54-2.88-3.21-2.26-5.64a31.71,31.71,0,0,1,.25-3.78c.39-2.19,1.11-4.09,3.56-5,2-.74,3.67-2.32,5.29-3.78a45,45,0,0,1,8.9-6.54C117.21,21.6,117.72,21.44,117.85,20.88Z"/><path class="cls-46" d="M127.68,68.24l-.73.36a27,27,0,0,1-16.77.69,2.11,2.11,0,0,1-1,0C100.07,66.1,92.54,61,87.7,52.41c-.37-.52-.18-1.18-.47-1.72A35.65,35.65,0,0,1,84.68,43a18.66,18.66,0,0,1,.8-9,4.47,4.47,0,0,1,2.44-3.74l2.7-2.42c5.09-3,10.57-3.34,16.64-2.39a25.84,25.84,0,0,1-3.41,2.13c-5.79,2.44-7.48,6.89-6.44,12.74.1.6.2,1.19.31,1.78.9,1,.65,2.28.93,3.42,2.19,9.06,8.12,14.55,16.67,17.56a4.94,4.94,0,0,0,1.57.28,13.1,13.1,0,0,0,3.75-.3,6,6,0,0,0,1.42-.55,5.72,5.72,0,0,0,2.32-1.68A19.34,19.34,0,0,0,125,57.9c0-.36,0-.71,0-1.07.1-.93.39-1.82.48-2.75a9,9,0,0,0,.32-1.92c.74-3.85,2.4-7.37,3.91-10.94a3.92,3.92,0,0,1,1.57-1.95c1.41-.05.77,1,.9,1.65a16.15,16.15,0,0,0-.35,2.77c0,.28,0,.56,0,.84a3.41,3.41,0,0,1-.28,1.67l-.2.2a17.61,17.61,0,0,0-2.65,4.3.38.38,0,0,1-.27.44c-1.95,2-1.64,4.28-1.08,6.64.08.35.19.77.58.83s.57-.39.75-.68c1.49-2.36,3-4.72,4.46-7.11A10.18,10.18,0,0,1,132.47,65,21.56,21.56,0,0,1,127.68,68.24Z"/><path class="cls-2" d="M115.28,63.49c-4.29-.82-7.56-3.38-10.61-6.29a21.27,21.27,0,0,1-7-15.11,2.67,2.67,0,0,1,1.09-1.19c.4,2.05.84,4.07,2.62,5.46a1.85,1.85,0,0,1,.35.91c1.55,3.15,4.18,5.23,7,7.11.37.19.66.49,1,.71,1.29,1.49,2.1.12,3-.5a.78.78,0,0,1,.57.74,1.51,1.51,0,0,0,1.35,2c.29.09.59.15.88.23,3,.89,3.44,2.67,1.27,4.78A3.76,3.76,0,0,1,115.28,63.49Z"/><path class="cls-47" d="M128.42,51.14l.27-.44c3.29-2.67,6-6,9.11-8.81.35-.32.56-1.41,1.45-.59a1.83,1.83,0,0,0-1,1.39c-1.52.53-2.29,1.92-3.36,3a1,1,0,0,0-.05,1.35c.32.47.91.89,1.38.73,2.14-.73,4.35-.56,6.55-.65a1.13,1.13,0,0,0,1-.71,3.83,3.83,0,0,1,2.55,2.55,41.27,41.27,0,0,1-8.89-.22c-.29,0-.69-.11-.86,0-1,.87-2.2.67-3.38.75-1.41.09-2.88.16-3.76,1.62C129.3,51.25,128.77,52.19,128.42,51.14Z"/><path class="cls-48" d="M146.27,48.91a11,11,0,0,0-2.55-2.55l.38-.37a22.91,22.91,0,0,1,3.65,3.65C147.11,49.7,146.77,49.13,146.27,48.91Z"/><path class="cls-32" d="M106.89,89.38a3.21,3.21,0,0,1-.53.07c-4.39,0-4.41-.08-3.45-4.27a2.34,2.34,0,0,0,0-.53c-.19-1.78.88-3.2,1.4-4.77A27.15,27.15,0,0,1,106,76.27c1.21-2.38,1.31-2.42,3.86-1.47l1,.38a1.33,1.33,0,0,1,.1,1.53,70.61,70.61,0,0,0-3.67,12.07A1.66,1.66,0,0,1,106.89,89.38Z"/><path class="cls-32" d="M112.42,87.94a1.39,1.39,0,0,1-1.57,1.47c-.93,0-1.87.18-2.8.28h0a1.67,1.67,0,0,1-.54-1.65,46.38,46.38,0,0,1,3.85-12.26c.05-.1.17-.17.26-.25.72.08,1.45.15,2.16.26,2.5.38,2.5.38,1.42,2.75a13.5,13.5,0,0,0-1.44,3.84C113.53,84.28,113.49,86.24,112.42,87.94Z"/><path class="cls-49" d="M116.42,85.75l-.1.58c-.36.59.19,1.38-.41,1.92l-2.46.79c-1-.11-.64-1-.59-1.39.27-1.81.46-3.68,1.66-5.2a30,30,0,0,1,2.27-5.36c.18-.41.1-1,.8-1a6.63,6.63,0,0,1,2.31.12c.31.12.29.54.16.8C118.71,79.87,118,83,116.42,85.75Z"/><path class="cls-49" d="M122.52,75.91c.81,1.5-.29,2.85-.34,4.28-.32.6.14,1.47-.65,1.92a10.72,10.72,0,0,0-.92,2.09,4.42,4.42,0,0,1-3.13,3.38c-.85,0-.44-.67-.56-1a8.4,8.4,0,0,1,1-4.21c.91-2.16,1.52-4.47,3-6.39Z"/><path class="cls-50" d="M109.81,74.8c-2-.92-2.85.07-3.52,1.82-1,2.71-2.24,5.36-3.37,8l-.72-.37a1,1,0,0,1-.23-1.17c1.06-3.33,2.17-6.64,4.4-9.43a.45.45,0,0,1,.53,0C107.81,74.2,109.07,73.83,109.81,74.8Z"/><path class="cls-51" d="M111.64,75.53c-1.19,3.87-2.88,7.6-3.46,11.65a5.2,5.2,0,0,0-.11,2.51l-1.18-.31c.36-4.32,1.9-8.31,3.37-12.33.22-.62.4-1.25.6-1.87Z"/><path class="cls-51" d="M120.83,75.93c-1,2.63-2,5.26-3,7.91-.31.84-.51,1.72-.76,2.59,0,.18-.15.2-.29.09l-.35-.77c.58-3.33,2.2-6.29,3.45-9.59-1.24.1-2.46-.56-3.08.93-.14-.81.14-1.26,1-1.24Z"/><path class="cls-52" d="M114.52,82.45c-.43,1.62-.9,3.22-1.27,4.85-.13.56-.67,1.27.2,1.74-1.29.53-.4-1-1-1.1.26-1.9.35-3.84,1.36-5.56C114,82.8,114.26,82.53,114.52,82.45Z"/><path class="cls-53" d="M109.43,69l.75.28,0,.38a30.56,30.56,0,0,1-4,4.16c-.58,0-1-.14-1.14-.8C106.41,71.64,107.57,69.94,109.43,69Z"/><path class="cls-28" d="M106.18,73.63a29.71,29.71,0,0,1,4-4c.09,1.24-1.17,1.48-1.7,2.27a19.71,19.71,0,0,1-1.55,1.76l-.45,0Q106.24,73.84,106.18,73.63Z"/><path class="cls-32" d="M32.16,159.7c1.34.35,2.78.32,4,1,.49.5,1.44.57,1.44,1.54-.33,2-1.63,3.68-2.13,5.64A33.28,33.28,0,0,0,34,172.57c-.43.76-.15,2-1.45,2.17L30,172.49c-.74-1.2-.07-2.34.2-3.47.52-2.13,1.3-4.18,1.92-6.29-.82,2.52-1.66,5-2.3,7.62-.1.44-.13,1.16-.92,1.14l-1.41-1.2a3.44,3.44,0,0,1,0-2.94c.6-1.72,1.33-3.38,1.8-5.14C30.25,159.52,30.25,159.52,32.16,159.7Z"/><path class="cls-32" d="M41.76,164.19c1.92,1.59,2.09,4,2.83,6.12a7.24,7.24,0,0,1,.14,2.18,23.7,23.7,0,0,1-.12,3.67,17.08,17.08,0,0,0-1.91,4.68c-.22.72-.21,1.74-1.17,1.88s-1.32-.67-1.69-1.39a2.75,2.75,0,0,1,.32-1.92,7,7,0,0,0,.36-1.58c.92-2.7,1.63-5.47,2.41-7.3a70,70,0,0,0-2.8,8.81c-.26.39-.3.89-.62,1.25a.74.74,0,0,1-1.13-.49,1.1,1.1,0,0,0-.73-.68,2.21,2.21,0,0,1-.31-2.06,114.12,114.12,0,0,1,3.22-11.47C40.8,165.22,41,164.47,41.76,164.19Z"/><path class="cls-32" d="M37.29,162.36c.08-.85-.84-1-1.09-1.65,1.81.27,3.22,1.36,4.7,2.31a2.42,2.42,0,0,1,0,2.1,86.77,86.77,0,0,0-3,10.08,13.08,13.08,0,0,1-.45,1.38c-.66,1.7-.9,1.76-2.31.52l-1.45-1.35c-.7-.81-.23-1.66-.06-2.49.39-1.79,1.2-3.45,1.61-5.24.54-1.39,1.21-2.71,1.83-4.07C37.28,163.47,37.89,163,37.29,162.36Z"/><path class="cls-54" d="M26.77,159.42h2.4c1.75.54.32,1.56.37,2.36-1.17,2.39-1.68,5-2.86,7.43-.78-.07-1.07-.88-1.72-1.13C24.05,164.88,25.09,162.08,26.77,159.42Z"/><path class="cls-54" d="M21.93,160.46c0-.84.57-1.1,1.31-1.09l2.68,0c.55,1.34-.53,2.36-.7,3.57-.12.89-.5,1.72-.68,2.61-.13.61-.35,1.17-1.14,1.12l-2.12-1.87A4.19,4.19,0,0,1,21.93,160.46Z"/><path class="cls-55" d="M35.13,177.1c.85.7,1.39,1.08,1.84-.52,1.21-4.31,2.09-8.72,3.93-12.85.09-.19,0-.47,0-.71l.86,1.17a109,109,0,0,0-4,13.8,6.16,6.16,0,0,0-.06,1.43C36.79,178.66,35.55,178.33,35.13,177.1Z"/><path class="cls-56" d="M17.94,161.92l-.72-.74.4-1.8,2.89-.07c.35.13.84-.1,1,.39-.22,1.15-.15,2.39-1,3.33-.14.46-.32.77-.83.33S18.52,162.4,17.94,161.92Z"/><path class="cls-57" d="M38.38,180.1l1,.36c.45.06.51.49.72.78a2.91,2.91,0,0,0,1.45,1.4c.88-2.15,1.07-4.56,2.52-6.44.61.42.42,1,.28,1.55-.24.93-.38,1.9-.69,2.82-.5,1.53-.91,3.05.5,4.39a.73.73,0,0,1,.05,1c-1.43-1.21-2.85-2.41-4.27-3.63-.49-.42-.83-1.07-1.61-1.08l-.37-.37Z"/><path class="cls-35" d="M28.88,171.49c.92-1.39.93-3.06,1.41-4.59a21.63,21.63,0,0,1,2.59-6.41,14.92,14.92,0,0,1-.87,4.14c-.76,2.6-2,5.07-2,7.86Z"/><path class="cls-58" d="M26.68,169.21a22.51,22.51,0,0,1,2.55-7.65c.74,0,.52.43.43.83-.63,1.87-1.24,3.75-1.9,5.62a4.24,4.24,0,0,0-.29,2.28Z"/><path class="cls-59" d="M23.4,166.69a1,1,0,0,0,.68-.95c.27-2.22,1.29-4.21,1.84-6.35l.85,0c-.62,2.24-1.25,4.48-1.86,6.72a3.07,3.07,0,0,0,.05,1.94C24.46,167.6,24.26,166.76,23.4,166.69Z"/><path class="cls-35" d="M20.52,163a6.93,6.93,0,0,1,1-3.33l.37.76c0,1.48-1.19,2.79-.65,4.36C20.42,164.48,21.16,163.46,20.52,163Z"/><path class="cls-60" d="M33.92,173.22c0,.84-.5,1.65-.24,2.53l-1.16-1c1-.48.38-1.71,1-2.35C33.92,172.56,33.71,173,33.92,173.22Z"/><path class="cls-61" d="M15.34,164.47a9.4,9.4,0,0,1,2.22-2.23A2.74,2.74,0,0,1,15.34,164.47Z"/><path class="cls-62" d="M20.85,159a22.44,22.44,0,0,1,4-4h.35C23.87,156.46,22.76,158.16,20.85,159Z"/><path class="cls-63" d="M29.66,162.39c-.07-.32-.08-.66-.43-.83-.23-.71,1.43-1.46-.06-2.14,1,0,2-.32,3,.28C30,159.33,30.43,161.43,29.66,162.39Z"/><path class="cls-64" d="M44.18,178l-.08-1.76c.88-1.17.14-2.54.5-3.78.15,0,.24,0,.27.16l0,.65,0,1.45L44.59,178A.25.25,0,0,1,44.18,178Z"/><path class="cls-34" d="M44.87,172.58a2.4,2.4,0,0,1-.27-.16c0-.7,0-1.4,0-2.11C45.17,171,44.91,171.81,44.87,172.58Z"/><path class="cls-65" d="M16.07,159.05l.8.32c0,.44-.15,1-.56,1s-1.16-.54-1.22-.91C15,158.61,15.73,159.18,16.07,159.05Z"/><path class="cls-66" d="M44.18,178h.41q.18,4.18.34,8.39a.27.27,0,0,0,0,.3l-.67-.69C41.34,183.32,43.21,180.64,44.18,178Z"/><path class="cls-1" d="M70.06,48.54c-1.69-.57-3.73-.52-4.7-2.74,3,.27,5.88.25,8.78,1,1.58.42,3.64,1.19,5.54.29a3.39,3.39,0,0,1,1.59-.22c2.26.12,2.45-.08,2-2.21a8,8,0,0,1-.1-1.62c0-.32.14-.61.52-.62s.52.28.52.6c0,2.72,1.12,5.06,2.39,7.36a3.56,3.56,0,0,1,.19,1.06c.12,1-.46,1.28-1.31,1.31-1-.32-1-1.51-1.87-2a3.17,3.17,0,0,0-.92-.34c-1.9-.55-3.73,0-5.56.35a.76.76,0,0,1-.72-.2,4.24,4.24,0,0,1-.31-.4,8,8,0,0,0-4.84-1.39C70.92,48.63,70.42,48.88,70.06,48.54Z"/><path class="cls-1" d="M87.92,30.25,85.48,34c-1,.49-1,1.49-1.26,2.37-.07.28.06.68-.31.72s-.62-.33-.67-.72a2.11,2.11,0,0,1,0-.9c.8-2.32,1.28-4.78,2.73-6.84.24-.34.47-.36.72-.09C87.15,29.06,87.87,29.41,87.92,30.25Z"/><path class="cls-1" d="M83.67,37.35a11.23,11.23,0,0,1,.12,4.22C82.4,40.2,82.66,39,83.67,37.35Z"/><path class="cls-67" d="M85.42,52.55a1.73,1.73,0,0,0,1.42-1.08l.39-.78A3.36,3.36,0,0,1,88,52.17c-.49.75-1.25,1.27-1.67,2.07-.21.2-.43.3-.69.1A1.61,1.61,0,0,1,85.42,52.55Z"/><path class="cls-52" d="M70.06,48.54h1.46c.24.12.49.22.6.49a1.15,1.15,0,0,1-.48,1.41.47.47,0,0,1-.48-.08c0-.8.21-1.69-1.1-1.5Z"/><path class="cls-32" d="M77,50.73c.06-.36.08-.76.58-.74,1.87,0,3.73-.58,5.59,0,.35.78-.14,1.4-.41,2a34.89,34.89,0,0,1-2.39,5.06,6.2,6.2,0,0,0-1.42,4.13C78.34,64,77.38,66.63,77,69.4c-.28.69-.11,1.47-.36,2.14s-.36,1.53-1.44,1L73,69.7a2.38,2.38,0,0,1-.57-2.1c.14-.56,0-1.14.13-1.7a86.61,86.61,0,0,0,2.14-9C75.53,54.88,75.62,52.58,77,50.73Z"/><path class="cls-32" d="M85.42,52.55l.37,1.83a.71.71,0,0,1,.12.53c-1,3.2-2.34,6.31-3.46,9.49-.77,2-1.38,4.09-2.1,6.12-.21.6-.21,1.34-.94,1.65-.09.27-.17.54-.28.81-.3.73-.17,1.82-1.12,2s-1.16-.83-1.7-1.33c-.6-1.17.57-2.17.33-3.31.72-3.46,1.8-6.82,2.8-10.2,1-2.67,2.09-5.28,3.2-7.9A3.35,3.35,0,0,1,84,50.4C84.92,50.81,84.87,51.88,85.42,52.55Z"/><path class="cls-32" d="M88.67,83.61l-3-1.87a1.94,1.94,0,0,1,.06-2.93,53.25,53.25,0,0,1,2.93-7.62c.23-.56-.06-1.27.49-1.74a27,27,0,0,0,3.09-3.82c.72-1,1.54-1.15,2.39-.23s2,1.42,2.11,2.81c-1.17,0-1.51,1.61-2.77,1.42-.45-.69.07-1.26.22-2-.78,2.18-1.52,4.27-2.33,6.34a54.58,54.58,0,0,0-2.28,8.11C89.47,82.69,89.62,83.5,88.67,83.61Z"/><path class="cls-49" d="M85,67.12a7.8,7.8,0,0,1-4.33,4.77c-.52-.7-.11-1.37.09-2,.55-1.77,1.21-3.49,1.68-5.28,1.22-3,2.07-6.17,3.37-9.17a.78.78,0,0,1,.7-.42,4.58,4.58,0,0,1,2.11,4.12c-.93,2.28-2,4.51-2.83,6.83A2.17,2.17,0,0,1,85,67.12Z"/><path class="cls-68" d="M84.63,80.61c-.91-.19-1.42-1-2.12-1.46a1.2,1.2,0,0,1,.29-1.45,6.21,6.21,0,0,1,4-5.46c-.29,1.83-1.35,3.31-1.4,5.05C84.93,78.36,85.65,79.68,84.63,80.61Z"/><path class="cls-16" d="M82.84,64.59l-2.2,7.3c0,.33.08.83-.29.85s-.62-.36-.94-.57a47.38,47.38,0,0,1,2.66-8C82.5,64,82.66,64.3,82.84,64.59Z"/><path class="cls-38" d="M85,67.12a36.29,36.29,0,0,1,3.29-8.07.85.85,0,0,1,.61.51c-.15,2.29-1.46,4.21-2,6.37-.25.56-.35,1.21-.95,1.56l-.26.06Z"/><path class="cls-69" d="M82.06,78.69l-1.79-1.24c.27-1,1.34-1.15,2.16-1.78V77.3C82.19,77.73,82.68,78.36,82.06,78.69Z"/><path class="cls-70" d="M89.41,69.7l-.72,1.49-.11-.42a10.79,10.79,0,0,1-2.43-2.57l-.51-.65.14-.06c.35-.19.63-.58,1.11-.43C87.72,68,88.67,68.73,89.41,69.7Z"/><path class="cls-71" d="M77,70.41l-.66,3.28a1.55,1.55,0,0,1-1.11-1.14c1,.19.8-.62.93-1.11.2-.72,0-1.52.46-2.2C77.05,69.52,76.64,70.09,77,70.41Z"/><path class="cls-72" d="M84.63,80.61a11.23,11.23,0,0,1,.73-3.32c.12.51-.15,1.12.4,1.52.18,1-1,1.94-.06,2.93C84.94,81.75,85.11,80.87,84.63,80.61Z"/><path class="cls-28" d="M86.15,68.2a9.15,9.15,0,0,1,2.43,2.57A3.62,3.62,0,0,1,86.15,68.2Z"/><path class="cls-73" d="M82.06,78.69c.12-.47.24-.93.37-1.39l.37.4-.29,1.45Z"/><path class="cls-37" d="M72.66,67.56c-.31.78.26,1.42.37,2.14-.87-.35-.79-1.1-.78-1.81,0-.26,0-.52,0-.78l.22-.06C72.68,67.15,72.83,67.29,72.66,67.56Z"/><path class="cls-10" d="M2.27,94.14c-.09,1.18.35,2.54-1.12,3.25-.67-.8-.4-1.77-.32-2.63C1.51,87.38,2.3,80,2.94,72.62c.2-2.29,0-4.61,0-7.07,1.78.62,1.53,2,1.44,3.17-.32,4-.61,7.94-1.09,11.89C2.78,85.11,2.36,89.61,2.27,94.14Z"/><path class="cls-32" d="M94.07,69.68c.94-.45,1-2.44,2.73-1.49,2.12.41,2.62,1.24,1.66,3-.77,1.41-1.18,3-2.16,4.3a20.16,20.16,0,0,0-2.75,7.77c-.15.75.23,1.86-1,2.16a10.77,10.77,0,0,1-3.14-1.53c.15-3.46,1.55-6.61,2.47-9.88.48-1,.73-2.17,1.21-3.21C93.31,70.35,93.35,69.72,94.07,69.68Z"/><path class="cls-32" d="M106.18,73.63a.34.34,0,0,0,.27.12c-1,2.07-2,4.14-2.88,6.23a16.22,16.22,0,0,0-1.37,4.3c-.18.63-.39,1.25-.55,1.89-.63,2.64-1,2.8-3.54,1.71-.8-.34-.75-.79-.31-1.37a17.44,17.44,0,0,1,1.09-5.66,2.12,2.12,0,0,1,.25-.47,3.79,3.79,0,0,0,.76-2.15,27.5,27.5,0,0,1,2.47-6.36A2.29,2.29,0,0,1,105,73Z"/><path class="cls-54" d="M97.43,85c-.11.21-.25.4-.35.62-.25.55.4,1.88-1.11,1.36-.92-.32-2-.45-1.51-2,.64-2,1-4.06,1.52-6.1.34-.78.07-1.62.23-2.42a22.3,22.3,0,0,1,1.9-4.64c1.12-2.19,2.17-2.29,3.87-.34.17,1.39-.6,2.54-1.07,3.74-.71,1.85-1.24,3.76-2,5.59C98.48,82.22,98.36,83.76,97.43,85Z"/><path class="cls-74" d="M92.3,74.07Q90.86,79,89.41,83.9a.76.76,0,0,1-.74-.29c.83-1.81.75-3.83,1.39-5.69a25.64,25.64,0,0,1,1.5-4.23C92,73.47,92.14,73.77,92.3,74.07Z"/><path class="cls-54" d="M92.55,85.43a2.26,2.26,0,0,0,.75-2c.13-2.54,1.4-4.76,1.83-7.21.07-.41.55-.74.84-1.11a1.09,1.09,0,0,1,.28,1,2.21,2.21,0,0,1-1,1.56,38.68,38.68,0,0,0-1.76,7C93.45,85.24,93.59,86.23,92.55,85.43Z"/><path class="cls-58" d="M97.43,85a21.39,21.39,0,0,1,1.14-4.38.45.45,0,0,1,.69,0,37,37,0,0,1-1.46,5.87C97.67,86,98,85.41,97.43,85Z"/><path class="cls-43" d="M95.29,77.72l.61-1.56a1.08,1.08,0,0,0,.76.46A4.8,4.8,0,0,1,96,78.86C95.92,78.38,96,77.79,95.29,77.72Z"/><path class="cls-75" d="M23.81,46A10,10,0,0,1,26,48.17C24.88,47.82,24,47.29,23.81,46Z"/><path class="cls-10" d="M148.84,49.64a17.37,17.37,0,0,1-3.29-3.29c2.17-.74,4.41-.27,6.62-.28.84,0,1,1,.93,1.53a32.71,32.71,0,0,0,.1,5.91c-1-.63-.76-1.43-.7-2,.13-1.43-.39-2-1.84-1.84A13.81,13.81,0,0,1,148.84,49.64Z"/><path class="cls-46" d="M153.2,26.66h-.37a6.58,6.58,0,0,1-2.92-.33c-.89.53-1.65,0-2.4-.34-5.07-2.25-8.36-6.28-10.91-11-1.27-2.37-2.43-4.76-2.14-7.57a4.79,4.79,0,0,1,.59-2.26,4.26,4.26,0,0,1,1.06-1c1.87-.52,3.53.26,5.19.91a18.77,18.77,0,0,1,3,1.54,8.64,8.64,0,0,1,1.93,1.79,31.62,31.62,0,0,1,7.14,7A21.09,21.09,0,0,1,156.47,23a2,2,0,0,0-.09.35c-.1,1.07.13,2.36-.4,3.14S154.15,26.28,153.2,26.66Z"/><path class="cls-5" d="M135.36,5.17a10.42,10.42,0,0,0,1,8.19,32.54,32.54,0,0,0,5.57,8.2,17.65,17.65,0,0,0,8,4.78c.2.58.83.62,1.27,1L138.69,39.76c-.4-.3-.66-1.13-1.53-1l-.15-.2c-.13-.59.34-.91.6-1.32A44.78,44.78,0,0,0,141.48,32a1.63,1.63,0,0,1,.76,0,7.47,7.47,0,0,0,2.66-3.05c.21-.54.53-1.35-.15-1.63s-.88.6-1.12,1.09a12.91,12.91,0,0,0-.73,2.81c-.1.42-.25.83-.84.73s-.56-.64-.63-1.09a6.24,6.24,0,0,1,.37-2.3c.82-2.65.81-2.66-1.49-4.55.15,2.32-.8,4.3-1.43,6.37a1.57,1.57,0,0,1-1.07.82c-.47-.16-.57-.45-.31-.87l1.12-2.89a10,10,0,0,0,0-4.36c-.81-1.69-1.62-3.37-2.58-5A19.38,19.38,0,0,1,133.55,7.4c.32-.45-.13-1.08.32-1.51l.07,0a2.85,2.85,0,0,1,.29,0C134.65,5.71,134.61,4.83,135.36,5.17Z"/><path class="cls-76" d="M131.36,44.54v-.72c.27-.19.55,0,.83,0,1.46-1,2-2.76,3.24-4,.42-.41.68-1,1.25-1.25a.51.51,0,0,1,.47.11h0c1.37,1.11.9,2-.23,3-1.67,1.5-3.19,3.17-4.8,4.74-.23.22-.61.9-.79-.06l0,0A2.62,2.62,0,0,0,131.36,44.54Z"/><path class="cls-77" d="M121.53,82.11l.65-1.92.33.78c.29.8.32,1.51-.66,1.86Z"/><path class="cls-78" d="M121.85,82.83a3,3,0,0,0,.66-1.86l.1,0c.69,0,.5.38.35.75C122.87,82.43,123,83.3,121.85,82.83Z"/><path class="cls-79" d="M123,81.77a.85.85,0,0,0-.35-.75,3.31,3.31,0,0,1,.62-1.81c0,.48.1,1,.16,1.43C123.28,81,123.37,81.5,123,81.77Z"/><path class="cls-80" d="M116.77,86.52l.29-.09c.13.38-.09.9.42,1.15C116.16,88,116.94,86.91,116.77,86.52Z"/><path class="cls-51" d="M115.91,88.25c.18-.63,0-1.35.41-1.92C116.3,87,116.68,87.75,115.91,88.25Z"/><path class="cls-28" d="M2.84,136.92A18.12,18.12,0,0,1,2.52,143C-.29,141.46-.24,139.5,2.84,136.92Z"/><path class="cls-32" d="M71.53,50.37,72,49a6.32,6.32,0,0,1,4.6,1.11.17.17,0,0,0,0,.18c-.28,2.24-1.26,4.3-1.78,6.47-.7,2.71-1.2,5.46-1.85,8.17-.43.65-.09,1.58-.75,2.15l0,0c-.24.09-.42.45-.73,0-1.89-2.45-3.12-5-2-8.23.56-1.7.93-3.46,1.39-5.19.32-.59-.16-1.26.17-1.85S71.14,50.8,71.53,50.37Z"/><path class="cls-81" d="M71.27,51.86c-.15.62,0,1.32-.43,1.88-.06-.31-.08-.63-.39-.81l.36-1.1A.32.32,0,0,1,71.27,51.86Z"/><path class="cls-82" d="M135.36,5.17c-.57-.06-.47.92-1.13.72a13.6,13.6,0,0,1,5-5L145.32,7c.41.42.94.77.94,1.46l-1.84-1.32a14.78,14.78,0,0,0-6.11-2.94,2.38,2.38,0,0,0-2.24.33Z"/><path class="cls-83" d="M127.79,12.52c-.91.41-.89,1.43-1.4,2.12a17.49,17.49,0,0,1-5.56,4.78l-.46-.39c.75-.72,1.7-1.24,2.19-2.22l4.76-4.7C127.5,12.23,127.74,12.26,127.79,12.52Z"/><path class="cls-8" d="M127.79,12.52l-.47-.41c1.12-1.07,2.22-2.16,3.36-3.2.27-.25.48-1,1.08-.36C130.81,10.24,130,12.11,127.79,12.52Z"/><path class="cls-84" d="M133.87,5.89a2.4,2.4,0,0,1-.32,1.51l-.41-.78A.87.87,0,0,1,133.87,5.89Z"/><path class="cls-85" d="M71.27,51.86l-.46,0a1.87,1.87,0,0,1,.35-1.46h.37A2.26,2.26,0,0,1,71.27,51.86Z"/><path class="cls-14" d="M131.38,39.56C129,43,127.8,47,126.57,51c-.12.4-.23.81-.35,1.21-.39.38-.15,1.53-1.25,1-.64-1.23,0-2.37.28-3.5a21,21,0,0,1,1.57-4.24c.1-.2.24-.39.34-.6s0-.34,0-.1-.34,0-.13.12a14,14,0,0,1-1.56,1.43c-.43.35-.83.73-1.25,1.08s-.81.79-1.24,1.17a9.83,9.83,0,0,0-5.11,7,3.3,3.3,0,0,1-.63,1.48c-.57.49-1,.37-1.22-.34-.16-1.63.78-3,1.18-4.51a4,4,0,0,0-3.81,2.27c-.55-.06-.62-.51-.75-.91-.06-.91-1.06-.86-1.45-1.43.22-.93,1.13-.19,1.55-.64a22.78,22.78,0,0,0,11.21-5.91c2.38-2.13,4.68-4.34,7-6.52C131.32,39,131.51,39.16,131.38,39.56Z"/><path class="cls-86" d="M112.73,51.5l-1.46.68c-1,.89-1,2.3-1.83,3.3l-.76-.75c.22-2.14-1-3.11-2.86-3.68a1.11,1.11,0,0,1-.88-1.21c.14-.25.31-.44.63-.25C107.82,50.73,110.11,51.73,112.73,51.5Z"/><path class="cls-38" d="M131.38,39.56l-.42-.49,2.94-3.57a.8.8,0,0,1,.57.83c-.92,1.58-1.26,3.41-2.17,5-.35.07-.45-.2-.58-.43C131.45,40.49,132.26,39.81,131.38,39.56Z"/><path class="cls-86" d="M137.5,30.29l.39.74a1,1,0,0,1,0,1,3.19,3.19,0,0,1-.23.45c-.94,1-1.25,2.67-2.88,3.08-.4-.23-.41-.53-.19-.89Z"/><path class="cls-87" d="M105.57,49.59l-.5.41c-1.94.12-2.61-1.53-3.66-2.64l0-1Z"/><path class="cls-43" d="M138.59,23a5.27,5.27,0,0,1,0,4.36Z"/><path class="cls-30" d="M134.57,34.63l.32.79c.26.61-.12.76-.6.84l-.39-.76A1.4,1.4,0,0,1,134.57,34.63Z"/><path class="cls-2" d="M96.66,76.62c-.52.29-.7,0-.76-.46l.07-1c.82-1.62,1.76-3.2,2.44-4.88.56-1.38-1-1.46-1.61-2.09l-3.3-3.61a19.36,19.36,0,0,1-4.09,5.12,3.68,3.68,0,0,1-2.57-2.56.52.52,0,0,1-.11-.48c.6-1.16,1.85-1.68,2.66-2.65,1-1.15,1.3-2.13.1-3.26-.35-.34-.45-.85-.75-1.22l-.48-.48c0-1.61-1.08-2.67-1.86-3.89A10.3,10.3,0,0,0,86.15,54,2.08,2.08,0,0,1,88,52.17a38.26,38.26,0,0,0,19.09,15.89l2.36,1c-1.39,1.45-2.51,3.2-4.46,4l-2.36-1.1c-.46.22-.61-.16-.82-.43-2.4-1.45-2.45-1.47-3.57,1A16.94,16.94,0,0,0,96.66,76.62Z"/><path class="cls-88" d="M125.15,46l1.72-1.51c.68,0,.69.33.46.82-.83,2.63-2.09,5.15-2.26,8a5.5,5.5,0,0,1,.19,1.85,13,13,0,0,0-.14,1.76c0,.36-.07.76.31,1-.43,1.07.1,2.37-.78,3.35a3.33,3.33,0,0,0-2.86-2.76,1.34,1.34,0,0,1-.3-.48,2.84,2.84,0,0,1-.06-1.16A54.29,54.29,0,0,1,125.15,46Z"/><path class="cls-30" d="M121.87,56.93,121.8,58c-.18,1.06-1.49,1.42-1.57,2.54.51.93,1.58,1.34,2.08,2.26l-1.21.59-.39-.31c-2-1.8-2-1.8-3.67.34a1,1,0,0,1-1.76,0,19.69,19.69,0,0,0,1.42-1.61c.46-.64,1.75-1,1.26-1.92A3,3,0,0,0,115.33,58c-.26,0-.53-.23-.79-.35a3.35,3.35,0,0,1,1.81-1.17c0,.53.29.65.75.41a2.7,2.7,0,0,0,3.82-.45C121.32,56.45,121.27,57.38,121.87,56.93Z"/><path class="cls-11" d="M122.31,62.84a5.26,5.26,0,0,1-2.64-2.26c.66-.51,1.08.08,1.57.36s.74.46,1.12.05.2-.76.06-1.17-1-.82-.54-1.54c3,.46,3,.46,2.77,3A7.3,7.3,0,0,1,122.31,62.84Z"/><path class="cls-7" d="M116.74,63.83l0-.32c1.8-2.25,1.8-2.25,4.33-.4,0,.1,0,.21,0,.32A8.41,8.41,0,0,1,116.74,63.83Z"/><path class="cls-14" d="M124.8,57.28c0-.72,0-1.44,0-2.17.31-.42.11-1.35,1.1-1.09-.15,1-.3,1.94-.46,2.91C125.28,57.16,125.19,57.49,124.8,57.28Z"/><path class="cls-17" d="M125.89,54c-.61.11-.69.77-1.1,1.09a3.66,3.66,0,0,1,.28-1.82c.62-.12.69-.81,1.15-1.1A4,4,0,0,1,125.89,54Z"/><path class="cls-85" d="M131.72,40.9l.38.46a2.1,2.1,0,0,1-.09,2.82l-.64-.36A7.79,7.79,0,0,1,131.72,40.9Z"/><path class="cls-17" d="M124.8,57.28l.63-.35v1c-.18.12-.39.42-.55.2S124.82,57.57,124.8,57.28Z"/><path class="cls-85" d="M131.36,44.54a1.31,1.31,0,0,1,0,1.83Z"/><path class="cls-54" d="M116.35,56.52c-.26.93-.79,1.42-1.81,1.17-.92-.42-2.72-.27-1.4-2.15.26-.36,0-.84.26-1.19.11-1.35.6-2.28,2.17-2.39a12,12,0,0,0,2.53-.74C117.52,53.1,116.46,54.67,116.35,56.52Z"/><path class="cls-89" d="M101.41,47.36c1.26.82,2.24,2,3.66,2.64a6.41,6.41,0,0,0,2.68,1.43c1.35.35,1.76,1,1.17,2.25a4.88,4.88,0,0,0-.24,1C105.92,53.48,102,49.48,101.41,47.36Z"/><path class="cls-68" d="M109.44,55.48c.44-1.2-.36-3.08,1.83-3.3.55.44,1.92-.49,1.8,1.07-.41.4.16,1.09-.43,1.43-.07.09-.19.17-.22.27-.46,2-.46,2-2.2,1Z"/><path class="cls-90" d="M112.64,54.68c.13-.48.06-1,.43-1.43.1.37,0,.81.33,1.1a1.41,1.41,0,0,1-.26,1.19C113,55.22,113,54.86,112.64,54.68Z"/><path class="cls-91" d="M37.29,162.36c.81-.65,1-.19.69.49-.84,1.63-1.3,3.46-2.45,4.94-.16.2-.31.19-.44,0C35.44,165.8,36.71,164.22,37.29,162.36Z"/><path class="cls-92" d="M35.09,167.76l.44,0c-.1,1.94-1.12,3.6-1.61,5.43l-.36-.83A17.14,17.14,0,0,1,35.09,167.76Z"/><path class="cls-34" d="M39.78,179.42c0-2.36,1.15-4.39,1.85-6.55a18.48,18.48,0,0,1,1.64-3.74c-.16,3.11-1.44,5.93-2.34,8.84-.34.36-.22.91-.56,1.27C40.22,179.45,40.05,179.57,39.78,179.42Z"/><path class="cls-93" d="M39.78,179.42l.38-.31c.36-.16.5-.07.39.33-.52.51-.24,1.21-.42,1.8l-.72-.78C39.48,180.09,39.27,179.62,39.78,179.42Z"/><path class="cls-94" d="M40.55,179.44l-.39-.33a2.24,2.24,0,0,1,.77-1.14A2.25,2.25,0,0,1,40.55,179.44Z"/><path class="cls-43" d="M84,50.4l-4.13,9.81a.54.54,0,0,1-.78,0A5.53,5.53,0,0,1,80,57L83.14,50Z"/><path class="cls-24" d="M74.49,56.58a23.74,23.74,0,0,1,2.09-6.29l.39.44a45.74,45.74,0,0,1-1.78,6.2C74.78,57.17,74.63,56.88,74.49,56.58Z"/><path class="cls-5" d="M76.6,50.11c-1.42-.85-3.11-.56-4.6-1.11l-.48-.45C72.88,48.16,75.88,49.08,76.6,50.11Z"/><path class="cls-1" d="M86.15,54c.43.3,1,.57.25,1.13l-.34.3c-.62,0-.5-.41-.35-.79a.29.29,0,0,1,.08-.29Z"/><path class="cls-43" d="M79.15,60.21h.7L77,70.41c-.42-.29-.27-.77-.38-1.17.16-2.85,1.34-5.47,1.89-8.24C78.76,60.78,78.45,60.07,79.15,60.21Z"/><path class="cls-95" d="M74.49,56.58l.7.35A51.17,51.17,0,0,1,73,66.05c-.9-.13-.45-.73-.4-1.18A48.86,48.86,0,0,1,74.49,56.58Z"/><path class="cls-32" d="M79.15,60.21l-.67.79c.15-1.48.23-3,1.51-4C79.85,58.07,79.11,59,79.15,60.21Z"/><path class="cls-96" d="M72.58,64.87c.1.4,0,.89.4,1.18a1.72,1.72,0,0,1-.32,1.51l-.46-.48A4,4,0,0,1,72.58,64.87Z"/><path class="cls-67" d="M85.71,54.67l.35.79a96,96,0,0,1-3.22,9.13l-.77-.38A75.25,75.25,0,0,1,85.71,54.67Z"/><path class="cls-97" d="M92.3,74.07l-.74-.38a67.41,67.41,0,0,1,2.75-7.18c.69,1.31-.22,2.18-.24,3.17Z"/><path class="cls-98" d="M88.74,59.53C90,60,90.3,61.25,91,62.14c.4.48-.2.87-.49,1.21a21.74,21.74,0,0,1-3.63,3.48c-.7,0-.67-.37-.49-.84Z"/><path class="cls-99" d="M86.43,66c.08.32.12.68.49.84a.68.68,0,0,1-.08.31c-.36.1-.61.54-1.06.35Z"/><path class="cls-59" d="M101.79,71.51l.82.43c-.77,2.15-1.53,4.3-2.3,6.46-.39.69-.39,1.52-.76,2.22l-.29,0h-.69C99.27,77.46,100.94,74.63,101.79,71.51Z"/><path class="cls-54" d="M99.55,80.62a3.55,3.55,0,0,1,.76-2.22A2.93,2.93,0,0,1,99.55,80.62Z"/><path class="cls-100" d="M136.07,4.48c.84-1.36,2.3-1,3.22-.63,1.86.74,3.85,1.48,5.13,3.24C141.75,5.84,139.17,4.34,136.07,4.48Z"/><path class="cls-49" d="M141.54,32.14c-.42,2.36-2.44,3.64-3.67,5.45-1.32-.39-.71-1.44-.76-2.26a8.15,8.15,0,0,0,.28-1.39,10.49,10.49,0,0,1,.54-2.14,12.16,12.16,0,0,1,.66-1.48,16.22,16.22,0,0,1,1-3.69c.57-1,0-2.14.24-3.28,1.16.39,1.93,1.35,2.94,1.95.69.41.33.88.14,1.38a10.7,10.7,0,0,0-1.11,3.92C141.53,31.07,141.92,31.69,141.54,32.14Z"/><path class="cls-101" d="M142.39,31.86a12.2,12.2,0,0,1,1.24-4.57c.28-.51.22-1.24,1.13-.83.67.3,1.18.5,1,1.55a5.21,5.21,0,0,1-3.31,4.06l-.33-.08Z"/><path class="cls-102" d="M137.56,35.14c.21.8-.39,1.71.31,2.45l-.71,1.11-.15,0h-.15c-1.07-1.37-.68-2.69.16-4C137.42,34.58,137.67,34.63,137.56,35.14Z"/><path class="cls-103" d="M146.59,27.68c.58-.7,1.16,0,1.85-.24-.28.85-.87.89-1.32,1.13C146.39,28.61,146.4,28.19,146.59,27.68Z"/><path class="cls-43" d="M138.59,30.32a2.57,2.57,0,0,1-.34,1.46.51.51,0,0,1-.73,0l.37-.77Z"/><path class="cls-101" d="M146.59,27.68a1.09,1.09,0,0,0,.53.89c-.15.28-.52.51-.67.34C146.12,28.53,146.35,28.07,146.59,27.68Z"/><path class="cls-67" d="M142.39,31.86a.5.5,0,0,1,0,.21l-.87.07a2,2,0,0,1,.31-1.54C141.93,31.06,141.87,31.59,142.39,31.86Z"/><path class="cls-54" d="M137.22,34.71a10.66,10.66,0,0,0-.36,4c-1.33,1.78-2.65,3.57-4,5.34-.2.25-.41,1.23-.85.12l.09-2.82c.49-1.8.78-3.69,2.19-5.1l.6-.84,2.6-3.2c.46.36.17.83.19,1.26C137.52,33.89,137.54,34.36,137.22,34.71Z"/><path class="cls-49" d="M121.07,56.49a2.7,2.7,0,0,1-3.74,1.4c-.38-.21-.15-.64-.23-1a18.7,18.7,0,0,1,2-5.88c.71-1.27,2.48-1.95,3.78-2.89.57-.13.66.3.79.68A22.91,22.91,0,0,1,121.07,56.49Z"/><path class="cls-38" d="M121.07,56.49l2.28-7.42a4.68,4.68,0,0,1,.69-2l1.11-1q-1.65,5.47-3.28,10.93C121.1,57.69,121.1,57.06,121.07,56.49Z"/><path class="cls-88" d="M124,47.05a3.35,3.35,0,0,1-.69,2,1.08,1.08,0,0,0-.46-.91Z"/><path class="cls-104" d="M127.33,45.31c-.06-.33-.11-.66-.46-.82a2.29,2.29,0,0,1,1-1.05A2.21,2.21,0,0,1,127.33,45.31Z"/><path class="cls-105" d="M137.49,33.55V32.22l0-.42.73,0L137.82,34C137.5,34,137.29,33.94,137.49,33.55Z"/><path class="cls-106" d="M121.88,58.28a10.73,10.73,0,0,0,.77,1,1.53,1.53,0,0,1,0,2.38c-.85.88-1.37,0-1.92-.51a1.62,1.62,0,0,0-1.09-.55c.11-1.35,1.35-1.75,2.13-2.54A.21.21,0,0,1,121.88,58.28Z"/><path class="cls-75" d="M121.05,63.11c-.11,0-.27,0-.34,0-1.51-1.36-2.81-1-4,.45a2.77,2.77,0,0,1,2-2.34C119.82,60.92,120.41,62.28,121.05,63.11Z"/><path class="cls-9" d="M117.64,58.44h2c0,.73-.61,1-.87,1.44A3.36,3.36,0,0,1,117.64,58.44Z"/><path class="cls-107" d="M137.49,33.55l.33.4a1.53,1.53,0,0,1-.26,1.19l-.34-.43A1.39,1.39,0,0,1,137.49,33.55Z"/></g></g></svg>